<svg width="30" height="26" fill="none" xmlns="http://www.w3.org/2000/svg"><path d="M19.74 3.757c-.728 0-1.414.287-1.922.786a2.738 2.738 0 00-1.921-.786 2.748 2.748 0 00-2.745 2.746c0 1.388.783 2.802 2.264 4.089a11.95 11.95 0 002.204 1.512.439.439 0 00.396 0 11.95 11.95 0 002.204-1.512c1.482-1.287 2.265-2.701 2.265-4.09a2.748 2.748 0 00-2.745-2.745zm-1.922 7.455c-.806-.456-3.788-2.305-3.788-4.71a1.87 1.87 0 011.867-1.866c.626 0 1.208.313 1.555.836a.44.44 0 00.732 0 1.864 1.864 0 011.556-.836c1.029 0 1.866.838 1.866 1.867 0 2.404-2.982 4.253-3.788 4.709zm8.924-7.455h-2.348a.44.44 0 000 .88h2.348a.44.44 0 000-.88zm-.939 4.697h-1.41a.44.44 0 000 .88h1.41a.44.44 0 000-.88zm.939-2.348h-2.348a.44.44 0 000 .879h2.348a.44.44 0 000-.879zM8.894 10.742a.44.44 0 100-.878h-.94a.44.44 0 000 .878h.94zm-4.697 0h1.879a.44.44 0 100-.878h-1.88a.44.44 0 000 .878zm0 2.349h4.697a.44.44 0 000-.879H4.197a.44.44 0 100 .88zM9.333 15a.44.44 0 00-.44-.44H4.198a.44.44 0 000 .88h4.697a.44.44 0 00.44-.44zm-1.378 2.788h7.515a.44.44 0 100-.88H7.955a.44.44 0 000 .88zm-3.758-.879a.44.44 0 000 .879h1.879a.44.44 0 100-.88h-1.88zm21.606-6.106h-1.41a.44.44 0 000 .879h1.41a.44.44 0 000-.879z" fill="#FFBB01"/><path d="M28.151 0h-15.97a1.85 1.85 0 00-1.848 1.849V13.59c0 1.02.83 1.848 1.849 1.848h10.151l3.297 3.297a.907.907 0 00.99.197.906.906 0 00.562-.84V15.44h.97A1.85 1.85 0 0030 13.59V1.85A1.85 1.85 0 0028.151 0zm.97 13.59a.97.97 0 01-.97.97h-1.409a.44.44 0 00-.439.44v3.093c0 .01 0 .02-.019.028-.018.008-.025.001-.033-.006l-3.425-3.426a.44.44 0 00-.31-.129H12.181a.97.97 0 01-.97-.97V1.85a.97.97 0 01.97-.97h15.97a.97.97 0 01.969.97v11.74z" fill="#FFBB01"/><path d="M19.227 16.44a.44.44 0 00-.44.439v2.818a.97.97 0 01-.969.97H7.485a.44.44 0 00-.31.128l-3.426 3.426c-.008.007-.015.014-.033.006-.019-.007-.019-.017-.019-.028v-3.093a.44.44 0 00-.44-.44H1.85a.97.97 0 01-.97-.969V7.955a.97.97 0 01.97-.97h7.045a.44.44 0 000-.879H1.85A1.85 1.85 0 000 7.955v11.742c0 1.02.83 1.849 1.849 1.849h.97v2.653a.906.906 0 00.91.91.907.907 0 00.641-.267l3.297-3.296h10.151a1.85 1.85 0 001.849-1.849v-2.818a.44.44 0 00-.44-.44z" fill="#FFBB01"/></svg>