<svg height="512" width="512" xmlns="http://www.w3.org/2000/svg"><path fill="#fff" d="M80 440a40.045 40.045 0 0040 40h272a40.045 40.045 0 0040-40v-72H80zm208-8a24 24 0 010-48h16a8 8 0 010 16h-16a8 8 0 000 16 24 24 0 010 48h-16a8 8 0 010-16h16a8 8 0 000-16zm-80 0a8 8 0 018 8 8 8 0 0016 0v-48a8 8 0 0116 0v48a24 24 0 01-48 0 8 8 0 018-8zm184-320h28.687L352 43.313V72a40.045 40.045 0 0040 40z"/><path fill="#fff" d="M336 72V32H120a40.045 40.045 0 00-40 40v280h352V128h-40a56.063 56.063 0 01-56-56zM176 232v32a8.009 8.009 0 008 8 8 8 0 010 16 24.028 24.028 0 01-24-24v-32a8.009 8.009 0 00-8-8 8 8 0 010-16 8.009 8.009 0 008-8v-32a24.028 24.028 0 0124-24 8 8 0 010 16 8.009 8.009 0 00-8 8v32a23.9 23.9 0 01-6.126 16A23.9 23.9 0 01176 232zm48-8a8 8 0 118-8 8 8 0 01-8 8zm32 0a8 8 0 118-8 8 8 0 01-8 8zm32 0a8 8 0 118-8 8 8 0 01-8 8zm72 0a8.009 8.009 0 00-8 8v32a24.028 24.028 0 01-24 24 8 8 0 010-16 8.009 8.009 0 008-8v-32a23.9 23.9 0 016.126-16A23.9 23.9 0 01336 200v-32a8.009 8.009 0 00-8-8 8 8 0 010-16 24.028 24.028 0 0124 24v32a8.009 8.009 0 008 8 8 8 0 010 16z"/></svg>