<svg width="199" height="225" fill="none" xmlns="http://www.w3.org/2000/svg"><g clip-path="url(#clip0)"><path d="M180.086 202.386l-80.645 21.715-80.647-21.715L.184.772h198.514l-18.612 201.614z" fill="#2062AF"/><path d="M99.44 17.103v189.679l.183.049 65.262-17.573 15.064-172.155H99.44z" fill="#3C9CD7"/><path d="M99.368 67.514l-57.72 24.04 1.914 23.8 55.806-23.861 59.364-25.38 2.461-24.348-61.825 25.75z" fill="#fff"/><path d="M41.647 91.553l1.914 23.801 55.807-23.861V67.514l-57.72 24.04z" fill="url(#paint0_linear)"/><path d="M161.193 41.766L99.369 67.514v23.98l59.363-25.382 2.461-24.346z" fill="url(#paint1_linear)"/><path d="M41.736 91.553l1.915 23.801 85.627.273-1.915 31.733-28.176 7.933-27.086-6.839-1.641-19.697H45.292l3.283 38.026 50.885 15.045 50.609-14.772 6.566-75.503H41.736z" fill="url(#paint2_linear)"/><path opacity=".05" d="M99.368 91.553h-57.72l1.914 23.801 55.806.178V91.554zm0 63.664l-.273.077-27.082-6.839-1.642-19.697H45.205l3.282 38.025 50.881 15.046v-26.612z" fill="#000"/><path d="M36.45 41.766h124.743l-2.461 24.347H39.459l-3.01-24.347z" fill="url(#paint3_linear)"/><path opacity=".05" d="M99.369 41.766h-62.92l3.01 24.347h59.91V41.766z" fill="#000"/></g><defs><linearGradient id="paint0_linear" x1="70.507" y1="115.354" x2="70.507" y2="67.515" gradientUnits="userSpaceOnUse"><stop offset=".387" stop-color="#D1D3D4" stop-opacity="0"/><stop offset="1" stop-color="#D1D3D4"/></linearGradient><linearGradient id="paint1_linear" x1="130.28" y1="91.494" x2="130.28" y2="41.767" gradientUnits="userSpaceOnUse"><stop offset=".387" stop-color="#D1D3D4" stop-opacity="0"/><stop offset="1" stop-color="#D1D3D4"/></linearGradient><linearGradient id="paint2_linear" x1="41.736" y1="136.691" x2="156.635" y2="136.691" gradientUnits="userSpaceOnUse"><stop stop-color="#E8E7E5"/><stop offset="1" stop-color="#fff"/></linearGradient><linearGradient id="paint3_linear" x1="36.45" y1="53.94" x2="161.193" y2="53.94" gradientUnits="userSpaceOnUse"><stop stop-color="#E8E7E5"/><stop offset="1" stop-color="#fff"/></linearGradient><clipPath id="clip0"><path fill="#fff" d="M0 0h198.884v225H0z"/></clipPath></defs></svg>