<svg width="738" height="200" fill="none" xmlns="http://www.w3.org/2000/svg"><path d="M141.867 85.264H79.969a2.893 2.893 0 00-2.891 2.893v30.261a2.897 2.897 0 002.891 2.897h24.146v37.598s-5.423 1.848-20.411 1.848c-17.684 0-42.388-6.462-42.388-60.783 0-54.335 25.722-61.483 49.874-61.483 20.905 0 29.911 3.68 35.641 5.454 1.801.552 3.466-1.241 3.466-2.84l6.905-29.239c0-.747-.253-1.647-1.105-2.259-2.328-1.66-16.526-9.604-52.393-9.604C42.385.007 0 17.599 0 102.103c0 84.513 48.528 97.106 89.42 97.106 33.859 0 54.399-14.469 54.399-14.469.847-.468.938-1.651.938-2.194V88.165a2.892 2.892 0 00-2.89-2.894m318.992-75.133c0-1.61-1.276-2.91-2.873-2.91h-34.851c-1.592 0-2.886 1.3-2.886 2.91l.009 67.35h-54.324v-67.35c0-1.61-1.282-2.91-2.876-2.91h-34.849c-1.586 0-2.879 1.3-2.879 2.91V192.5c0 1.608 1.293 2.918 2.879 2.918h34.849c1.594 0 2.876-1.31 2.876-2.918v-78.005h54.324l-.095 78.005c0 1.608 1.293 2.918 2.886 2.918h34.934c1.597 0 2.873-1.31 2.876-2.918V10.138zM207.638 34.064c0-12.549-10.061-22.69-22.474-22.69-12.4 0-22.469 10.141-22.469 22.69 0 12.536 10.069 22.704 22.469 22.704 12.413 0 22.474-10.168 22.474-22.704zm-2.5 119.967V69.85c0-1.599-1.29-2.905-2.883-2.905h-34.741c-1.594 0-3.02 1.644-3.02 3.241v120.606c0 3.545 2.208 4.598 5.067 4.598h31.301c3.434 0 4.276-1.685 4.276-4.654V154.03m388.159-86.81h-34.584c-1.586 0-2.877 1.306-2.877 2.915v89.42s-8.786 6.428-21.256 6.428-15.78-5.658-15.78-17.868v-77.98c0-1.609-1.288-2.916-2.875-2.916h-35.1c-1.584 0-2.882 1.307-2.882 2.916v83.885c0 36.267 20.213 45.139 48.02 45.139 22.811 0 41.204-12.602 41.204-12.602s.876 6.641 1.271 7.429c.398.786 1.43 1.579 2.545 1.579l22.33-.098c1.584 0 2.882-1.31 2.882-2.912l-.011-122.42c0-1.608-1.293-2.916-2.887-2.916m80.89 98.654c-11.995-.366-20.132-5.809-20.132-5.809v-57.751s8.028-4.92 17.876-5.8c12.454-1.115 24.454 2.647 24.454 32.356 0 31.328-5.416 37.511-22.198 37.005v-.001zm13.641-102.75c-19.642 0-33.003 8.764-33.003 8.764V10.133c0-1.61-1.287-2.91-2.876-2.91H617c-1.589 0-2.88 1.3-2.88 2.91v182.362c0 1.609 1.291 2.919 2.885 2.919h24.248c1.092 0 1.919-.563 2.529-1.549.603-.98 1.473-8.408 1.473-8.408S659.546 199 686.6 199c31.76 0 49.975-16.11 49.975-72.324 0-56.213-29.09-63.56-48.747-63.56m-382.521 3.812h-26.143l-.04-34.537c0-1.307-.673-1.96-2.184-1.96h-35.626c-1.385 0-2.128.609-2.128 1.94v35.69s-17.853 4.31-19.06 4.658a2.895 2.895 0 00-2.088 2.78v22.428c0 1.613 1.289 2.914 2.882 2.914h18.266v53.954c0 40.075 28.11 44.012 47.079 44.012 8.667 0 19.036-2.784 20.747-3.416 1.036-.38 1.637-1.452 1.637-2.615l.029-24.671c0-1.609-1.359-2.911-2.89-2.911-1.523 0-5.42.62-9.432.62-12.841 0-17.192-5.971-17.192-13.699l-.001-51.275h26.144c1.593 0 2.883-1.3 2.883-2.913V69.835a2.89 2.89 0 00-2.883-2.906" fill="#fff"/></svg>