<svg width="200" height="443" fill="none" xmlns="http://www.w3.org/2000/svg"><path fill-rule="evenodd" clip-rule="evenodd" d="M99.076 349.267c-25.932 0-45.97-3.895-55.606-6.217-6.589-1.587-11.88-3.23-15.9-4.918l12.852 21.957 5.027 68.603c0 7.691 24.431 13.925 54.569 13.925s54.57-6.234 54.57-13.925l3.981-69.35 12.159-21.274c-4.036 1.71-9.375 3.375-16.047 4.982-9.636 2.322-29.674 6.217-55.605 6.217zm72.069-223.237c-19.032 2.658-44.293 4.123-71.127 4.123-26.834 0-52.094-1.465-71.127-4.123-9.427-1.316-16.886-2.87-22.17-4.613-1.26-.417-3.395-1.128-5.45-2.261l11.792 108.527a92.243 92.243 0 011.834-5.595 106 106 0 014.803-11.179 99.106 99.106 0 015.938-10.321 79.952 79.952 0 016.83-8.949c2.415-2.724 4.892-5.068 7.435-7.032 2.543-1.962 5.11-3.497 7.7-4.602 2.591-1.105 5.157-1.659 7.7-1.659 2.928 0 5.76.801 8.497 2.402 2.735 1.6 5.293 4.193 7.675 7.776.547.801.894 1.611 1.037 2.43.146.82.218 1.592.218 2.316 0 1.715-.41 3.069-1.23 4.059-.821.992-1.795 1.487-2.921 1.487-1.032 0-1.988-.544-2.873-1.629-.886-1.087-1.875-2.64-2.97-4.661-1.03-1.83-2.164-3.153-3.402-3.973-1.24-.819-2.583-1.229-4.031-1.229-2.253 0-4.658.934-7.217 2.801-2.56 1.867-5.093 4.336-7.602 7.404-2.512 3.07-4.917 6.576-7.218 10.522a109.859 109.859 0 00-6.108 12.12c-1.77 4.138-3.176 8.217-4.223 12.238-1.046 4.021-1.57 7.633-1.57 10.834 0 1.069.074 2.166.218 3.288.146 1.126.418 2.145.821 3.06.401.916.95 1.667 1.64 2.256.694.593 1.57.887 2.631.887 1.192 0 2.543-.4 4.057-1.2 1.511-.799 3.08-1.849 4.705-3.143a59.042 59.042 0 004.9-4.405 78.243 78.243 0 004.587-4.974 72.618 72.618 0 003.764-4.83c1.095-1.544 1.915-2.888 2.463-4.032l4.49-13.438c.546-1.447 1.262-2.476 2.148-3.086.884-.61 1.794-.916 2.728-.916.45 0 .9.077 1.35.229a3.39 3.39 0 011.208.714c.354.325.636.744.845 1.259.209.514.313 1.115.313 1.8 0 1.83-.16 3.544-.482 5.147a40.858 40.858 0 01-1.232 4.689 80.805 80.805 0 01-1.666 4.602 113.91 113.91 0 00-1.785 4.833c-.128.191-.361.789-.7 1.799a273.35 273.35 0 00-1.23 3.803 329.034 329.034 0 00-1.57 5.118c-.564 1.888-1.142 3.812-1.737 5.775a470.04 470.04 0 00-1.714 5.776 1363.532 1363.532 0 00-2.56 8.948 65.178 65.178 0 01-.53 1.831c-.16.608-.42 1.285-.772 2.028a13.437 13.437 0 01-1.256 2.116 7.701 7.701 0 01-1.593 1.657c-.579.438-1.174.658-1.786.658-1.03 0-1.778-.343-2.244-1.028-.467-.687-.7-1.945-.7-3.773v-.801c0-.268.016-.555.048-.857.03-.611.273-1.755.725-3.434.45-1.676.989-3.571 1.617-5.687a334.794 334.794 0 012.028-6.577 1375.63 1375.63 0 011.955-6.088 95.967 95.967 0 01-5.552 5.689 59.801 59.801 0 01-6.131 5.088c-2.093 1.506-4.201 2.736-6.324 3.689-2.124.952-4.168 1.43-6.131 1.43-2.253 0-4.192-.496-5.819-1.487-.293-.181-.57-.382-.845-.582l6.562 68.798c1.708 4.281 33.867 14.8 76.267 14.8 42.421 0 74.592-10.529 76.27-14.807l9.426-81.795a395.94 395.94 0 00-2.265 2.093c-2.705 2.515-5.256 4.678-7.653 6.489-2.397 1.81-4.739 3.213-7.024 4.202-2.286.992-4.732 1.487-7.338 1.487-2.446 0-4.338-.534-5.673-1.601-1.335-1.066-2.003-2.533-2.003-4.402v-.429c0-.133.016-.296.049-.487.128-1.141.628-2.459 1.497-3.944.868-1.488 1.914-3.031 3.136-4.631a127.64 127.64 0 013.91-4.862 225.592 225.592 0 003.84-4.66c1.174-1.465 2.147-2.809 2.919-4.03.774-1.22 1.16-2.21 1.16-2.973 0-.457-.162-.819-.483-1.088-.322-.264-.854-.4-1.593-.4-1.288 0-2.616.334-3.982 1.001-1.369.666-2.722 1.564-4.057 2.688a36.644 36.644 0 00-3.91 3.86 56.585 56.585 0 00-3.572 4.516 61.108 61.108 0 00-3.041 4.719 65.993 65.993 0 00-2.342 4.372c-.193.42-.466 1.012-.821 1.772-.354.763-.74 1.622-1.158 2.575-.42.953-.862 1.935-1.328 2.943a124.845 124.845 0 00-1.279 2.86l-1.036 2.401a52.593 52.593 0 01-.654 1.459c-.161.343-.426.989-.796 1.943-.37.953-.797 2.069-1.278 3.345-.483 1.276-.991 2.62-1.523 4.032-.528 1.409-1.029 2.745-1.495 4.002-.468 1.257-.878 2.363-1.231 3.317-.353.951-.581 1.6-.677 1.944-.321.991-.7 1.923-1.133 2.803a11.546 11.546 0 01-1.497 2.316 6.855 6.855 0 01-1.931 1.599c-.725.402-1.537.6-2.436.6-1.161 0-2.117-.278-2.875-.829-.754-.553-1.134-1.612-1.134-3.173 0-.763.097-1.544.29-2.343.193-.801.435-1.594.725-2.374.289-.783.588-1.544.894-2.287.304-.744.587-1.458.843-2.145 1.739-3.811 3.509-7.632 5.311-11.464a529.332 529.332 0 005.19-11.378c.344-.783.661-1.551.998-2.329-.101.098-.2.202-.299.298-2.093 2.022-4.176 3.803-6.251 5.347-2.077 1.544-4.137 2.773-6.178 3.688-2.045.914-4.033 1.372-5.965 1.372-1.319 0-2.42-.209-3.305-.628-.885-.421-1.592-.993-2.124-1.716s-.911-1.581-1.136-2.573c-.076-.339-.123-.692-.172-1.045-.565.44-1.135.868-1.71 1.275-1.995 1.408-3.958 2.543-5.889 3.4-1.93.858-3.67 1.287-5.212 1.287-1.547 0-2.801-.515-3.768-1.544-.965-1.028-1.447-2.782-1.447-5.259 0-1.755.258-3.794.771-6.118-.836 1.486-1.881 2.992-3.136 4.515a27.492 27.492 0 01-4.296 4.176 21.453 21.453 0 01-5.407 3.058c-1.997.781-4.17 1.172-6.517 1.172-1.063 0-2.084-.133-3.067-.4a6.417 6.417 0 01-2.582-1.373c-.74-.646-1.335-1.515-1.786-2.6-.45-1.086-.676-2.451-.676-4.089 0-.038.065-.619.193-1.745.129-1.124.539-2.897 1.232-5.317.691-2.42 1.762-5.556 3.208-9.407 1.45-3.849 3.494-8.519 6.132-14.006.676-1.45 1.457-2.489 2.34-3.117.887-.63 1.843-.944 2.872-.944.452 0 .918.067 1.4.2.485.134.935.343 1.354.629a3.39 3.39 0 011.014 1.087c.255.437.386.942.386 1.514 0 .381-.05.745-.146 1.085-.162.652-.507 1.497-1.036 2.545-.532 1.05-1.152 2.25-1.86 3.604a339.98 339.98 0 00-2.244 4.375 62.316 62.316 0 00-2.197 4.86 48.529 48.529 0 00-1.738 5.117c-.482 1.735-.757 3.423-.82 5.061 0 .685.16 1.314.482 1.886.322.572.854.857 1.594.857 2.09 0 4.086-.687 5.986-2.058 1.898-1.372 3.65-3.078 5.261-5.117a49.103 49.103 0 004.369-6.577c1.304-2.345 2.39-4.487 3.258-6.432a32.64 32.64 0 001.617-4.173 41.571 41.571 0 011.521-4.118c.548-1.259 1.174-2.306 1.883-3.145.707-.837 1.594-1.258 2.654-1.258 1.16 0 2.076.439 2.753 1.316.676.877 1.012 1.925 1.012 3.144 0 .686-.216 1.631-.651 2.831a80.397 80.397 0 01-1.641 4.118 537.37 537.37 0 01-2.148 4.944 88.044 88.044 0 00-2.147 5.347 53.113 53.113 0 00-1.642 5.318c-.436 1.734-.652 3.345-.652 4.831 0 1.372.708 2.059 2.123 2.059.999 0 2.237-.343 3.718-1.03 1.48-.687 3.034-1.649 4.658-2.888.405-.309.814-.632 1.22-.971.454-1.871.986-3.601 1.605-5.174a671.21 671.21 0 013.428-8.863 5852.34 5852.34 0 013.186-8.063l14.626-36.88c.579-1.486 1.361-2.535 2.34-3.145.984-.609 1.973-.914 2.971-.914.996 0 1.905.324 2.726.971.822.649 1.233 1.697 1.233 3.146 0 .686-.138 1.41-.411 2.172-.274.763-.62 1.582-1.039 2.458a458.57 458.57 0 00-2.872 6.576 1018.93 1018.93 0 00-7.483 17.983 6258.349 6258.349 0 01-3.91 9.634c-1.27 3.127-2.462 6.089-3.573 8.892-1.11 2.802-2.065 5.232-2.872 7.29a32.165 32.165 0 00-1.036 3.06c-.339 1.162-.507 2.201-.507 3.117 0 .57.097 1.027.29 1.37.193.344.563.516 1.11.516.675 0 1.519-.238 2.534-.716 1.013-.475 2.107-1.106 3.282-1.887a52.647 52.647 0 003.668-2.687 113.198 113.198 0 007.386-6.404 132.053 132.053 0 003.067-3.002c.212-.219.465-.375.743-.491a103.579 103.579 0 001.477-4.768c.257-.687.612-1.658 1.063-2.917a40.012 40.012 0 011.543-3.717c.579-1.219 1.233-2.278 1.954-3.173.725-.895 1.507-1.344 2.343-1.344 1.288 0 2.222.296 2.801.886.578.592.868 1.458.868 2.603 0 .228-.032.59-.097 1.085a36.646 36.646 0 01-.24 1.574 32.645 32.645 0 01-.314 1.573c-.114.495-.217.857-.314 1.085a65.048 65.048 0 013.861-3.858 39.72 39.72 0 014.296-3.461 24.904 24.904 0 014.54-2.518c1.543-.645 3.089-.97 4.633-.97 1.062 0 2.116.152 3.162.458a9.075 9.075 0 012.799 1.343 7.026 7.026 0 012.004 2.231c.514.895.772 1.933.772 3.115 0 1.565-.393 3.232-1.182 5.004-.788 1.773-1.778 3.555-2.969 5.344a66.76 66.76 0 01-3.861 5.233 198.995 198.995 0 01-3.886 4.631 386.24 386.24 0 00-3.043 3.545c-.818.974-1.248 1.631-1.279 1.974 0 .458.146.829.436 1.116.289.285.772.428 1.447.428.547 0 1.353-.305 2.414-.915 1.061-.61 2.551-1.667 4.465-3.173 1.914-1.506 4.346-3.527 7.29-6.062a703.545 703.545 0 007.048-6.164l12.767-118.242c-2.056 1.135-4.195 1.848-5.457 2.265-5.282 1.743-12.741 3.297-22.17 4.613zM99.943 97.976C44.746 97.976 0 104.148 0 111.761c0 7.614 44.746 13.785 99.943 13.785 55.196 0 99.942-6.171 99.942-13.785 0-7.613-44.746-13.785-99.942-13.785zm39.905 17.814c0 1.786-5.317 3.235-11.878 3.235-6.559 0-11.877-1.449-11.877-3.235 0-1.787 5.318-3.236 11.877-3.236 6.561 0 11.878 1.449 11.878 3.236z" fill="#DA4648"/><path fill-rule="evenodd" clip-rule="evenodd" d="M118.498 114.36a.536.536 0 00-.089.287c0 1.157 4.281 2.093 9.561 2.093 5.281 0 9.561-.936 9.561-2.093l12.488-50.635 49.665-52.435.047-.05c1.051-1.189-1.082-4.868-4.621-8.024-3.54-3.156-7.362-4.224-8.549-3.023a.528.528 0 00-.026.028l-52.99 55.759-15.047 58.093z" fill="#DA4648"/></svg>