<svg width="225" height="225" fill="none" xmlns="http://www.w3.org/2000/svg"><path d="M225 0H0v225h225V0z" fill="#F7DF1E"/><path d="M151.143 175.782c4.532 7.4 10.428 12.839 20.857 12.839 8.761 0 14.357-4.378 14.357-10.428 0-7.25-5.75-9.818-15.393-14.036l-5.285-2.268c-15.258-6.5-25.393-14.643-25.393-31.857 0-15.857 12.082-27.928 30.964-27.928 13.443 0 23.107 4.678 30.071 16.928l-16.464 10.572c-3.625-6.5-7.536-9.061-13.607-9.061-6.193 0-10.118 3.928-10.118 9.061 0 6.342 3.929 8.91 13 12.839l5.286 2.264c17.964 7.704 28.107 15.557 28.107 33.214 0 19.036-14.954 29.465-35.036 29.465-19.635 0-32.321-9.357-38.528-21.622l17.182-9.982zm-74.69 1.832c3.322 5.893 6.343 10.875 13.608 10.875 6.946 0 11.328-2.718 11.328-13.285v-71.893h21.143v72.178c0 21.893-12.836 31.857-31.571 31.857-16.929 0-26.732-8.76-31.718-19.312l17.21-10.42z" fill="#000"/></svg>