<svg width="449" height="200" fill="none" xmlns="http://www.w3.org/2000/svg"><g clip-path="url(#clip0)"><path d="M423.913 160.694c0 20.96-17.149 38.109-38.108 38.109H65.502c-20.96 0-38.108-17.149-38.108-38.109V39.331c0-20.96 17.148-38.108 38.108-38.108h320.303c20.959 0 38.108 17.149 38.108 38.108v121.363z" fill="url(#paint0_linear)"/><path d="M356.909 97.42c16.741 5.857 25.108 15.892 25.108 30.091 0 9.345-3.47 16.763-10.395 22.249-6.917 5.49-16.785 8.897-29.63 8.897-12.845 0-24.726-3.722-35.669-9.831.118-3.24.975-6.795 2.547-10.654s3.432-6.924 5.564-9.164c10.058 5.227 18.81 7.845 26.239 7.845 3.511 0 6.227-.59 8.118-1.776 1.894-1.182 2.836-2.769 2.836-4.763 0-3.748-2.903-6.551-8.689-8.419l-10.395-3.926c-15.724-5.731-23.587-15.069-23.587-28.04 0-9.471 3.303-16.978 9.909-22.531 6.606-5.546 15.51-10.32 26.705-10.32 5.539 0 11.636.778 18.309 2.335 6.665 1.56 12.14 5.405 16.418 7.517.253 3.492-.448 7.325-2.075 11.5-1.639 4.177-3.648 7.135-6.046 8.881-10.576-4.737-19.377-7.106-26.427-7.106-2.525 0-4.426.56-5.761 1.687-1.32 1.123-1.969 2.554-1.969 4.3 0 2.992 2.387 5.357 7.173 7.103l11.717 4.126zm-83.615 0c16.74 5.857 25.104 15.892 25.104 30.091 0 9.345-3.47 16.763-10.384 22.249-6.924 5.49-16.796 8.897-29.637 8.897-12.833 0-24.729-3.722-35.669-9.831.119-3.24.975-6.795 2.55-10.654 1.572-3.859 3.425-6.924 5.565-9.164 10.068 5.227 18.817 7.845 26.242 7.845 3.514 0 6.231-.59 8.114-1.776 1.888-1.182 2.836-2.769 2.836-4.763 0-3.748-2.902-6.551-8.689-8.419l-10.387-3.926c-15.729-5.731-23.595-15.069-23.595-28.04 0-9.471 3.303-16.978 9.916-22.531 6.602-5.546 15.503-10.32 26.698-10.32 5.535 0 11.648.778 18.305 2.335 6.673 1.56 12.141 5.405 16.422 7.517.253 3.492-.448 7.325-2.075 11.5-1.635 4.177-3.648 7.135-6.043 8.881-10.58-4.737-19.38-7.106-26.434-7.106-2.521 0-4.43.56-5.757 1.687-1.316 1.123-1.972 2.554-1.972 4.3 0 2.992 2.39 5.357 7.176 7.103l11.714 4.126zm-60.977 1.32c0-5.731-.912-11.029-2.736-15.892-1.82-4.864-4.433-9.034-7.829-12.526-3.4-3.492-7.518-6.232-12.36-8.227-4.849-1.99-10.29-4.993-16.329-4.993-7.174 0-13.434 3.248-18.78 5.742-5.345 2.492-9.749 5.917-13.208 10.28-3.466 4.366-6.046 9.505-7.744 15.425-1.698 5.92-2.547 12.37-2.547 19.347 0 7.221.69 13.901 2.076 20.006 1.383 6.098 3.744 11.392 7.077 15.885 3.336 4.485 7.677 7.974 13.026 10.461a46.714 46.714 0 0019.914 4.404c14.595 0 26.924-4.226 36.992-11.325-.997-7.221-3.569-12.963-7.703-17.201-5.141 1.931-9.69 3.314-13.634 4.163-3.948.839-7.429 1.261-10.435 1.261-6.017 0-10.347-1.531-12.974-4.622-2.626-3.081-4.066-6.725-4.321-12.26h49.075c1.621-5.241 2.44-12.325 2.44-19.928zm-51.702 1.294c.374-6.361 1.535-13.167 3.466-15.97 1.936-2.806 4.897-4.207 8.897-4.207 4.119 0 7.21 1.49 9.268 4.482 2.061 2.992 3.091 9.019 3.091 13.63l.004 2.065h-24.726z" fill="#F6F6F6"/><path d="M433.793 112.471c-5.334 4.66-8.43 11.365-8.43 20.133v32.651c0 10.854-3.337 19.11-10.873 24.785-7.529 5.668-16.307 8.474-26.327 8.745l-5.938-.045v-16.27c5.234-1.527 7.384-3.303 9.467-5.319 3.774-3.411 6.665-8.96 6.665-16.667v-26.36c.141-8.96.831-15.981 4.093-21.053 3.273-5.071 9.645-9.505 19.117-13.334-10.461-4.79-17.486-11.043-21.067-18.757-2.106-4.582-2.147-10.766-2.147-18.543V38.263c0-7.985-2.613-13.578-5.827-16.77-2.091-2.084-4.523-3.748-10.309-5.004V1.215c7.077.075 10.65-.007 14.772 0 6.347-.051 11.663 3.419 16.289 7.033 5.038 3.962 8.618 9.32 10.717 16.062 1.193 3.896 1.364 7.618 1.364 11.162V63.43c0 9.875 2.917 17.216 7.903 22.009 2.811 2.78 6.777 5.323 13.587 7.618v12.63c-6.035 1.668-9.823 3.929-13.056 6.784zM58.409 1.224v.021a704.895 704.895 0 00-5.33-.014c-6.35-.056-11.666 3.414-16.289 7.032-5.045 3.962-9.363 9.134-10.716 16.062-.772 4.063-.608 7.614-.608 11.162v27.959c0 9.871-3.674 17.207-8.656 22.008-2.807 2.78-8.798 5.32-15.611 7.614v12.629c6.039 1.665 11.852 3.919 15.076 6.781 5.338 4.663 9.186 11.373 9.186 20.14v32.651c0 10.847 2.588 19.11 10.117 24.777 7.529 5.665 16.303 8.482 26.323 8.756l6.706-.045v-16.281c-5.23-1.531-8.137-3.307-10.231-5.316-3.77-3.414-5.906-8.96-5.906-16.663v-26.364c-.144-8.967-1.59-15.981-4.856-21.056-3.265-5.064-9.638-9.505-19.12-13.33C38.959 94.954 45.98 88.703 49.56 80.993c2.11-4.586 2.91-10.769 2.91-18.546V38.273c0-7.985 1.853-13.578 5.064-16.773 1.742-1.735 4.84-3.163 9.145-4.319l6.806.048V1.222H58.41v.002h-.001v0z" fill="#F6F6F6" stroke="#404040" stroke-width="5.151" stroke-miterlimit="10"/><path d="M121.158 133.689h-5.097c-5.542 0-7.629-2.913-7.629-8.766V17.349c0-6.468-1.868-11.01-4.26-13.626-2.391-2.61-6.542-2.584-12.455-2.584h-11.51l-1.357-.026v.11l-.011 16.012v112.893c0 8.978 2.016 15.547 5.604 19.728 3.592 4.174 9.66 6.258 18.217 6.258 5.916 0 12.648-.623 20.195-1.873.378-1.26.568-3.959.568-8.099 0-4.152-.756-8.293-2.265-12.453z" fill="#F6F6F6"/></g><defs><linearGradient id="paint0_linear" x1="225.653" y1="1.223" x2="225.653" y2="198.803" gradientUnits="userSpaceOnUse"><stop offset=".15" stop-color="#2A4F84"/><stop offset=".388" stop-color="#294E82"/><stop offset="1" stop-color="#172E4E"/></linearGradient><clipPath id="clip0"><path fill="#fff" d="M0 0h448.048v200H0z"/></clipPath></defs></svg>