<svg width="327" height="200" fill="none" xmlns="http://www.w3.org/2000/svg"><path d="M161.217 199.423c-1.104 0-2.135-.294-3.092-.81l-9.791-5.815c-1.472-.81-.736-1.104-.294-1.252 1.987-.662 2.356-.809 4.417-1.987.221-.147.515-.074.736.073l7.509 4.491c.294.147.662.147.883 0l29.372-17.005c.295-.147.442-.442.442-.81v-33.936c0-.369-.147-.663-.442-.81l-29.372-16.932c-.294-.147-.663-.147-.883 0l-29.373 16.932c-.294.147-.441.515-.441.81v33.936c0 .295.147.663.441.81l8.024 4.638c4.344 2.208 7.067-.368 7.067-2.945v-33.495c0-.442.368-.883.884-.883h3.754c.442 0 .883.368.883.883v33.495c0 5.816-3.165 9.202-8.686 9.202-1.693 0-3.018 0-6.773-1.841l-7.729-4.416a6.215 6.215 0 01-3.092-5.374v-33.937a6.213 6.213 0 013.092-5.374l29.372-17.005c1.841-1.03 4.343-1.03 6.184 0l29.372 17.005a6.213 6.213 0 013.092 5.374v33.937a6.215 6.215 0 01-3.092 5.374l-29.372 17.005a7.544 7.544 0 01-3.092.662zm9.055-23.336c-12.883 0-15.533-5.889-15.533-10.895 0-.441.368-.883.883-.883h3.828c.442 0 .81.294.81.736.589 3.902 2.282 5.816 10.085 5.816 6.184 0 8.834-1.399 8.834-4.712 0-1.914-.736-3.312-10.38-4.269-8.024-.81-13.03-2.577-13.03-8.982 0-5.962 5.006-9.496 13.398-9.496 9.423 0 14.061 3.239 14.65 10.306 0 .221-.074.442-.221.663-.147.147-.368.294-.589.294h-3.828a.863.863 0 01-.81-.662c-.883-4.049-3.165-5.374-9.202-5.374-6.772 0-7.582 2.355-7.582 4.122 0 2.135.957 2.798 10.085 3.975 9.055 1.178 13.325 2.871 13.325 9.202-.074 6.478-5.374 10.159-14.723 10.159z" fill="#539E43"/><path d="M70.082 66.695a3.746 3.746 0 00-1.914-3.239L36.955 45.494c-.515-.294-1.105-.442-1.693-.515h-.295c-.589 0-1.178.22-1.693.515L2.061 63.456a3.746 3.746 0 00-1.914 3.24l.074 48.291c0 .662.368 1.325.957 1.619.589.368 1.325.368 1.84 0l18.551-10.6a3.746 3.746 0 001.914-3.239v-22.6c0-1.325.736-2.577 1.914-3.24l7.877-4.563c.589-.368 1.252-.516 1.914-.516.662 0 1.325.148 1.84.516l7.877 4.564a3.746 3.746 0 011.914 3.239v22.6c0 1.325.736 2.576 1.914 3.239l18.551 10.6a1.797 1.797 0 001.914 0c.59-.294.957-.957.957-1.619l-.073-48.292zM220.109.22c-.589-.294-1.325-.294-1.84 0-.589.369-.957.958-.957 1.62v47.85c0 .442-.221.884-.663 1.178-.442.22-.883.22-1.325 0l-7.803-4.49a3.795 3.795 0 00-3.755 0l-31.212 18.035a3.745 3.745 0 00-1.914 3.24v35.997c0 1.325.736 2.577 1.914 3.239l31.212 18.036a3.798 3.798 0 003.755 0l31.213-18.036a3.747 3.747 0 001.914-3.239V13.913c0-1.398-.737-2.65-1.914-3.312L220.109.22zm-2.871 91.578c0 .368-.147.662-.442.81l-10.674 6.183a1.092 1.092 0 01-.957 0l-10.674-6.183c-.294-.148-.442-.516-.442-.81V79.431c0-.368.148-.663.442-.81l10.674-6.184c.295-.147.663-.147.957 0l10.674 6.184c.295.147.442.515.442.81v12.367zM323.98 79.136c1.178-.662 1.84-1.914 1.84-3.239v-8.76a3.835 3.835 0 00-1.84-3.24l-30.992-17.961a3.793 3.793 0 00-3.754 0l-31.213 18.036a3.745 3.745 0 00-1.914 3.239v35.997c0 1.325.736 2.577 1.914 3.239l30.992 17.668c1.178.663 2.576.663 3.68 0l18.772-10.453c.589-.295.957-.957.957-1.62 0-.662-.368-1.325-.957-1.619l-31.36-18.036c-.589-.368-.957-.957-.957-1.62V79.504c0-.662.368-1.325.957-1.62l9.791-5.594a1.797 1.797 0 011.914 0l9.791 5.595c.589.368.957.957.957 1.62v8.833c0 .663.368 1.325.957 1.62a1.797 1.797 0 001.914 0l18.551-10.822z" fill="#333"/><path d="M290.632 77.443a.669.669 0 01.736 0l5.963 3.46a.773.773 0 01.368.663v6.92a.773.773 0 01-.368.662l-5.963 3.46a.669.669 0 01-.736 0l-5.963-3.46a.775.775 0 01-.368-.663v-6.92c0-.294.148-.515.368-.662l5.963-3.46z" fill="#539E43"/><mask id="a" maskUnits="userSpaceOnUse" x="85" y="45" width="71" height="80"><path d="M122.275 46.083a3.795 3.795 0 00-3.755 0L87.528 63.972c-1.178.662-1.84 1.913-1.84 3.239v35.85c0 1.325.736 2.577 1.84 3.239l30.992 17.889a3.798 3.798 0 003.755 0l30.992-17.889c1.177-.662 1.84-1.914 1.84-3.239v-35.85a3.835 3.835 0 00-1.84-3.24l-30.992-17.888z" fill="#fff"/></mask><g mask="url(#a)"><path d="M122.275 46.083a3.795 3.795 0 00-3.755 0L87.528 63.972c-1.178.662-1.84 1.913-1.84 3.239v35.85c0 1.325.736 2.577 1.84 3.239l30.992 17.889a3.798 3.798 0 003.755 0l30.992-17.889c1.177-.662 1.84-1.914 1.84-3.239v-35.85a3.835 3.835 0 00-1.84-3.24l-30.992-17.888z" fill="url(#paint0_linear)"/><path d="M153.34 63.972l-31.139-17.889a5.106 5.106 0 00-.957-.368L86.35 105.491c.295.368.663.662 1.031.883l31.139 17.888c.884.516 1.914.663 2.871.368l32.759-59.922c-.221-.295-.515-.516-.81-.736z" fill="url(#paint1_linear)"/><path fill-rule="evenodd" clip-rule="evenodd" d="M153.414 106.3c.883-.515 1.546-1.399 1.84-2.356l-34.157-58.303c-.884-.147-1.841-.073-2.65.442L87.528 63.898l33.348 60.806a5.143 5.143 0 001.399-.442l31.139-17.962z" fill="url(#paint2_linear)"/><path fill-rule="evenodd" clip-rule="evenodd" d="M153.414 106.3l-31.066 17.889c-.441.22-.883.368-1.398.441l.588 1.105 34.452-19.95v-.442l-.883-1.472c-.147 1.03-.81 1.914-1.693 2.429z" fill="url(#paint3_linear)"/><path fill-rule="evenodd" clip-rule="evenodd" d="M153.414 106.3l-31.066 17.889c-.441.22-.883.368-1.398.441l.588 1.105 34.452-19.95v-.442l-.883-1.472c-.147 1.03-.81 1.914-1.693 2.429z" fill="url(#paint4_linear)"/></g><defs><linearGradient id="paint0_linear" x1="133.024" y1="59.418" x2="99.052" y2="112.795" gradientUnits="userSpaceOnUse"><stop stop-color="#41873F"/><stop offset=".329" stop-color="#418B3D"/><stop offset=".635" stop-color="#419637"/><stop offset=".932" stop-color="#3FA92D"/><stop offset="1" stop-color="#3FAE2A"/></linearGradient><linearGradient id="paint1_linear" x1="115.692" y1="89.335" x2="200.768" y2="43.113" gradientUnits="userSpaceOnUse"><stop offset=".138" stop-color="#41873F"/><stop offset=".403" stop-color="#54A044"/><stop offset=".714" stop-color="#66B848"/><stop offset=".908" stop-color="#6CC04A"/></linearGradient><linearGradient id="paint2_linear" x1="84.556" y1="85.137" x2="156.27" y2="85.137" gradientUnits="userSpaceOnUse"><stop offset=".092" stop-color="#6CC04A"/><stop offset=".286" stop-color="#66B848"/><stop offset=".597" stop-color="#54A044"/><stop offset=".862" stop-color="#41873F"/></linearGradient><linearGradient id="paint3_linear" x1="84.556" y1="114.863" x2="156.27" y2="114.863" gradientUnits="userSpaceOnUse"><stop offset=".092" stop-color="#6CC04A"/><stop offset=".286" stop-color="#66B848"/><stop offset=".597" stop-color="#54A044"/><stop offset=".862" stop-color="#41873F"/></linearGradient><linearGradient id="paint4_linear" x1="166.717" y1="57.723" x2="148.55" y2="152.923" gradientUnits="userSpaceOnUse"><stop stop-color="#41873F"/><stop offset=".329" stop-color="#418B3D"/><stop offset=".635" stop-color="#419637"/><stop offset=".932" stop-color="#3FA92D"/><stop offset="1" stop-color="#3FAE2A"/></linearGradient></defs></svg>