<svg width="267" height="200" fill="none" xmlns="http://www.w3.org/2000/svg"><g clip-path="url(#clip0)"><path d="M229.615 114.954c-9.303.048-17.389 2.289-24.16 5.601-2.484-4.919-4.968-9.303-5.406-12.518-.487-3.751-1.072-6.04-.487-10.521.584-4.482 3.214-10.862 3.166-11.35-.049-.487-.585-2.776-5.943-2.825-5.358-.048-9.985 1.023-10.521 2.436-.536 1.412-1.559 4.627-2.241 7.94-.925 4.87-10.716 22.26-16.317 31.368-1.802-3.556-3.361-6.673-3.702-9.157-.487-3.751-1.072-6.04-.487-10.521.584-4.482 3.215-10.862 3.166-11.35-.049-.487-.585-2.776-5.943-2.825-5.358-.049-9.985 1.023-10.521 2.436-.536 1.412-1.12 4.724-2.24 7.939-1.121 3.215-14.126 32.246-17.536 39.747a222.705 222.705 0 01-4.335 9.011s-.049.146-.195.39c-.925 1.802-1.461 2.776-1.461 2.776v.049c-.731 1.315-1.51 2.533-1.9 2.533-.292 0-.828-3.507.098-8.281 1.948-10.082 6.576-25.767 6.527-26.303 0-.292.877-3.02-3.02-4.432-3.799-1.413-5.163.925-5.504.925-.341 0-.585.828-.585.828s4.238-17.632-8.086-17.632c-7.696 0-18.314 8.426-23.575 16.025a6539.142 6539.142 0 00-17.925 9.79c-2.874 1.608-5.845 3.215-8.621 4.725-.195-.195-.39-.438-.585-.633-14.905-15.928-42.474-27.18-41.305-48.563.438-7.793 3.117-28.251 52.947-53.093 41.013-20.214 73.648-14.613 79.298-2.192 8.086 17.73-17.486 50.658-59.863 55.431-16.172 1.802-24.647-4.432-26.79-6.77-2.241-2.436-2.582-2.582-3.41-2.095-1.364.73-.487 2.923 0 4.19 1.266 3.311 6.478 9.156 15.295 12.03 7.793 2.533 26.741 3.946 49.683-4.92 25.67-9.936 45.738-37.554 39.844-60.691C161.081.974 122.114-6.771 85.241 6.332 63.322 14.126 39.551 26.4 22.455 42.377 2.143 61.373-1.072 77.886.244 84.803c4.724 24.549 38.577 40.526 52.118 52.362-.681.39-1.315.731-1.85 1.023-6.771 3.361-32.587 16.853-39.017 31.125-7.306 16.172 1.17 27.764 6.771 29.323 17.39 4.822 35.265-3.848 44.861-18.169 9.596-14.32 8.427-32.927 3.994-41.451a1.008 1.008 0 00-.194-.292c1.753-1.023 3.555-2.095 5.309-3.118a260.503 260.503 0 019.79-5.504c-1.656 4.53-2.873 9.937-3.458 17.73-.73 9.158 3.02 21.043 7.94 25.719 2.192 2.046 4.773 2.094 6.43 2.094 5.747 0 8.328-4.773 11.202-10.423 3.507-6.917 6.673-14.954 6.673-14.954s-3.945 21.724 6.771 21.724c3.897 0 7.842-5.066 9.596-7.647v.048s.097-.146.292-.487c.39-.633.633-1.023.633-1.023v-.097c1.559-2.728 5.066-8.914 10.278-19.191 6.722-13.249 13.2-29.81 13.2-29.81s.585 4.042 2.582 10.764c1.169 3.946 3.604 8.281 5.552 12.47-1.558 2.192-2.532 3.41-2.532 3.41l.048.048c-1.266 1.656-2.63 3.459-4.14 5.212-5.309 6.332-11.641 13.59-12.518 15.684-1.023 2.485-.78 4.287 1.169 5.748 1.412 1.072 3.945 1.218 6.527 1.072 4.773-.341 8.134-1.51 9.79-2.241 2.582-.925 5.602-2.338 8.427-4.432 5.212-3.848 8.378-9.353 8.086-16.61-.146-3.994-1.461-7.989-3.069-11.739.487-.682.926-1.364 1.413-2.046 8.232-12.031 14.612-25.231 14.612-25.231s.585 4.043 2.582 10.764c.974 3.41 2.971 7.112 4.725 10.716-7.745 6.284-12.518 13.59-14.223 18.364-3.069 8.865-.682 12.859 3.848 13.785 2.046.438 4.968-.536 7.111-1.462 2.728-.877 5.943-2.386 9.012-4.627 5.211-3.848 10.228-9.206 9.936-16.464-.146-3.312-1.023-6.576-2.24-9.742 6.575-2.727 15.051-4.237 25.864-2.971 23.186 2.728 27.764 17.194 26.888 23.283-.877 6.089-5.748 9.401-7.355 10.424-1.608 1.023-2.144 1.364-1.998 2.094.195 1.072.975 1.023 2.339.828 1.899-.341 12.177-4.919 12.615-16.122.731-14.321-12.908-29.957-37.019-29.81zm-178.86 60.302c-7.696 8.378-18.412 11.544-23.04 8.865-4.968-2.874-3.02-15.246 6.43-24.111 5.748-5.407 13.152-10.424 18.071-13.493 1.12-.682 2.777-1.656 4.774-2.874.34-.194.536-.292.536-.292l1.169-.731c3.458 12.665.146 23.819-7.94 32.636zm56.016-38.091c-2.679 6.527-8.281 23.234-11.69 22.309-2.923-.78-4.725-13.444-.585-25.962 2.094-6.284 6.527-13.785 9.108-16.707 4.189-4.677 8.817-6.235 9.937-4.336 1.413 2.485-5.114 20.604-6.77 24.696zm46.225 22.114c-1.121.585-2.192.974-2.679.682-.341-.195.487-.974.487-.974s5.796-6.235 8.085-9.06c1.316-1.656 2.874-3.605 4.53-5.797v.634c0 7.452-7.209 12.469-10.423 14.515zm35.655-8.134c-.828-.585-.682-2.533 2.094-8.622 1.072-2.387 3.605-6.381 7.94-10.229.487 1.559.828 3.069.779 4.481-.049 9.401-6.77 12.908-10.813 14.37z" fill="#CD6799"/></g><defs><clipPath id="clip0"><path fill="#fff" d="M0 0h266.829v200H0z"/></clipPath></defs></svg>