<svg width="200" height="227" fill="none" xmlns="http://www.w3.org/2000/svg"><g clip-path="url(#clip0)"><path d="M100 0l100 56.563v113.153l-100 56.563L0 169.716V56.563L100 0z" fill="#fff"/><path d="M182.145 165.814l-78.838 44.599v-34.728l49.122-27.029 29.716 17.158zm5.4-4.884V67.674l-28.837 16.667v59.948l28.837 16.641zm-170 4.884l78.837 44.599v-34.728l-49.147-27.029-29.69 17.158zm-5.4-4.884V67.674l28.837 16.667v59.948L12.145 160.93zm3.385-99.302L96.382 15.89v33.566L44.574 77.96l-.414.232-28.63-16.563zm168.63 0L103.307 15.89v33.566l51.809 28.476.414.232 28.63-16.537z" fill="#8ED6FB"/><path d="M96.382 167.778l-48.475-26.667v-52.79l48.475 27.984v51.473zm6.925 0l48.476-26.641V88.32l-48.476 27.985v51.473zM51.189 82.222l48.656-26.744L148.5 82.222 99.845 110.31 51.189 82.222z" fill="#1C78C0"/></g><defs><clipPath id="clip0"><path fill="#fff" d="M0 0h200v226.279H0z"/></clipPath></defs></svg>