<svg xmlns="http://www.w3.org/2000/svg" height="800" width="800"><defs><clipPath id="a" clipPathUnits="userSpaceOnUse"><path d="M0 600h600V0H0z"/></clipPath><clipPath id="b" clipPathUnits="userSpaceOnUse"><path d="M238.756 373.131l-42.02-24.254a5.072 5.072 0 01-2.539-4.395v-48.548c0-1.814.967-3.489 2.537-4.397l42.02-24.274a5.08 5.08 0 015.079 0l42.029 24.274a5.078 5.078 0 012.538 4.397v48.546a5.073 5.073 0 01-2.539 4.397l-42.03 24.254a5.064 5.064 0 01-2.538.68 5.06 5.06 0 01-2.537-.68"/></clipPath><clipPath id="d" clipPathUnits="userSpaceOnUse"><path d="M238.766 373.131l-42.03-24.254a5.073 5.073 0 01-2.539-4.397v-48.546c0-1.814.967-3.489 2.537-4.397l42.031-24.274a5.077 5.077 0 015.077 0l42.02 24.274a5.078 5.078 0 012.538 4.397v48.548a5.073 5.073 0 01-2.538 4.395l-42.021 24.254a5.064 5.064 0 01-2.538.68 5.063 5.063 0 01-2.537-.68"/></clipPath><clipPath id="e" clipPathUnits="userSpaceOnUse"><path d="M195.182 373.659h91.752V266.59h-91.752z"/></clipPath><linearGradient id="c" spreadMethod="pad" gradientTransform="matrix(94.20389 0 0 -94.20389 194.196 320.197)" gradientUnits="userSpaceOnUse" y2="0" x2="1" y1="0" x1="0"><stop offset="0" stop-color="#231f20"/><stop offset=".005" stop-color="#231f20"/><stop offset=".725" stop-color="#797b7d"/><stop offset="1" stop-color="#797b7d"/></linearGradient><linearGradient id="f" spreadMethod="pad" gradientTransform="matrix(97.1778 0 0 -97.1778 193.545 320.266)" gradientUnits="userSpaceOnUse" y2="0" x2="1" y1="0" x1="0"><stop offset="0" stop-color="#797b7d"/><stop offset=".275" stop-color="#797b7d"/><stop offset=".995" stop-color="#231f20"/><stop offset="1" stop-color="#231f20"/></linearGradient></defs><g clip-path="url(#a)" transform="matrix(1.33333 0 0 -1.33333 0 800)"><path d="M296.686 164.773c-1.46 0-2.913.382-4.19 1.121l-13.34 7.893c-1.991 1.114-1.018 1.51-.362 1.738 2.658.922 3.195 1.135 6.032 2.744.295.166.687.103.992-.076l10.248-6.085c.37-.206.896-.206 1.237 0l39.954 23.061c.37.212.61.64.61 1.081v46.108c0 .451-.24.872-.62 1.101L297.31 266.5a1.255 1.255 0 01-1.231 0l-39.927-23.048a1.284 1.284 0 01-.634-1.094V196.25c0-.44.246-.859.63-1.068l10.945-6.324c5.939-2.969 9.575.528 9.575 4.041v45.524c0 .644.517 1.151 1.16 1.151h5.067c.634 0 1.158-.507 1.158-1.15v-45.525c0-7.925-4.316-12.47-11.831-12.47-2.31 0-4.127 0-9.203 2.501l-10.476 6.031a8.439 8.439 0 00-4.191 7.29v46.107c0 2.995 1.603 5.792 4.19 7.282l39.954 23.087c2.528 1.43 5.889 1.43 8.397 0l39.95-23.087a8.434 8.434 0 004.197-7.282V196.25a8.458 8.458 0 00-4.197-7.289l-39.95-23.067a8.391 8.391 0 00-4.207-1.12" fill="#004e00"/><path d="M309.027 196.539c-17.483 0-21.146 8.025-21.146 14.756 0 .64.514 1.152 1.155 1.152h5.165c.577 0 1.058-.415 1.148-.98.78-5.257 3.105-7.911 13.678-7.911 8.417 0 12 1.904 12 6.369 0 2.575-1.016 4.486-14.096 5.766-10.932 1.082-17.693 3.497-17.693 12.242 0 8.062 6.794 12.869 18.187 12.869 12.8 0 19.132-4.442 19.935-13.974a1.172 1.172 0 00-.305-.89 1.177 1.177 0 00-.846-.367h-5.185c-.538 0-1.013.382-1.122.902-1.244 5.534-4.27 7.302-12.477 7.302-9.19 0-10.258-3.201-10.258-5.6 0-2.906 1.26-3.752 13.668-5.394 12.278-1.623 18.111-3.921 18.111-12.551 0-8.705-7.259-13.691-19.919-13.691m48.65 48.886h1.344c1.098 0 1.303.773 1.303 1.22 0 1.184-.816 1.184-1.264 1.184h-1.383zm-1.632 3.789h2.976c1.018 0 3.015 0 3.015-2.283 0-1.59-1.018-1.914-1.632-2.118 1.184-.081 1.264-.856 1.426-1.956.083-.691.206-1.874.45-2.28h-1.833c-.043.406-.328 2.607-.328 2.728-.12.49-.286.733-.896.733h-1.506v-3.461h-1.672zm-3.563-4.298c0-3.586 2.892-6.48 6.436-6.48 3.586 0 6.48 2.955 6.48 6.48 0 3.584-2.934 6.436-6.48 6.436-3.504 0-6.436-2.81-6.436-6.436m14.156-.022c0-4.236-3.464-7.7-7.7-7.7-4.197 0-7.7 3.422-7.7 7.7 0 4.36 3.586 7.702 7.7 7.702 4.157 0 7.7-3.342 7.7-7.702" fill="#004e00"/><path d="M172.964 345.167a5.111 5.111 0 01-2.558 4.446l-42.36 24.377a4.99 4.99 0 01-2.331.674h-.438a5.067 5.067 0 01-2.34-.674L80.58 349.613a5.135 5.135 0 01-2.561-4.446l.093-65.64a2.51 2.51 0 011.278-2.21 2.461 2.461 0 012.54 0l25.175 14.414c1.592.946 2.56 2.614 2.56 4.44v30.666a5.1 5.1 0 002.555 4.43l10.719 6.173c.8.462 1.672.687 2.565.687.872 0 1.768-.225 2.544-.687l10.716-6.174a5.1 5.1 0 002.558-4.429V296.17c0-1.825.982-3.504 2.564-4.439l25.167-14.415a2.492 2.492 0 012.558 0 2.556 2.556 0 011.27 2.21zm199.885-34.179c0-.456-.244-.879-.64-1.106l-14.55-8.387a1.282 1.282 0 00-1.277 0l-14.549 8.387c-.397.227-.64.65-.64 1.106v16.8c0 .456.243.88.639 1.108l14.549 8.404c.396.23.884.23 1.28 0l14.549-8.404c.395-.229.639-.652.639-1.108zm3.932 124.414a2.566 2.566 0 01-2.544-.028 2.561 2.561 0 01-1.262-2.206v-65.007c0-.638-.342-1.23-.894-1.55a1.786 1.786 0 00-1.791 0l-10.61 6.112a5.115 5.115 0 01-5.112-.002l-42.376-24.455a5.115 5.115 0 01-2.559-4.43v-48.92a5.12 5.12 0 012.558-4.434l42.373-24.474a5.121 5.121 0 015.119 0l42.381 24.474a5.123 5.123 0 012.558 4.433v121.947a5.118 5.118 0 01-2.625 4.47zm141.103-107.174a5.117 5.117 0 012.546 4.424v11.855c0 1.823-.97 3.51-2.548 4.426l-42.103 24.445a5.114 5.114 0 01-5.127.007l-42.36-24.455a5.118 5.118 0 01-2.559-4.431V295.59c0-1.84.988-3.536 2.585-4.445l42.097-23.988a5.112 5.112 0 015.017-.028l25.463 14.153a2.556 2.556 0 011.315 2.219 2.555 2.555 0 01-1.284 2.236l-42.629 24.467a2.558 2.558 0 00-1.285 2.22v15.327c0 .914.487 1.76 1.28 2.216l13.267 7.649c.79.456 1.765.456 2.554 0l13.274-7.65a2.556 2.556 0 001.281-2.215v-12.06a2.558 2.558 0 013.843-2.212z" fill="#333" fill-rule="evenodd"/><path d="M472.591 330.519a.98.98 0 00.982 0l8.131-4.691a.982.982 0 00.491-.851v-9.39a.983.983 0 00-.49-.85l-8.132-4.691a.984.984 0 00-.982 0l-8.125 4.69a.985.985 0 00-.49.852v9.389a.98.98 0 00.49.85z" fill="#004e00" fill-rule="evenodd"/></g><g clip-path="url(#b)" transform="matrix(1.33333 0 0 -1.33333 0 800)"><path d="M238.756 373.131l-42.02-24.254a5.072 5.072 0 01-2.539-4.395v-48.548c0-1.814.967-3.489 2.537-4.397l42.02-24.274a5.08 5.08 0 015.079 0l42.029 24.274a5.078 5.078 0 012.538 4.397v48.546a5.073 5.073 0 01-2.539 4.397l-42.03 24.254a5.064 5.064 0 01-2.538.68 5.06 5.06 0 01-2.537-.68" fill="url(#c)"/></g><g clip-path="url(#d)" transform="matrix(1.33333 0 0 -1.33333 0 800)"><g clip-path="url(#e)" opacity=".66"><path d="M285.649 348.877l-41.843 24.255a5.058 5.058 0 01-1.327.527l-47.296-80.908a5.337 5.337 0 011.428-1.214l42.093-24.274a4.974 4.974 0 014.043-.428l44.188 80.914c-.346.442-.77.83-1.286 1.128" fill="#b4b4b4"/></g></g><path d="M240.99 373.802a5.076 5.076 0 01-2.224-.671l-41.629-24.022 45.223-82.385c.473.112.935.286 1.373.539l41.93 24.274c1.569.908 2.337 2.583 2.337 4.397v.19l-45.36 77.493a5.181 5.181 0 01-1.392.191c-.086 0-.172-.002-.258-.006" fill="url(#f)" transform="matrix(1.33333 0 0 -1.33333 0 800)"/></svg>