<svg xmlns="http://www.w3.org/2000/svg" viewBox="0 0 512.001 512.001"><path d="M377.394 230.885c-3.326-3.505-8.008-5.258-14.051-5.258h-20.306V269.5h20.306c6.042.001 10.725-1.749 14.051-5.257 3.323-3.504 4.985-8.702 4.985-15.591v-2.176c0-6.89-1.663-12.085-4.985-15.591zm80.134-195.591h-2.445a6.894 6.894 0 00-6.894 6.894v40.567c0 8.079-6.208 15.03-14.278 15.41-8.616.406-15.728-6.459-15.728-14.986V42.187a6.894 6.894 0 10-13.788 0v40.567c0 8.078-6.208 15.03-14.278 15.41-8.616.406-15.728-6.459-15.728-14.986V42.187a6.894 6.894 0 00-6.894-6.894H54.471C24.388 35.294 0 59.682 0 89.765v12.736a6.894 6.894 0 006.894 6.894h498.212a6.894 6.894 0 006.894-6.894V89.765c0-30.083-24.388-54.471-54.472-54.471zM79.422 88.997c-.05.49-.12.98-.22 1.46-.09.48-.21.96-.36 1.42-.14.47-.3.94-.49 1.39a15.956 15.956 0 01-1.38 2.58c-.27.41-.57.81-.87 1.19-.32.38-.65.75-1 1.09-.34.35-.71.68-1.09 1-.38.3-.78.6-1.18.87-.41.27-.84.52-1.27.75-.43.23-.87.44-1.32.63-.45.19-.92.35-1.39.5-.46.14-.94.26-1.42.36-.48.09-.97.17-1.46.22-.48.04-.98.07-1.47.07s-.99-.03-1.48-.07c-.48-.05-.97-.13-1.45-.22-.48-.1-.96-.22-1.43-.36-.46-.15-.93-.31-1.38-.5-.45-.19-.9-.4-1.33-.63-.43-.23-.85-.48-1.26-.75-.41-.27-.8-.57-1.18-.87-.38-.32-.75-.65-1.1-1-.34-.34-.68-.71-.99-1.09s-.6-.78-.87-1.19c-.27-.4-.53-.83-.76-1.26a15.865 15.865 0 01-1.12-2.71c-.14-.46-.26-.94-.36-1.42-.09-.48-.17-.97-.22-1.46-.05-.48-.07-.98-.07-1.47s.02-.99.07-1.48c.05-.48.13-.97.22-1.45.1-.48.22-.96.36-1.43.14-.46.31-.93.5-1.38.18-.45.4-.9.62-1.33.23-.43.49-.85.76-1.26.27-.41.56-.8.87-1.18s.65-.75.99-1.1c.35-.34.72-.68 1.1-.99.38-.31.77-.6 1.18-.87.41-.27.83-.52 1.26-.75.43-.23.88-.44 1.33-.63.45-.19.92-.35 1.38-.5.47-.14.95-.26 1.43-.36.48-.09.97-.17 1.45-.22.98-.1 1.98-.1 2.951 0 .49.05.98.13 1.46.22.48.1.96.22 1.42.36.47.15.94.31 1.39.5s.89.4 1.32.63c.43.23.86.48 1.27.75.4.27.8.56 1.18.87.38.31.75.65 1.09.99.35.35.68.72 1 1.1.3.38.6.77.87 1.18.27.41.52.83.75 1.26.23.43.44.88.63 1.33.19.45.35.92.49 1.38.15.47.27.95.36 1.43.1.48.17.97.22 1.45.05.49.08.99.08 1.48s-.031.99-.081 1.47zm42.438 0c-.05.49-.12.98-.22 1.46s-.22.96-.36 1.42c-.14.47-.31.94-.5 1.39-.18.45-.39.89-.62 1.32-.23.43-.49.86-.76 1.26-.27.41-.56.81-.87 1.19s-.64.75-.99 1.09c-.35.35-.72.68-1.1 1a14.97 14.97 0 01-2.44 1.62c-.43.23-.88.44-1.33.63-.45.19-.91.35-1.38.5-.47.14-.95.26-1.43.36-.48.09-.97.17-1.45.22-.49.04-.99.07-1.48.07s-.98-.03-1.47-.07c-.49-.05-.98-.13-1.46-.22-.48-.1-.95-.22-1.42-.36-.47-.15-.93-.31-1.38-.5-.45-.19-.9-.4-1.33-.63-.43-.23-.86-.48-1.26-.75-.41-.27-.81-.57-1.19-.87-.38-.32-.75-.65-1.09-1-.35-.34-.68-.71-.99-1.09a14.613 14.613 0 01-1.63-2.45c-.23-.43-.44-.87-.63-1.32-.18-.45-.35-.92-.49-1.39-.15-.46-.27-.94-.36-1.42-.1-.48-.17-.97-.22-1.46-.05-.48-.08-.98-.08-1.47s.03-.99.08-1.48c.05-.48.12-.97.22-1.45.09-.48.21-.96.36-1.43.14-.46.31-.93.49-1.38.19-.45.4-.9.63-1.33.23-.43.48-.85.75-1.26.27-.41.57-.8.88-1.18a14.668 14.668 0 012.08-2.09c.38-.31.78-.6 1.19-.87.4-.27.83-.52 1.26-.75.43-.23.88-.44 1.33-.63.45-.19.91-.35 1.38-.5.47-.14.94-.26 1.42-.36.48-.09.97-.17 1.46-.22.98-.1 1.97-.1 2.951 0 .48.05.97.13 1.45.22.48.1.96.22 1.43.36.47.15.93.31 1.38.5.45.19.9.4 1.33.63.43.23.85.48 1.26.75.41.27.81.56 1.18.87.38.31.75.65 1.1.99.35.35.68.72.99 1.1s.6.77.87 1.18c.27.41.53.83.76 1.26.23.43.44.88.62 1.33.19.45.36.92.5 1.38.14.47.26.95.36 1.43.1.48.17.97.22 1.45.05.49.07.99.07 1.48s-.021.99-.071 1.47zm43.008 0c-.05.49-.12.98-.22 1.46s-.22.96-.36 1.42c-.14.47-.31.94-.5 1.39-.18.45-.39.89-.62 1.32-.23.43-.49.86-.76 1.26-.27.41-.56.81-.87 1.19s-.64.75-.99 1.09c-.35.35-.71.68-1.1 1a14.97 14.97 0 01-2.44 1.62c-.43.23-.88.44-1.33.63-.45.19-.92.35-1.38.5-.47.14-.95.26-1.43.36-.48.09-.97.17-1.45.22-.49.04-.99.07-1.48.07s-.98-.03-1.47-.07c-.49-.05-.98-.13-1.46-.22-.48-.1-.95-.22-1.42-.36-.47-.15-.93-.31-1.38-.5-.45-.19-.9-.4-1.33-.63-.43-.23-.86-.48-1.26-.75-.41-.27-.81-.57-1.19-.87-.38-.32-.75-.65-1.09-1-.35-.34-.68-.71-.99-1.09a14.613 14.613 0 01-1.63-2.45c-.23-.43-.44-.87-.63-1.32-.18-.45-.35-.92-.49-1.39-.15-.46-.27-.94-.36-1.42-.1-.48-.17-.97-.22-1.46-.05-.48-.08-.98-.08-1.47s.03-.99.08-1.48c.05-.48.12-.97.22-1.45.09-.48.21-.96.36-1.43.14-.46.31-.93.49-1.38.19-.45.4-.9.63-1.33.23-.43.48-.85.75-1.26.27-.41.57-.8.88-1.18a14.668 14.668 0 012.08-2.09c.38-.31.78-.6 1.19-.87.4-.27.83-.52 1.26-.75.43-.23.88-.44 1.33-.63.45-.19.91-.35 1.38-.5.47-.14.94-.26 1.42-.36.48-.09.97-.17 1.46-.22.98-.1 1.97-.1 2.951 0 .48.05.97.13 1.45.22.48.1.96.22 1.43.36.46.15.93.31 1.38.5s.9.4 1.33.63c.43.23.85.48 1.26.75.41.27.81.56 1.18.87.39.31.75.65 1.1.99.35.35.68.72.99 1.1s.6.77.87 1.18c.27.41.53.83.76 1.26.23.43.44.88.62 1.33.19.45.36.92.5 1.38.14.47.26.95.36 1.43s.17.97.22 1.45c.05.49.07.99.07 1.48s-.021.99-.071 1.47zm1.862 141.888c-3.326-3.505-8.008-5.258-14.051-5.258h-20.305V269.5h20.306c6.041.001 10.724-1.749 14.05-5.257 3.323-3.504 4.985-8.702 4.985-15.591v-2.176c0-6.89-1.662-12.085-4.985-15.591z"/><path d="M505.106 139.402H6.894A6.894 6.894 0 000 146.296v275.941c0 30.084 24.388 54.471 54.471 54.471h403.057c30.084 0 54.471-24.388 54.471-54.471V146.295a6.892 6.892 0 00-6.893-6.893zm-183.19 67.734c1.632-1.45 3.776-2.176 6.437-2.176h36.441c12.446 0 22.418 3.295 29.914 9.881 7.492 6.589 11.24 16.892 11.24 30.911v1.088c0 14.141-3.898 24.537-11.693 31.183-7.797 6.648-18.101 9.972-30.911 9.972h-20.306v42.061c0 2.297-1.178 4.11-3.535 5.439-2.356 1.331-5.107 1.994-8.249 1.994-3.265 0-6.045-.663-8.341-1.994-2.297-1.328-3.444-3.142-3.444-5.439V212.212h-.001c.002-1.932.817-3.625 2.448-5.076zm-108.686-.363c2.295-1.206 5.076-1.813 8.341-1.813 3.264 0 6.042.606 8.34 1.813 2.294 1.21 3.444 3.023 3.444 5.439v47.319h40.792v-47.319c0-2.416 1.147-4.23 3.445-5.439 2.294-1.206 5.076-1.813 8.34-1.813s6.042.606 8.34 1.813c2.294 1.21 3.445 3.023 3.445 5.439v117.842c0 2.297-1.179 4.11-3.536 5.439-2.356 1.331-5.107 1.994-8.249 1.994-3.264 0-6.045-.663-8.34-1.994-2.297-1.328-3.445-3.142-3.445-5.439v-52.032h-40.792v52.032c0 2.297-1.178 4.11-3.535 5.439-2.356 1.331-5.107 1.994-8.249 1.994-3.265 0-6.045-.663-8.341-1.994-2.297-1.328-3.444-3.142-3.444-5.439V212.212c0-2.416 1.147-4.23 3.444-5.439zm-104.424 5.439c0-1.932.815-3.626 2.446-5.076 1.632-1.45 3.776-2.176 6.437-2.176h36.441c12.446 0 22.418 3.295 29.914 9.881 7.492 6.589 11.24 16.892 11.24 30.911v1.088c0 14.141-3.898 24.537-11.693 31.183-7.796 6.648-18.101 9.972-30.911 9.972h-20.306v42.061c0 2.297-1.178 4.11-3.535 5.439-2.356 1.331-5.107 1.994-8.249 1.994-3.265 0-6.045-.663-8.341-1.994-2.297-1.328-3.444-3.142-3.444-5.439V212.212h.001zm282.253 176.36H124.708c-8.286 0-15.003-6.717-15.003-15.003 0-8.286 6.717-15.003 15.003-15.003h266.351c8.286 0 15.003 6.717 15.003 15.003 0 8.286-6.717 15.003-15.003 15.003z"/></svg>