<svg fill="none" height="140" width="1408" xmlns="http://www.w3.org/2000/svg"><clipPath id="a"><path d="M0 0h1408v140H0z"/></clipPath><g clip-path="url(#a)" fill="#171836"><path d="M618.5 58.798l-23.337 9.23 23.337 9.23v3.948l-27.586-11.077v-4.202l27.586-11.14v4.011zm27.72-2.228c4.186 0 7.505 1.23 9.957 3.692 2.494 2.42 3.741 5.963 3.741 10.631V90.31h-4.502V71.34c0-3.48-.867-6.132-2.601-7.957-1.733-1.825-4.206-2.738-7.419-2.738-3.593 0-6.447 1.082-8.561 3.247-2.071 2.122-3.108 5.071-3.108 8.849v17.57h-4.502V43.074h4.502V62.68c1.227-1.953 2.918-3.46 5.073-4.52 2.157-1.061 4.63-1.592 7.42-1.592zm55.09 18.397h-27.903c.253 3.48 1.585 6.302 3.995 8.467 2.41 2.122 5.454 3.183 9.132 3.183 2.072 0 3.974-.36 5.708-1.082a12.813 12.813 0 004.502-3.31l2.537 2.928c-1.48 1.782-3.34 3.14-5.581 4.074-2.198.934-4.63 1.4-7.293 1.4-3.424 0-6.469-.72-9.132-2.163-2.621-1.486-4.672-3.524-6.151-6.112-1.48-2.59-2.22-5.517-2.22-8.785s.698-6.196 2.093-8.785c1.438-2.589 3.382-4.605 5.834-6.048 2.494-1.443 5.285-2.164 8.371-2.164 3.087 0 5.856.721 8.308 2.164s4.376 3.46 5.771 6.048c1.395 2.546 2.092 5.475 2.092 8.785l-.063 1.4zm-16.108-14.515c-3.213 0-5.919 1.04-8.117 3.12-2.156 2.036-3.382 4.71-3.678 8.02h23.654c-.296-3.31-1.543-5.983-3.741-8.02-2.157-2.08-4.862-3.12-8.118-3.12zm36.078-3.881c4.355 0 7.695 1.103 10.02 3.31 2.325 2.165 3.487 5.39 3.487 9.676V90.31h-4.312v-5.22c-1.014 1.74-2.515 3.099-4.503 4.075-1.944.976-4.27 1.464-6.976 1.464-3.719 0-6.679-.892-8.877-2.674-2.199-1.783-3.298-4.138-3.298-7.066 0-2.844 1.014-5.135 3.044-6.876 2.072-1.74 5.348-2.61 9.829-2.61h10.591v-2.037c0-2.886-.803-5.071-2.41-6.557-1.606-1.527-3.953-2.291-7.039-2.291-2.114 0-4.143.36-6.088 1.082-1.945.679-3.615 1.634-5.01 2.864l-2.029-3.373c1.691-1.443 3.72-2.547 6.088-3.31 2.367-.807 4.862-1.21 7.483-1.21zm-1.586 30.493c2.537 0 4.714-.573 6.532-1.719 1.818-1.188 3.171-2.886 4.059-5.093v-5.474h-10.464c-5.707 0-8.561 1.994-8.561 5.984 0 1.952.74 3.501 2.219 4.647 1.481 1.103 3.552 1.655 6.215 1.655zm57.896-43.99V90.31h-4.312v-6.62c-1.353 2.249-3.15 3.968-5.391 5.156-2.199 1.189-4.693 1.783-7.483 1.783-3.129 0-5.961-.722-8.497-2.164-2.537-1.443-4.524-3.46-5.962-6.048-1.438-2.59-2.156-5.539-2.156-8.849 0-3.31.718-6.26 2.156-8.849 1.438-2.588 3.425-4.583 5.962-5.984 2.536-1.443 5.368-2.164 8.497-2.164 2.706 0 5.137.573 7.293 1.719 2.198 1.103 3.995 2.737 5.391 4.902V43.076h4.502v-.001zm-16.806 43.544c2.325 0 4.418-.53 6.278-1.592 1.903-1.103 3.383-2.653 4.44-4.647 1.099-1.995 1.649-4.265 1.649-6.812 0-2.546-.55-4.817-1.649-6.811-1.057-1.995-2.537-3.523-4.44-4.584-1.86-1.103-3.953-1.655-6.278-1.655-2.367 0-4.502.552-6.405 1.655-1.86 1.061-3.34 2.59-4.439 4.584-1.056 1.994-1.585 4.265-1.585 6.811 0 2.547.529 4.817 1.585 6.812 1.099 1.994 2.579 3.544 4.439 4.647 1.903 1.061 4.038 1.592 6.405 1.592zm55.076-20.691v4.202l-27.586 11.077v-3.947l23.337-9.23-23.337-9.231v-4.01l27.586 11.14zm119.95-43.006l-18.671 7.385 18.671 7.384v3.158l-22.072-8.862v-3.361l22.072-8.912v3.208zm22.36-1.782c2.506 0 4.773.577 6.803 1.732 2.029 1.12 3.615 2.716 4.772 4.787 1.15 2.07 1.72 4.43 1.72 7.079s-.57 5.008-1.72 7.079c-1.157 2.07-2.743 3.684-4.772 4.838-2.03 1.154-4.297 1.731-6.803 1.731-2.227 0-4.241-.475-6.033-1.426-1.76-.95-3.179-2.325-4.265-4.125v5.297h-3.449V10.34h3.608v16.095c1.11-1.732 2.537-3.039 4.257-3.922 1.76-.916 3.718-1.375 5.882-1.375zm-.253 24.038c1.863 0 3.551-.424 5.074-1.273 1.522-.883 2.711-2.122 3.551-3.718.88-1.596 1.324-3.412 1.324-5.45 0-2.036-.444-3.853-1.324-5.449-.84-1.595-2.029-2.818-3.551-3.666-1.523-.883-3.211-1.324-5.074-1.324-1.887 0-3.6.44-5.122 1.324-1.49.849-2.671 2.07-3.551 3.666-.841 1.596-1.269 3.413-1.269 5.45 0 2.037.428 3.853 1.269 5.449.88 1.596 2.061 2.835 3.551 3.718 1.522.849 3.235 1.273 5.122 1.273zm31.803 3.208c-2.568 0-4.883-.577-6.952-1.732a12.957 12.957 0 01-4.868-4.889c-1.181-2.07-1.776-4.413-1.776-7.028 0-2.614.595-4.957 1.776-7.028s2.806-3.683 4.868-4.838c2.069-1.154 4.384-1.731 6.952-1.731 2.569 0 4.892.577 6.953 1.731a12.278 12.278 0 014.825 4.838c1.18 2.071 1.77 4.414 1.77 7.028 0 2.615-.59 4.957-1.77 7.028-1.15 2.071-2.763 3.701-4.825 4.89-2.061 1.154-4.384 1.731-6.953 1.731zm0-3.208c1.895 0 3.584-.425 5.074-1.274 1.522-.882 2.704-2.122 3.552-3.717.848-1.596 1.268-3.413 1.268-5.45 0-2.037-.42-3.853-1.268-5.449-.848-1.596-2.03-2.818-3.552-3.667-1.49-.883-3.179-1.324-5.074-1.324-1.894 0-3.599.441-5.121 1.324-1.491.85-2.672 2.071-3.552 3.667-.848 1.596-1.268 3.412-1.268 5.45 0 2.036.42 3.853 1.268 5.449.88 1.595 2.061 2.835 3.552 3.717 1.522.85 3.227 1.274 5.121 1.274zM1035 10.342v37.789h-3.45v-5.296c-1.08 1.799-2.52 3.174-4.31 4.125-1.76.95-3.76 1.426-5.99 1.426-2.5 0-4.77-.578-6.8-1.732-2.03-1.154-3.61-2.767-4.76-4.838s-1.73-4.43-1.73-7.08c0-2.647.58-5.007 1.73-7.078s2.73-3.667 4.76-4.787c2.03-1.155 4.3-1.732 6.8-1.732 2.17 0 4.11.458 5.84 1.375 1.76.883 3.19 2.19 4.31 3.922V10.342h3.6zm-13.44 34.834c1.86 0 3.53-.424 5.02-1.273 1.52-.883 2.7-2.122 3.55-3.718.88-1.596 1.32-3.412 1.32-5.45s-.44-3.853-1.32-5.449c-.85-1.595-2.03-2.818-3.55-3.666-1.49-.883-3.16-1.324-5.02-1.324-1.9 0-3.6.441-5.13 1.324-1.49.848-2.67 2.07-3.55 3.666-.85 1.596-1.27 3.413-1.27 5.45s.42 3.853 1.27 5.45c.88 1.595 2.06 2.834 3.55 3.717 1.53.849 3.23 1.273 5.13 1.273zm45.84-23.836l-13.35 29.997c-1.08 2.513-2.34 4.295-3.75 5.348-1.42 1.052-3.13 1.578-5.13 1.578-1.28 0-2.49-.204-3.6-.61a7.831 7.831 0 01-2.89-1.834l1.67-2.7c1.36 1.359 2.98 2.038 4.87 2.038 1.22 0 2.25-.34 3.1-1.019.88-.679 1.69-1.833 2.44-3.463l1.16-2.597L1040 21.34h3.75l10.05 22.765 10.04-22.765h3.56zm25.7 7.283v3.361l-22.07 8.862v-3.158l18.67-7.384-18.67-7.385v-3.208l22.07 8.912zM565.93 12.579l-18.669 7.385 18.669 7.384v3.158l-22.069-8.862v-3.36L565.93 9.37v3.208zm22.17-1.782c3.349 0 6.004.985 7.965 2.954 1.996 1.935 2.994 4.77 2.994 8.505v15.533h-3.602V22.613c0-2.784-.693-4.906-2.08-6.366s-3.365-2.19-5.936-2.19c-2.875 0-5.158.866-6.849 2.597-1.657 1.698-2.486 4.057-2.486 7.08v14.055h-3.602V0h3.602v15.686c.981-1.562 2.334-2.767 4.059-3.616s3.704-1.273 5.935-1.273zm27.01-8.658v35.65h-3.652V5.399h-8.371v-3.26h12.023zm31.48 16.143v3.361l-22.069 8.862v-3.158l18.669-7.385-18.669-7.384V9.37l22.069 8.912zm490.31 93.768l-18.68 7.384 18.68 7.385v3.157l-22.07-8.861v-3.362l22.07-8.912zm19.5 25.46c-2.57 0-4.89-.577-6.96-1.731a12.955 12.955 0 01-4.86-4.889c-1.19-2.072-1.78-4.414-1.78-7.029 0-2.614.59-4.956 1.78-7.028a12.58 12.58 0 014.86-4.838c2.07-1.154 4.39-1.731 6.96-1.731s4.88.577 6.95 1.731a12.258 12.258 0 014.81 4.838c1.19 2.072 1.78 4.414 1.78 7.028 0 2.615-.59 4.957-1.78 7.029-1.15 2.07-2.75 3.7-4.81 4.889-2.07 1.154-4.38 1.731-6.95 1.731zm0-3.208c1.89 0 3.58-.424 5.07-1.273 1.52-.883 2.7-2.122 3.55-3.718.84-1.596 1.27-3.413 1.27-5.45s-.43-3.853-1.27-5.449c-.85-1.595-2.03-2.818-3.55-3.667-1.49-.883-3.18-1.324-5.07-1.324-1.9 0-3.61.441-5.12 1.324-1.49.849-2.68 2.072-3.56 3.667-.84 1.596-1.26 3.412-1.26 5.449s.42 3.854 1.26 5.45c.88 1.596 2.07 2.835 3.56 3.718 1.51.849 3.22 1.273 5.12 1.273zm20.9-34.839h3.6v37.789h-3.6zm34.3 18.287v3.362l-22.08 8.861v-3.157l18.67-7.385-18.67-7.384v-3.209zM373.49 103.3l-18.669 7.385 18.669 7.384v3.158l-22.068-8.862v-3.361l22.068-8.912zm41.86-1.79c3.349 0 5.97.968 7.864 2.903 1.928 1.936 2.892 4.787 2.892 8.556v15.533h-3.603v-15.176c0-2.785-.676-4.907-2.029-6.367-1.319-1.459-3.196-2.189-5.631-2.189-2.774 0-4.955.865-6.545 2.597-1.589 1.697-2.385 4.057-2.385 7.078v14.057h-3.601v-15.176c0-2.785-.677-4.907-2.03-6.367-1.319-1.459-3.213-2.189-5.682-2.189-2.74 0-4.921.865-6.544 2.597-1.59 1.697-2.385 4.057-2.385 7.078v14.057h-3.602v-26.788h3.45v4.889c.947-1.63 2.266-2.886 3.957-3.769s3.636-1.324 5.835-1.324c2.232 0 4.159.475 5.783 1.426 1.658.951 2.892 2.36 3.704 4.227.981-1.765 2.384-3.14 4.21-4.125 1.86-1.018 3.975-1.528 6.342-1.528zm43.87 14.72h-22.322c.203 2.784 1.268 5.042 3.196 6.773 1.927 1.699 4.363 2.547 7.306 2.547 1.657 0 3.179-.288 4.565-.866a10.241 10.241 0 003.602-2.648l2.03 2.343c-1.184 1.426-2.672 2.512-4.465 3.259-1.759.747-3.703 1.12-5.834 1.12-2.74 0-5.175-.576-7.305-1.731-2.097-1.189-3.738-2.818-4.922-4.889-1.184-2.072-1.775-4.414-1.775-7.028 0-2.615.557-4.957 1.674-7.029 1.15-2.07 2.705-3.683 4.668-4.838 1.995-1.154 4.227-1.731 6.696-1.731s4.684.577 6.646 1.731c1.962 1.155 3.5 2.768 4.617 4.838 1.116 2.038 1.674 4.381 1.674 7.029zm-12.886-11.611c-2.571 0-4.735.832-6.494 2.495-1.725 1.63-2.705 3.769-2.942 6.417h18.923c-.236-2.648-1.235-4.787-2.993-6.417-1.725-1.663-3.889-2.495-6.494-2.495zm34.316 22.251c-.676.612-1.522 1.087-2.536 1.426-.981.306-2.013.459-3.095.459-2.503 0-4.431-.68-5.783-2.038-1.353-1.357-2.03-3.276-2.03-5.755v-16.194h-4.768v-3.056h4.768v-5.857h3.602v5.857h8.117v3.056h-8.117v15.991c0 1.595.389 2.818 1.167 3.667.812.814 1.962 1.222 3.45 1.222.744 0 1.454-.119 2.13-.357a5.302 5.302 0 001.827-1.018zm15.89-25.36c3.484 0 6.156.883 8.016 2.649 1.86 1.731 2.79 4.311 2.79 7.74v16.603h-3.449v-4.176c-.812 1.392-2.013 2.478-3.603 3.26-1.555.78-3.416 1.171-5.58 1.171-2.976 0-5.345-.713-7.103-2.139-1.758-1.427-2.638-3.31-2.638-5.654 0-2.274.811-4.107 2.435-5.5 1.657-1.392 4.279-2.088 7.864-2.088h8.472v-1.629c0-2.309-.643-4.057-1.928-5.246-1.285-1.222-3.162-1.833-5.631-1.833a13.92 13.92 0 00-4.871.865c-1.555.544-2.891 1.308-4.007 2.292l-1.624-2.699c1.353-1.154 2.977-2.037 4.871-2.648 1.894-.645 3.889-.968 5.986-.968zm-1.268 24.395c2.029 0 3.771-.458 5.225-1.376 1.455-.95 2.537-2.308 3.247-4.074v-4.38h-8.371c-4.565 0-6.849 1.596-6.849 4.787 0 1.563.592 2.802 1.776 3.718 1.184.883 2.841 1.325 4.972 1.325zM537.73 109v3.361l-22.069 8.862v-3.158l18.669-7.384-18.669-7.385v-3.208zM340.81 32.502l-14.002 5.538 14.002 5.539v2.368l-16.552-6.646V36.78l16.552-6.684zm11.79 19.099a15.9 15.9 0 01-4.679-.688c-1.472-.483-2.626-1.082-3.463-1.795l1.217-2.139c.838.662 1.89 1.21 3.159 1.643 1.268.407 2.588.61 3.957.61 1.826 0 3.171-.28 4.033-.84.888-.585 1.332-1.4 1.332-2.444 0-.738-.241-1.311-.723-1.719-.482-.433-1.091-.751-1.826-.955-.736-.229-1.713-.445-2.93-.649-1.623-.306-2.93-.611-3.919-.917a6.045 6.045 0 01-2.55-1.642c-.685-.764-1.027-1.82-1.027-3.17 0-1.681.697-3.056 2.093-4.126 1.395-1.07 3.336-1.604 5.821-1.604 1.294 0 2.588.178 3.882.535 1.293.331 2.358.777 3.195 1.337l-1.178 2.177c-1.65-1.146-3.616-1.719-5.899-1.719-1.724 0-3.031.306-3.919.917-.862.611-1.293 1.413-1.293 2.406 0 .764.241 1.375.723 1.834.507.458 1.128.802 1.864 1.03.736.205 1.75.421 3.044.65 1.598.306 2.879.611 3.843.917a5.641 5.641 0 012.473 1.566c.685.738 1.027 1.757 1.027 3.056 0 1.757-.735 3.157-2.206 4.201-1.446 1.019-3.463 1.528-6.051 1.528zm30.68-9.396h-16.742c.152 2.088.952 3.781 2.398 5.08 1.445 1.273 3.271 1.91 5.479 1.91 1.243 0 2.384-.216 3.424-.65a7.684 7.684 0 002.701-1.986l1.523 1.757c-.888 1.07-2.005 1.885-3.349 2.445-1.319.56-2.777.84-4.376.84-2.054 0-3.881-.433-5.479-1.298a9.658 9.658 0 01-3.691-3.667c-.888-1.554-1.332-3.31-1.332-5.271s.419-3.718 1.256-5.271c.863-1.554 2.03-2.763 3.501-3.629 1.496-.866 3.171-1.299 5.022-1.299 1.852 0 3.513.433 4.985 1.3 1.471.865 2.625 2.074 3.463 3.628.837 1.528 1.255 3.285 1.255 5.27zm-9.665-8.709c-1.928 0-3.551.624-4.87 1.872-1.293 1.222-2.029 2.826-2.207 4.813h14.193c-.178-1.987-.926-3.59-2.245-4.813-1.294-1.248-2.917-1.872-4.871-1.872zm23.505 18.105c-1.978 0-3.754-.433-5.327-1.299a9.444 9.444 0 01-3.652-3.628c-.888-1.58-1.332-3.349-1.332-5.31s.444-3.717 1.332-5.27a9.442 9.442 0 013.652-3.63c1.573-.865 3.349-1.298 5.327-1.298 1.725 0 3.26.344 4.604 1.031a7.542 7.542 0 013.234 2.942l-2.016 1.375c-.66-.993-1.497-1.732-2.512-2.216a7.273 7.273 0 00-3.31-.764c-1.446 0-2.752.331-3.919.993-1.142.637-2.042 1.554-2.702 2.75-.634 1.197-.951 2.56-.951 4.088 0 1.553.317 2.928.951 4.125a7.202 7.202 0 002.702 2.75c1.167.636 2.473.955 3.919.955 1.192 0 2.296-.242 3.31-.726 1.015-.484 1.852-1.222 2.512-2.215l2.016 1.375a7.79 7.79 0 01-3.234 2.979c-1.37.662-2.905.993-4.604.993zm23.9-1.414c-.508.458-1.142.815-1.903 1.07a7.758 7.758 0 01-2.321.343c-1.877 0-3.323-.509-4.338-1.528-1.015-1.018-1.521-2.457-1.521-4.316V33.61h-3.577v-2.291h3.577v-4.393h2.701v4.393h6.088v2.291h-6.088v11.994c0 1.197.292 2.114.875 2.75.609.612 1.472.917 2.588.917a4.78 4.78 0 001.597-.267 3.98 3.98 0 001.37-.764l.952 1.948zm4.92-18.868h2.702V51.41h-2.702zm1.37-4.393a1.909 1.909 0 01-1.408-.573 1.877 1.877 0 01-.571-1.375c0-.509.19-.955.571-1.336.38-.382.85-.573 1.408-.573s1.027.19 1.408.573c.38.356.571.789.571 1.298 0 .56-.191 1.032-.571 1.413a1.91 1.91 0 01-1.408.573zm17.03 24.675c-1.927 0-3.665-.433-5.212-1.299a9.727 9.727 0 01-3.653-3.666c-.888-1.554-1.332-3.31-1.332-5.272s.444-3.717 1.332-5.27a9.451 9.451 0 013.653-3.63c1.547-.865 3.285-1.298 5.212-1.298 1.928 0 3.666.433 5.214 1.299a9.189 9.189 0 013.614 3.628c.888 1.554 1.332 3.31 1.332 5.271s-.444 3.718-1.332 5.272a9.453 9.453 0 01-3.614 3.666c-1.548.866-3.286 1.299-5.214 1.299zm0-2.406c1.421 0 2.69-.319 3.806-.955a6.88 6.88 0 002.664-2.788c.633-1.197.95-2.56.95-4.087s-.317-2.89-.95-4.087c-.635-1.197-1.523-2.114-2.664-2.75-1.116-.663-2.385-.994-3.806-.994-1.42 0-2.701.331-3.842.993-1.117.637-2.004 1.554-2.664 2.75-.634 1.197-.951 2.56-.951 4.088s.317 2.89.951 4.087c.66 1.196 1.547 2.126 2.664 2.788 1.141.636 2.422.955 3.842.955zm25.87-18.029c2.511 0 4.503.738 5.974 2.215 1.497 1.452 2.244 3.578 2.244 6.38v11.648h-2.701V40.027c0-2.088-.52-3.68-1.56-4.774s-2.524-1.643-4.451-1.643c-2.157 0-3.869.65-5.138 1.948-1.242 1.273-1.864 3.043-1.864 5.31v10.541h-2.701V31.32h2.587v3.704a7.427 7.427 0 013.044-2.826c1.319-.688 2.841-1.031 4.566-1.031zm31.01 5.614v2.52l-16.552 6.647v-2.368l14.003-5.539-14.003-5.538v-2.406zM266.11 10.254l-10.501 4.154 10.501 4.154v1.776l-12.414-4.985v-1.89l12.414-5.014zm4.83-.887h2.026v15.068h-2.026zm1.027-3.294a1.43 1.43 0 01-1.055-.43 1.408 1.408 0 01-.429-1.031c0-.382.143-.716.429-1.003.285-.286.637-.43 1.055-.43s.77.144 1.056.43c.285.268.428.592.428.974 0 .42-.143.774-.428 1.06-.286.287-.638.43-1.056.43zm25.353 3.179c1.884 0 3.358.544 4.423 1.633 1.085 1.089 1.627 2.693 1.627 4.813v8.737h-2.026v-8.537c0-1.566-.381-2.76-1.141-3.58-.742-.822-1.798-1.233-3.168-1.233-1.56 0-2.788.487-3.682 1.461-.893.955-1.34 2.283-1.34 3.982v7.907h-2.027v-8.537c0-1.566-.38-2.76-1.141-3.58-.743-.822-1.808-1.233-3.196-1.233-1.541 0-2.769.487-3.682 1.461-.894.955-1.341 2.283-1.341 3.982v7.907H278.6V9.367h1.94v2.75a5.426 5.426 0 012.226-2.12c.952-.497 2.046-.745 3.282-.745 1.255 0 2.34.268 3.253.802.933.535 1.627 1.328 2.084 2.378a5.785 5.785 0 012.368-2.32c1.046-.573 2.235-.86 3.567-.86zm25.5.115v13.235c0 2.559-.628 4.45-1.883 5.672-1.237 1.241-3.111 1.862-5.622 1.862-1.389 0-2.711-.21-3.967-.63-1.236-.401-2.245-.965-3.025-1.69l1.027-1.547c.724.649 1.599 1.155 2.626 1.518a9.95 9.95 0 003.282.544c1.902 0 3.301-.449 4.195-1.346.894-.879 1.341-2.254 1.341-4.125v-1.92a6.084 6.084 0 01-2.483 2.177c-1.008.497-2.131.745-3.367.745-1.408 0-2.692-.305-3.853-.916a7.128 7.128 0 01-2.711-2.607c-.647-1.127-.97-2.397-.97-3.81s.323-2.674.97-3.782a6.92 6.92 0 012.711-2.578c1.142-.611 2.426-.917 3.853-.917 1.274 0 2.426.258 3.453.774a6.228 6.228 0 012.483 2.234V9.367h1.94zm-7.677 12.69c1.085 0 2.065-.228 2.94-.687a5.055 5.055 0 002.026-1.977c.495-.84.743-1.795.743-2.864 0-1.07-.248-2.015-.743-2.836a4.869 4.869 0 00-2.026-1.948c-.856-.478-1.836-.716-2.94-.716-1.083 0-2.063.229-2.938.687a5.105 5.105 0 00-2.027 1.948c-.476.84-.713 1.795-.713 2.865 0 1.07.237 2.024.713 2.865a5.31 5.31 0 002.027 1.976c.875.459 1.855.688 2.938.688zm24.927-8.595v1.89l-12.415 4.985v-1.776l10.502-4.154-10.502-4.154V8.45zM1020.5 80.23l-14.01 5.539 14.01 5.538v2.369l-16.55-6.646v-2.522l16.55-6.684zm13.5-1.337c2.61 0 4.61.662 6.01 1.986 1.39 1.299 2.09 3.234 2.09 5.806v12.452h-2.58v-3.132c-.61 1.044-1.52 1.859-2.71 2.444-1.16.586-2.56.879-4.18.879-2.24 0-4-.535-5.33-1.604-1.31-1.07-1.97-2.484-1.97-4.24 0-1.706.6-3.081 1.82-4.125 1.25-1.045 3.21-1.566 5.9-1.566h6.35V86.57c0-1.73-.48-3.043-1.44-3.934-.97-.917-2.37-1.375-4.23-1.375-1.27 0-2.48.217-3.65.65-1.17.407-2.17.98-3.01 1.718l-1.21-2.024c1.01-.866 2.23-1.528 3.65-1.986a13.8 13.8 0 014.49-.726zm-.95 18.295c1.52 0 2.83-.344 3.92-1.03 1.09-.714 1.9-1.733 2.43-3.057v-3.284h-6.28c-3.42 0-5.13 1.196-5.13 3.59 0 1.171.44 2.1 1.32 2.788.89.662 2.14.993 3.74.993zM1052 82.982c.63-1.35 1.57-2.368 2.81-3.056 1.27-.688 2.83-1.031 4.69-1.031v2.635l-.65-.038c-2.11 0-3.76.65-4.95 1.948-1.19 1.298-1.79 3.12-1.79 5.462v10.237h-2.7V79.048h2.59v3.934zm23.7 14.93c-.51.458-1.14.815-1.9 1.07-.74.228-1.52.343-2.32.343-1.88 0-3.33-.51-4.34-1.527-1.02-1.02-1.52-2.458-1.52-4.317V81.335h-3.58v-2.292h3.58v-4.392h2.7v4.392h6.09v2.292h-6.09v11.993c0 1.198.29 2.114.87 2.751.61.61 1.48.916 2.59.916.56 0 1.09-.089 1.6-.267.53-.178.99-.433 1.37-.763l.95 1.947zm5-18.867h2.7v20.091h-2.7zm1.37-4.393c-.57 0-1.03-.19-1.41-.572s-.57-.84-.57-1.375c0-.51.19-.955.57-1.337.38-.382.84-.573 1.41-.573.55 0 1.02.19 1.4.573.38.356.57.789.57 1.298 0 .56-.19 1.032-.57 1.414s-.85.573-1.4.573zm17.13 24.677c-1.98 0-3.75-.433-5.33-1.298-1.55-.866-2.76-2.076-3.65-3.629-.89-1.579-1.33-3.349-1.33-5.309s.44-3.718 1.33-5.271c.89-1.554 2.1-2.763 3.65-3.63 1.58-.865 3.35-1.298 5.33-1.298 1.73 0 3.26.344 4.6 1.031a7.575 7.575 0 013.24 2.942l-2.02 1.375c-.66-.993-1.49-1.732-2.51-2.216-1.01-.509-2.12-.763-3.31-.763-1.45 0-2.75.33-3.92.992-1.14.637-2.04 1.554-2.7 2.751-.64 1.196-.95 2.559-.95 4.087 0 1.553.31 2.928.95 4.124a7.213 7.213 0 002.7 2.751c1.17.637 2.47.955 3.92.955 1.19 0 2.3-.242 3.31-.726 1.02-.483 1.85-1.222 2.51-2.215l2.02 1.374a7.826 7.826 0 01-3.24 2.98c-1.37.662-2.9.993-4.6.993zm12.8-28.534h2.7v28.341h-2.7zm27.7 19.138h-16.75c.16 2.088.96 3.782 2.41 5.08 1.44 1.273 3.26 1.91 5.48 1.91 1.23 0 2.37-.217 3.42-.65a7.764 7.764 0 002.7-1.986l1.52 1.757c-.89 1.07-2 1.885-3.35 2.445-1.31.56-2.77.84-4.37.84-2.06 0-3.88-.433-5.48-1.298a9.712 9.712 0 01-3.7-3.667c-.88-1.554-1.33-3.311-1.33-5.271s.42-3.718 1.26-5.271c.87-1.554 2.03-2.763 3.5-3.63 1.5-.865 3.17-1.298 5.02-1.298 1.86 0 3.52.433 4.99 1.299 1.47.866 2.63 2.075 3.46 3.629.84 1.528 1.26 3.285 1.26 5.271zm-9.67-8.709c-1.92 0-3.55.624-4.86 1.872-1.3 1.222-2.03 2.826-2.22 4.813h14.2c-.18-1.987-.92-3.591-2.25-4.813-1.29-1.248-2.92-1.872-4.87-1.872zm30.57 3.284v2.522l-16.55 6.646v-2.368l14-5.54-14-5.538v-2.406zM734.03 12.512l-14.002 5.538 14.002 5.539v2.368l-16.552-6.646V16.79l16.552-6.684zm13.06-7.332c-1.167 0-2.054.319-2.663.955-.583.637-.875 1.58-.875 2.827v2.368h6.164v2.292h-6.088V31.42h-2.702v-17.8h-3.576v-2.29h3.576V8.847c0-1.833.521-3.285 1.561-4.354 1.065-1.07 2.562-1.604 4.489-1.604.761 0 1.497.114 2.207.343.711.204 1.307.51 1.789.917l-.913 2.025c-.787-.663-1.776-.994-2.969-.994zm9.323 6.15h2.702v20.091h-2.702zm1.37-4.392a1.909 1.909 0 01-1.408-.573 1.877 1.877 0 01-.571-1.375c0-.51.19-.955.571-1.337.38-.382.85-.573 1.408-.573s1.027.19 1.408.573c.379.356.57.79.57 1.298a1.93 1.93 0 01-.57 1.414 1.91 1.91 0 01-1.408.573zm27.417 4.391v17.646c0 3.412-.838 5.933-2.512 7.563-1.649 1.655-4.147 2.483-7.496 2.483a16.55 16.55 0 01-5.288-.84c-1.649-.535-2.994-1.287-4.034-2.254l1.37-2.063c.964.866 2.131 1.54 3.501 2.025 1.395.483 2.853.725 4.375.725 2.537 0 4.402-.598 5.593-1.795 1.193-1.171 1.789-3.005 1.789-5.5v-2.56a8.125 8.125 0 01-3.31 2.904c-1.345.662-2.841.993-4.49.993-1.877 0-3.589-.408-5.137-1.223a9.5 9.5 0 01-3.615-3.476c-.862-1.502-1.293-3.195-1.293-5.08 0-1.884.431-3.564 1.293-5.041a9.22 9.22 0 013.615-3.438c1.522-.815 3.235-1.222 5.137-1.222 1.699 0 3.234.344 4.604 1.031a8.311 8.311 0 013.31 2.98v-3.858h2.588zM774.964 28.25c1.446 0 2.752-.306 3.919-.917 1.167-.636 2.067-1.515 2.702-2.635.659-1.12.989-2.394.989-3.82s-.33-2.686-.989-3.781a6.5 6.5 0 00-2.702-2.598c-1.141-.636-2.448-.955-3.919-.955-1.446 0-2.752.306-3.919.917a6.816 6.816 0 00-2.702 2.597c-.634 1.12-.951 2.394-.951 3.82s.317 2.7.951 3.82a7.09 7.09 0 002.702 2.635c1.167.611 2.473.917 3.919.917zm35.826-16.922v20.091h-2.584v-3.667a7.58 7.58 0 01-2.934 2.865c-1.237.662-2.664.993-4.257.993-2.616 0-4.678-.726-6.2-2.177-1.498-1.477-2.248-3.629-2.248-6.455v-11.65h2.7V22.71c0 2.113.523 3.717 1.562 4.812 1.039 1.095 2.521 1.643 4.448 1.643 2.108 0 3.773-.637 4.986-1.91 1.221-1.299 1.832-3.094 1.832-5.386V11.327h2.695zm10.15 3.935c.634-1.35 1.57-2.368 2.814-3.056 1.269-.687 2.831-1.03 4.686-1.03v2.635l-.65-.039c-2.109 0-3.758.65-4.947 1.948-1.189 1.299-1.792 3.12-1.792 5.463V31.42h-2.695V11.33h2.584v3.934zm29.65 6.951h-16.736c.151 2.088.952 3.781 2.395 5.08 1.443 1.273 3.274 1.91 5.478 1.91 1.244 0 2.386-.217 3.425-.65a7.708 7.708 0 002.703-1.986l1.522 1.757c-.888 1.07-2.006 1.885-3.353 2.445-1.316.56-2.775.84-4.377.84-2.053 0-3.876-.433-5.478-1.299a9.667 9.667 0 01-3.686-3.666c-.888-1.554-1.332-3.31-1.332-5.271s.42-3.718 1.253-5.271c.864-1.554 2.029-2.763 3.504-3.63 1.49-.865 3.171-1.298 5.018-1.298 1.855 0 3.512.433 4.987 1.299 1.474.866 2.624 2.075 3.464 3.629.833 1.527 1.253 3.284 1.253 5.27zm-9.664-8.709c-1.926 0-3.552.624-4.868 1.872-1.292 1.222-2.029 2.826-2.204 4.813h14.191c-.182-1.987-.927-3.59-2.243-4.813-1.3-1.248-2.918-1.872-4.876-1.872zm30.594 3.285v2.52l-16.545 6.647v-2.368l14-5.539-14-5.538v-2.406zm-289.7 96.9l-14.003 5.537 14.003 5.539v2.368l-16.552-6.646v-2.521l16.552-6.684zm16.74-1.34c1.877 0 3.577.432 5.099 1.299 1.522.84 2.714 2.037 3.577 3.589.862 1.554 1.293 3.324 1.293 5.31 0 2.012-.431 3.794-1.293 5.347a9.26 9.26 0 01-3.577 3.629c-1.497.84-3.197 1.261-5.099 1.261-1.623 0-3.095-.332-4.414-.994-1.293-.687-2.358-1.68-3.196-2.979v11.192h-2.701v-27.502h2.587v3.973c.812-1.325 1.878-2.343 3.196-3.056 1.345-.713 2.854-1.069 4.528-1.069zm-.19 18.029c1.396 0 2.663-.319 3.805-.956a6.877 6.877 0 002.664-2.788c.659-1.197.989-2.559.989-4.087s-.33-2.877-.989-4.049a6.877 6.877 0 00-2.664-2.788c-1.142-.662-2.409-.993-3.805-.993-1.42 0-2.702.331-3.843.993-1.117.662-2.004 1.591-2.663 2.788-.635 1.172-.952 2.521-.952 4.049s.317 2.89.952 4.087c.659 1.197 1.546 2.126 2.663 2.788 1.141.637 2.423.956 3.843.956zm31.12-12.419v2.52l-16.552 6.646v-2.368l14.002-5.538-14.002-5.538v-2.407zM472.05 62.6l-10.502 4.154 10.502 4.154v1.776l-12.414-4.985v-1.89l12.414-5.014zm10.08-1.002c1.96 0 3.462.496 4.509 1.49 1.046.974 1.569 2.425 1.569 4.354v9.339h-1.94v-2.35c-.457.784-1.132 1.395-2.026 1.834-.875.44-1.922.659-3.139.659-1.675 0-3.006-.401-3.995-1.203-.99-.802-1.484-1.862-1.484-3.18 0-1.28.456-2.311 1.37-3.094.932-.783 2.406-1.175 4.422-1.175h4.766v-.916c0-1.299-.362-2.282-1.084-2.95-.723-.688-1.779-1.032-3.168-1.032-.951 0-1.864.162-2.74.487-.875.305-1.626.735-2.254 1.289l-.913-1.518c.761-.65 1.675-1.146 2.739-1.49a10.376 10.376 0 013.368-.544zm-.714 13.722c1.142 0 2.122-.258 2.94-.773.818-.535 1.426-1.3 1.826-2.292V69.79h-4.708c-2.569 0-3.853.898-3.853 2.693 0 .879.333 1.576.999 2.091.665.497 1.598.745 2.796.745zm16.314 1.604c-1.218 0-2.388-.172-3.51-.516-1.103-.362-1.969-.811-2.597-1.346l.913-1.604c.628.496 1.418.907 2.369 1.231.951.306 1.94.459 2.968.459 1.37 0 2.378-.21 3.025-.63.666-.44.999-1.05.999-1.834 0-.554-.181-.983-.542-1.289-.362-.324-.819-.563-1.37-.716-.552-.172-1.285-.334-2.198-.487-1.218-.23-2.198-.458-2.939-.688a4.539 4.539 0 01-1.912-1.231c-.514-.573-.771-1.366-.771-2.378 0-1.26.524-2.292 1.57-3.094 1.047-.802 2.501-1.203 4.366-1.203.97 0 1.941.133 2.911.4.97.25 1.769.583 2.397 1.003l-.885 1.633c-1.236-.859-2.711-1.289-4.423-1.289-1.294 0-2.274.23-2.939.688-.647.458-.97 1.06-.97 1.805 0 .573.18 1.03.542 1.375.38.343.846.601 1.398.773.551.153 1.313.315 2.283.487 1.199.23 2.159.459 2.882.688.724.229 1.341.62 1.855 1.174.514.554.77 1.318.77 2.292 0 1.318-.551 2.368-1.654 3.151-1.085.764-2.597 1.146-4.538 1.146zm9.94-15.211h2.026v15.068h-2.026zm1.027-3.294c-.418 0-.77-.144-1.056-.43a1.41 1.41 0 01-.428-1.031c0-.382.143-.716.428-1.003.286-.286.638-.43 1.056-.43.419 0 .771.144 1.056.43.286.267.429.592.429.974 0 .42-.143.773-.429 1.06-.285.286-.637.43-1.056.43zm20.333-2.894v21.256h-1.941v-2.98a6.165 6.165 0 01-2.425 2.321c-.989.535-2.112.802-3.368.802-1.408 0-2.683-.324-3.824-.974-1.141-.65-2.035-1.556-2.682-2.721s-.971-2.493-.971-3.982c0-1.49.324-2.817.971-3.982a6.756 6.756 0 012.682-2.693c1.141-.65 2.416-.974 3.824-.974 1.218 0 2.312.258 3.282.774.99.496 1.798 1.231 2.425 2.205v-9.052h2.027zm-7.563 19.594c1.047 0 1.989-.239 2.826-.716a5.153 5.153 0 001.997-2.091c.495-.898.742-1.92.742-3.066 0-1.145-.247-2.167-.742-3.065a4.966 4.966 0 00-1.997-2.062c-.837-.497-1.779-.745-2.826-.745-1.065 0-2.026.248-2.882.745-.837.477-1.503 1.165-1.997 2.062-.476.898-.714 1.92-.714 3.065 0 1.146.238 2.168.714 3.066.494.897 1.16 1.594 1.997 2.09.856.478 1.817.717 2.882.717zm26.283-5.242h-12.557c.115 1.566.714 2.836 1.798 3.81 1.084.955 2.454 1.432 4.109 1.432.933 0 1.789-.162 2.568-.487a5.769 5.769 0 002.027-1.49l1.141 1.319a6.41 6.41 0 01-2.511 1.833c-.99.42-2.083.63-3.282.63-1.541 0-2.911-.325-4.109-.974a7.243 7.243 0 01-2.768-2.75c-.666-1.165-.999-2.483-.999-3.953 0-1.47.314-2.789.942-3.953.647-1.165 1.522-2.073 2.625-2.722 1.122-.65 2.378-.974 3.767-.974s2.635.325 3.738.974c1.104.65 1.969 1.557 2.597 2.722.628 1.145.942 2.463.942 3.953zm-7.249-6.532c-1.446 0-2.664.468-3.653 1.404-.97.917-1.521 2.12-1.655 3.61h10.644c-.133-1.49-.694-2.693-1.683-3.61-.971-.936-2.188-1.404-3.653-1.404zm22.979 2.465v1.89l-12.413 4.985V70.91l10.501-4.154-10.501-4.154v-1.804zM4.28 46.689c0 .707-.104 1.232-.313 1.575-.21.344-.552.602-1.028.774.476.172.818.43 1.028.773.209.344.314.87.314 1.576v7.076c0 1.528.722 2.292 2.168 2.292h.77v1.69H6.165c-2.606 0-3.91-1.27-3.91-3.81v-7.277c0-.974-.428-1.46-1.284-1.46H0v-1.72h.97c.856 0 1.284-.486 1.284-1.46V39.44c0-2.54 1.304-3.81 3.91-3.81H7.22v1.69h-.77c-1.447 0-2.17.764-2.17 2.292zm25.084-4.984c1.883 0 3.358.544 4.423 1.633 1.085 1.088 1.627 2.693 1.627 4.812v8.738h-2.026V48.35c0-1.566-.38-2.76-1.142-3.58-.742-.822-1.798-1.233-3.167-1.233-1.56 0-2.788.487-3.682 1.461-.894.955-1.34 2.282-1.34 3.982v7.907H22.03V48.35c0-1.566-.38-2.76-1.142-3.58-.742-.822-1.807-1.233-3.196-1.233-1.54 0-2.768.487-3.681 1.461-.894.955-1.341 2.282-1.341 3.982v7.907h-2.026V41.82h1.94v2.75a5.424 5.424 0 012.226-2.12c.951-.497 2.045-.745 3.282-.745 1.255 0 2.34.268 3.253.802.932.535 1.627 1.328 2.083 2.378a5.789 5.789 0 012.369-2.32c1.046-.573 2.235-.86 3.567-.86zm16.796-.002c1.96 0 3.463.497 4.509 1.49 1.046.974 1.57 2.425 1.57 4.354v9.339h-1.941v-2.35c-.457.784-1.132 1.395-2.026 1.834-.875.44-1.922.659-3.14.659-1.674 0-3.005-.401-3.995-1.203-.989-.802-1.484-1.862-1.484-3.18 0-1.28.457-2.311 1.37-3.094.932-.783 2.407-1.174 4.424-1.174h4.765v-.917c0-1.299-.361-2.282-1.084-2.95-.723-.688-1.779-1.032-3.168-1.032-.951 0-1.864.162-2.74.487-.875.305-1.626.735-2.254 1.289l-.913-1.518c.761-.65 1.674-1.146 2.74-1.49a10.374 10.374 0 013.367-.544zm-.713 13.722c1.141 0 2.12-.258 2.939-.773.818-.535 1.427-1.3 1.826-2.292v-2.464h-4.708c-2.569 0-3.853.898-3.853 2.693 0 .879.333 1.576.999 2.091.666.497 1.598.745 2.797.745zm14.235-10.657c.476-1.012 1.18-1.776 2.112-2.292.951-.515 2.121-.773 3.51-.773v1.976l-.485-.028c-1.58 0-2.816.487-3.71 1.46-.894.975-1.341 2.34-1.341 4.097v7.678H57.74V41.818h1.941v2.95zm23.046-2.95v13.235c0 2.56-.628 4.45-1.884 5.672-1.236 1.241-3.11 1.862-5.621 1.862-1.389 0-2.711-.21-3.967-.63-1.237-.401-2.245-.965-3.025-1.69l1.027-1.547c.723.65 1.599 1.155 2.626 1.518a9.944 9.944 0 003.282.544c1.902 0 3.3-.448 4.195-1.346.893-.878 1.34-2.254 1.34-4.125v-1.92a6.086 6.086 0 01-2.482 2.178c-1.008.496-2.13.745-3.367.745-1.408 0-2.692-.306-3.853-.917a7.124 7.124 0 01-2.71-2.607c-.648-1.127-.971-2.397-.971-3.81 0-1.413.323-2.674.97-3.782A6.916 6.916 0 0171 42.62c1.142-.61 2.426-.917 3.853-.917 1.274 0 2.425.258 3.453.774a6.228 6.228 0 012.482 2.235v-2.894h1.941zm-7.676 12.691c1.084 0 2.064-.23 2.939-.688a5.06 5.06 0 002.026-1.976c.494-.84.742-1.795.742-2.865s-.248-2.015-.741-2.836a4.873 4.873 0 00-2.027-1.948c-.856-.477-1.836-.716-2.94-.716-1.084 0-2.064.229-2.939.687a5.106 5.106 0 00-2.026 1.948c-.476.84-.713 1.796-.713 2.865s.237 2.025.713 2.865a5.31 5.31 0 002.026 1.976c.875.459 1.855.688 2.94.688zm13.345-12.691h2.026v15.068h-2.026zm1.027-3.294c-.418 0-.77-.144-1.056-.43a1.41 1.41 0 01-.428-1.031c0-.382.143-.717.428-1.003.286-.287.638-.43 1.056-.43.419 0 .771.143 1.056.43.286.267.429.592.429.974 0 .42-.143.773-.429 1.06-.285.286-.637.43-1.056.43zm14.286 3.181c1.884 0 3.377.554 4.48 1.661 1.123 1.09 1.684 2.684 1.684 4.784v8.738h-2.026V48.35c0-1.566-.39-2.76-1.171-3.58-.779-.822-1.892-1.233-3.338-1.233-1.617 0-2.902.487-3.853 1.461-.931.955-1.398 2.282-1.398 3.982v7.907h-2.026V41.82h1.94v2.779a5.568 5.568 0 012.283-2.12c.99-.516 2.131-.774 3.425-.774zm11.86 3.121a1.48 1.48 0 01-1.083-.458 1.574 1.574 0 01-.428-1.118c0-.439.142-.802.428-1.088a1.477 1.477 0 011.083-.459c.419 0 .78.153 1.085.459.304.286.457.65.457 1.088 0 .44-.153.812-.457 1.118a1.48 1.48 0 01-1.085.458zm0 12.204a1.48 1.48 0 01-1.083-.458 1.574 1.574 0 01-.428-1.118c0-.439.142-.802.428-1.088a1.477 1.477 0 011.083-.458c.419 0 .78.152 1.085.458.304.286.457.65.457 1.088 0 .44-.153.812-.457 1.118a1.48 1.48 0 01-1.085.458zm25.62-1.976v1.833h-14.012v-1.46l8.304-8.165c1.047-1.031 1.751-1.92 2.112-2.664.381-.764.571-1.528.571-2.292 0-1.184-.409-2.1-1.227-2.75-.799-.669-1.95-1.003-3.453-1.003-2.34 0-4.157.745-5.45 2.235l-1.456-1.26c.78-.917 1.769-1.624 2.968-2.12 1.217-.497 2.587-.746 4.109-.746 2.036 0 3.643.487 4.823 1.461 1.199.955 1.798 2.273 1.798 3.954 0 1.031-.228 2.024-.685 2.979s-1.322 2.053-2.597 3.294l-6.792 6.704h10.987zm10.43 2.005c-1.541 0-2.921-.41-4.139-1.232-1.198-.821-2.14-1.996-2.824-3.523-.666-1.547-.999-3.362-.999-5.443s.333-3.887.999-5.415c.684-1.547 1.626-2.73 2.824-3.552 1.218-.821 2.598-1.232 4.139-1.232 1.54 0 2.91.41 4.109 1.232 1.217.821 2.169 2.005 2.854 3.552.684 1.528 1.026 3.333 1.026 5.415s-.342 3.896-1.026 5.443c-.685 1.527-1.637 2.702-2.854 3.523-1.199.821-2.569 1.232-4.109 1.232zm0-1.89c1.16 0 2.177-.325 3.053-.975.894-.649 1.588-1.594 2.083-2.836.495-1.241.742-2.74.742-4.497s-.247-3.256-.742-4.498-1.189-2.187-2.083-2.836c-.876-.65-1.893-.974-3.053-.974-1.161 0-2.188.325-3.083.974-.875.65-1.56 1.595-2.055 2.836-.494 1.242-.742 2.74-.742 4.498s.248 3.256.742 4.497c.495 1.242 1.18 2.187 2.055 2.836.895.65 1.922.974 3.083.974zm20-13.466c1.407 0 2.682.325 3.823.974a6.752 6.752 0 012.683 2.693c.647 1.165.971 2.492.971 3.982 0 1.509-.324 2.845-.971 4.01s-1.541 2.072-2.683 2.722c-1.122.63-2.397.945-3.823.945-1.218 0-2.321-.248-3.311-.745-.97-.515-1.769-1.26-2.397-2.234v8.393h-2.026V41.817h1.94v2.98a6.279 6.279 0 012.398-2.292c1.008-.535 2.14-.802 3.396-.802zm-.143 13.521c1.047 0 1.997-.239 2.853-.716a5.144 5.144 0 001.998-2.091c.495-.898.742-1.92.742-3.066s-.247-2.158-.742-3.036a5.143 5.143 0 00-1.998-2.091c-.856-.497-1.806-.745-2.853-.745-1.065 0-2.026.248-2.882.745-.838.496-1.504 1.193-1.998 2.09-.476.88-.714 1.892-.714 3.037s.238 2.168.714 3.066c.494.897 1.16 1.594 1.998 2.09.856.478 1.817.717 2.882.717zm20.793 1.663l-4.765-6.302-4.794 6.302h-2.284l5.936-7.735-5.65-7.333h2.283l4.509 5.901 4.508-5.901h2.226l-5.65 7.333 5.993 7.735zm5.59-12.061c-.418 0-.779-.153-1.083-.458a1.574 1.574 0 01-.428-1.118c0-.439.142-.802.428-1.088a1.476 1.476 0 011.083-.459c.419 0 .78.153 1.085.459.304.286.457.65.457 1.088 0 .44-.153.812-.457 1.118a1.48 1.48 0 01-1.085.458zm.029 9.08c.438 0 .799.154 1.084.46.286.286.429.649.429 1.088a2.7 2.7 0 01-.115.745 6.133 6.133 0 01-.285.916l-1.199 3.954h-1.369l.97-4.154a1.468 1.468 0 01-.742-.516 1.59 1.59 0 01-.285-.945c0-.44.143-.802.428-1.089a1.419 1.419 0 011.084-.458zm10.821-5.728v1.719h-.971c-.856 0-1.284.487-1.284 1.46v7.277c0 2.54-1.294 3.81-3.881 3.81h-1.084v-1.69h.77c1.446 0 2.169-.764 2.169-2.292v-7.076c0-.706.104-1.231.314-1.575.209-.344.551-.602 1.027-.774-.476-.172-.818-.43-1.027-.773-.21-.344-.314-.869-.314-1.576v-7.076c0-1.527-.723-2.291-2.169-2.291h-.77v-1.69h1.084c2.587 0 3.881 1.27 3.881 3.81v7.276c0 .974.428 1.461 1.284 1.461zm914.59-34.123l-10.51 4.154 10.51 4.154v1.776l-12.42-4.985v-1.89l12.42-5.014zm18.5-7.076v21.256h-1.94v-2.98a6.17 6.17 0 01-2.43 2.32c-.99.535-2.11.803-3.37.803-1.4 0-2.68-.325-3.82-.974a6.999 6.999 0 01-2.69-2.722c-.64-1.165-.96-2.492-.96-3.982 0-1.49.32-2.817.96-3.982a6.8 6.8 0 012.69-2.692c1.14-.65 2.42-.974 3.82-.974 1.22 0 2.32.257 3.28.773 1 .497 1.8 1.232 2.43 2.206V6.979h2.03zm-7.56 19.594c1.04 0 1.98-.24 2.82-.717.86-.496 1.52-1.193 2-2.09.49-.898.74-1.92.74-3.066s-.25-2.168-.74-3.065c-.48-.898-1.14-1.585-2-2.063-.84-.496-1.78-.745-2.82-.745-1.07 0-2.03.249-2.89.745-.83.478-1.5 1.165-2 2.063-.47.897-.71 1.92-.71 3.065 0 1.146.24 2.168.71 3.065.5.898 1.17 1.595 2 2.091.86.478 1.82.716 2.89.716zm13.26-13.407h2.03v15.068h-2.03zm1.03-3.294c-.42 0-.77-.144-1.06-.43-.28-.287-.42-.63-.42-1.031 0-.382.14-.717.42-1.003.29-.287.64-.43 1.06-.43s.77.143 1.05.43c.29.267.43.592.43.974 0 .42-.14.773-.43 1.06-.28.286-.63.43-1.05.43zm19.17 3.294l-6.67 15.068h-2.09l-6.65-15.068h2.12L1160.03 26l5.68-12.834zm14.4 4.097v1.89l-12.4 4.985v-1.776l10.49-4.154-10.49-4.153V12.25zM846.86 64.74c0 .522-.079.917-.246 1.184-.166.267-.428.458-.8.573.372.114.634.305.8.573.167.267.246.662.246 1.184v4.182c0 .993.476 1.49 1.411 1.49h.476v1.509h-.84c-.952 0-1.665-.242-2.149-.726-.483-.471-.721-1.171-.721-2.1v-4.393c0-.637-.286-.955-.856-.955h-.666v-1.528h.666c.57 0 .856-.318.856-.955v-4.392c0-.93.238-1.63.721-2.101.484-.484 1.197-.726 2.149-.726h.84v1.509h-.476c-.935 0-1.411.496-1.411 1.49zm19.27-3.133l-3.766 10.122h-1.744l-2.917-7.677-2.95 7.677h-1.744l-3.75-10.122h1.729l2.933 8.06 3.044-8.06h1.538l2.989 8.098 3.005-8.098zm1.82.002h1.831v10.122h-1.831zm.911-1.948a1.24 1.24 0 01-.888-.344c-.23-.229-.348-.51-.348-.84s.118-.611.348-.84c.238-.242.539-.363.888-.363.357 0 .65.114.88.343.238.217.357.49.357.822 0 .343-.119.636-.357.878-.23.23-.523.344-.88.344zm13.919-2.102V71.73h-1.745v-1.604a3.99 3.99 0 01-1.546 1.28 4.752 4.752 0 01-2.053.439c-.975 0-1.855-.217-2.624-.65a4.645 4.645 0 01-1.823-1.814c-.436-.79-.651-1.693-.651-2.712 0-1.019.215-1.916.651-2.693a4.645 4.645 0 011.823-1.814c.769-.433 1.649-.65 2.624-.65.722 0 1.388.14 1.998.42.61.268 1.118.67 1.522 1.204v-5.577h1.824zm-5.193 12.681c.634 0 1.213-.146 1.736-.44.515-.305.92-.725 1.213-1.26.293-.547.436-1.171.436-1.871s-.143-1.318-.436-1.853a3.094 3.094 0 00-1.213-1.26 3.493 3.493 0 00-1.736-.44 3.53 3.53 0 00-1.752.44 3.192 3.192 0 00-1.213 1.26c-.294.535-.436 1.152-.436 1.853 0 .7.142 1.324.436 1.871.301.535.705.955 1.213 1.26a3.52 3.52 0 001.752.44zm14.543.898c-.27.23-.595.407-.991.535a4.365 4.365 0 01-1.221.172c-1.015 0-1.8-.274-2.355-.822s-.84-1.33-.84-2.349v-5.557h-1.713v-1.509h1.713v-2.215h1.831v2.215h2.886v1.509h-2.886v5.48c0 .548.127.969.397 1.261.277.293.673.44 1.181.44.555 0 1.03-.16 1.427-.478zm7.61-9.626c1.284 0 2.299.376 3.044 1.127.761.738 1.142 1.827 1.142 3.266v5.824h-1.824v-5.614c0-.98-.238-1.72-.706-2.216-.467-.496-1.141-.745-2.013-.745-.991 0-1.768.293-2.339.879-.571.573-.856 1.4-.856 2.483v5.213h-1.832V57.56h1.832v5.48c.38-.483.872-.859 1.482-1.126.619-.268 1.308-.401 2.07-.401zm8.01 2.616a1.27 1.27 0 01-.912-.363 1.296 1.296 0 01-.38-.955c0-.369.126-.675.38-.917.254-.254.555-.381.912-.381s.65.12.896.362c.237.242.356.554.356.936s-.126.7-.38.955a1.18 1.18 0 01-.872.363zm0 7.716a1.27 1.27 0 01-.912-.363 1.296 1.296 0 01-.38-.955c0-.37.126-.675.38-.917.254-.254.555-.382.912-.382s.65.121.896.363c.237.242.356.554.356.936s-.126.7-.38.955a1.18 1.18 0 01-.872.363zm12.29-13.483v13.368h-1.879V60.022h-3.005v-1.661h4.884zm8.32 13.522c-1.054 0-1.99-.267-2.814-.802-.809-.548-1.451-1.337-1.919-2.368-.467-1.032-.705-2.254-.705-3.667 0-1.413.238-2.636.705-3.667.468-1.031 1.11-1.814 1.919-2.349.824-.547 1.76-.821 2.814-.821 1.039 0 1.967.274 2.783.821.825.535 1.467 1.318 1.934 2.35.476 1.03.706 2.253.706 3.666 0 1.413-.23 2.635-.706 3.667-.467 1.031-1.109 1.82-1.934 2.368-.816.535-1.744.802-2.783.802zm0-1.7c1.071 0 1.919-.439 2.553-1.318.642-.878.967-2.151.967-3.82s-.325-2.94-.967-3.819c-.634-.878-1.482-1.317-2.553-1.317-1.078 0-1.942.439-2.584 1.317-.634.879-.951 2.152-.951 3.82s.317 2.941.951 3.82c.642.878 1.506 1.317 2.584 1.317zm13.48-8.671c.975 0 1.855.216 2.624.65a4.556 4.556 0 011.808 1.814c.444.776.666 1.674.666 2.693 0 1.018-.222 1.922-.666 2.711a4.556 4.556 0 01-1.808 1.815c-.769.433-1.649.649-2.624.649-.721 0-1.387-.14-1.998-.42a4.188 4.188 0 01-1.522-1.222v5.232h-1.823V61.607h1.744v1.605c.412-.56.919-.98 1.546-1.26a4.75 4.75 0 012.053-.44zm-.151 8.728c.643 0 1.221-.147 1.729-.44a3.229 3.229 0 001.221-1.26c.301-.547.451-1.171.451-1.871s-.15-1.318-.451-1.853a3.068 3.068 0 00-1.221-1.26c-.508-.293-1.086-.44-1.729-.44a3.38 3.38 0 00-1.736.459 3.233 3.233 0 00-1.213 1.24c-.293.536-.436 1.153-.436 1.854 0 .7.143 1.324.436 1.871.294.535.698.955 1.213 1.26.523.293 1.102.44 1.736.44zm13.861 1.489l-2.909-3.877-2.949 3.877h-2.03l3.972-5.176-3.782-4.946h2.03l2.783 3.648 2.759-3.648h1.997l-3.805 4.947 4.011 5.175zm4.28-7.601c-.357 0-.658-.121-.911-.363a1.297 1.297 0 01-.381-.955c0-.369.127-.675.381-.917.253-.254.554-.381.911-.381s.658.12.896.362.357.554.357.936-.127.7-.373.955a1.21 1.21 0 01-.88.363zm.024 5.1c.349 0 .642.127.872.381.238.242.357.548.357.917 0 .19-.024.375-.072.554a7.976 7.976 0 01-.245.82l-.896 2.655h-1.197l.705-2.845a1.251 1.251 0 01-.594-.44 1.38 1.38 0 01-.206-.744c0-.382.119-.694.356-.936a1.25 1.25 0 01.92-.363zm7.666-3.496v1.528h-.642c-.563 0-.84.318-.84.955v4.392c0 .93-.246 1.63-.738 2.101-.483.484-1.205.726-2.156.726h-.833v-1.509h.452c.968 0 1.451-.496 1.451-1.49v-4.182c0-.535.072-.93.23-1.184.159-.268.428-.459.793-.573-.365-.115-.634-.3-.793-.554-.158-.267-.23-.668-.23-1.203v-4.183c0-.993-.483-1.49-1.451-1.49h-.452v-1.508h.833c.951 0 1.673.242 2.156.726.492.47.738 1.171.738 2.1v4.393c0 .637.277.955.84.955zm20.62 46.998l-10.505 4.153 10.505 4.154v1.776l-12.415-4.985v-1.89l12.415-5.013zm12.46-1c1.88 0 3.38.553 4.48 1.661 1.13 1.088 1.68 2.683 1.68 4.784v8.737h-2.02v-8.536c0-1.567-.39-2.76-1.17-3.582-.78-.82-1.9-1.231-3.34-1.231-1.616 0-2.901.487-3.852 1.461-.935.955-1.395 2.282-1.395 3.982v7.906h-2.03v-21.256h2.03v8.823c.547-.878 1.308-1.555 2.283-2.034.967-.477 2.077-.715 3.334-.715zm23.8 13.35v1.834h-14.01v-1.461l8.3-8.164c1.05-1.032 1.75-1.919 2.11-2.665.38-.763.57-1.527.57-2.292 0-1.183-.41-2.1-1.22-2.749-.8-.669-1.95-1.003-3.46-1.003-2.34 0-4.15.745-5.44 2.235l-1.46-1.261c.77-.916 1.76-1.624 2.96-2.12 1.22-.496 2.59-.744 4.12-.744 2.03 0 3.63.486 4.82 1.46 1.19.955 1.8 2.273 1.8 3.953 0 1.032-.23 2.025-.69 2.98s-1.32 2.053-2.6 3.294l-6.79 6.703zm15.5-9.14v1.891l-12.42 4.984v-1.776l10.51-4.154-10.51-4.153v-1.805zm-318.14.83c0 .707-.105 1.232-.314 1.575-.209.345-.551.602-1.027.774.476.172.818.43 1.027.773.209.344.314.869.314 1.576v7.076c0 1.528.723 2.291 2.169 2.291h.77v1.691h-1.055c-2.606 0-3.91-1.271-3.91-3.81v-7.276c0-.975-.428-1.462-1.284-1.462h-.97v-1.719h.97c.856 0 1.284-.486 1.284-1.46v-7.277c0-2.54 1.304-3.81 3.91-3.81h1.055v1.69h-.77c-1.446 0-2.169.765-2.169 2.292zm20.06-11.05v21.256h-1.941v-2.979c-.609 1.012-1.417 1.786-2.425 2.32-.989.535-2.112.802-3.368.802-1.408 0-2.683-.324-3.823-.974-1.142-.649-2.036-1.556-2.683-2.721s-.971-2.492-.971-3.982.324-2.817.971-3.982 1.541-2.062 2.683-2.692c1.14-.65 2.415-.975 3.823-.975 1.218 0 2.312.258 3.282.774.99.496 1.798 1.231 2.426 2.206v-9.053zm-7.562 19.595c1.046 0 1.988-.239 2.825-.717a5.148 5.148 0 001.997-2.091c.495-.897.742-1.919.742-3.065s-.247-2.167-.742-3.066a4.971 4.971 0 00-1.997-2.062c-.837-.496-1.779-.745-2.825-.745-1.066 0-2.027.249-2.883.745-.836.478-1.502 1.165-1.997 2.062-.476.899-.714 1.92-.714 3.066s.238 2.168.714 3.065c.495.898 1.161 1.595 1.997 2.091.856.478 1.817.717 2.883.717zM747.46 111.9h2.026v15.068h-2.026zm1.028-3.294c-.419 0-.771-.144-1.057-.43a1.413 1.413 0 01-.428-1.032c0-.381.143-.715.428-1.002.286-.286.638-.43 1.057-.43.417 0 .769.144 1.055.43.285.267.428.592.428.974 0 .42-.143.773-.428 1.06-.286.286-.638.43-1.055.43zm10.662 18.504a11.94 11.94 0 01-3.51-.515c-1.103-.363-1.969-.812-2.597-1.346l.913-1.605c.628.497 1.418.907 2.368 1.232a9.64 9.64 0 002.969.459c1.37 0 2.378-.21 3.025-.631.665-.439.998-1.05.998-1.834 0-.553-.181-.983-.541-1.288-.362-.325-.819-.563-1.37-.716-.552-.173-1.285-.335-2.198-.488-1.218-.229-2.198-.458-2.94-.687a4.538 4.538 0 01-1.911-1.232c-.514-.573-.771-1.365-.771-2.378 0-1.26.524-2.292 1.57-3.093 1.046-.803 2.501-1.204 4.366-1.204.97 0 1.941.134 2.911.401.97.249 1.769.583 2.397 1.003l-.885 1.633c-1.236-.86-2.711-1.289-4.423-1.289-1.294 0-2.274.229-2.94.687-.647.459-.969 1.06-.969 1.805 0 .573.18 1.032.541 1.375.381.344.847.602 1.399.773.551.153 1.313.315 2.283.488 1.199.229 2.159.458 2.882.687s1.341.621 1.855 1.174c.514.555.77 1.318.77 2.292 0 1.318-.551 2.369-1.655 3.152-1.084.763-2.596 1.145-4.537 1.145zm17.68-15.33c1.408 0 2.682.325 3.824.975a6.746 6.746 0 012.682 2.692c.647 1.166.971 2.492.971 3.982 0 1.509-.324 2.846-.971 4.011a6.948 6.948 0 01-2.682 2.721c-1.123.63-2.397.945-3.824.945-1.218 0-2.321-.248-3.311-.744-.97-.516-1.768-1.26-2.396-2.235v8.394h-2.027v-20.626h1.941v2.979a6.27 6.27 0 012.397-2.291c1.008-.536 2.14-.803 3.396-.803zm-.143 13.522c1.047 0 1.998-.239 2.854-.717a5.141 5.141 0 001.997-2.091c.495-.897.742-1.919.742-3.065s-.247-2.158-.742-3.037a5.154 5.154 0 00-1.997-2.091c-.856-.496-1.807-.745-2.854-.745-1.065 0-2.026.249-2.882.745-.837.497-1.503 1.194-1.997 2.091-.476.879-.714 1.891-.714 3.037s.238 2.168.714 3.065c.494.898 1.16 1.595 1.997 2.091.856.478 1.817.717 2.882.717zm11.743-19.582h2.025v21.256h-2.025zm12.93 6.06c1.958 0 3.457.497 4.503 1.49 1.047.974 1.57 2.425 1.57 4.354v9.339h-1.935v-2.349c-.459.784-1.133 1.394-2.029 1.834-.872.439-1.919.658-3.14.658-1.672 0-3.004-.401-3.995-1.203-.991-.801-1.483-1.862-1.483-3.18 0-1.279.452-2.311 1.372-3.093.927-.783 2.402-1.175 4.423-1.175h4.765v-.917c0-1.299-.365-2.282-1.086-2.95-.721-.688-1.776-1.032-3.171-1.032-.952 0-1.863.163-2.735.487a6.76 6.76 0 00-2.26 1.29l-.911-1.519c.761-.649 1.672-1.145 2.743-1.489a10.358 10.358 0 013.369-.545zm-.714 13.723c1.142 0 2.117-.258 2.934-.774.824-.535 1.427-1.299 1.831-2.292v-2.464h-4.709c-2.569 0-3.853.898-3.853 2.693 0 .879.333 1.576.999 2.091.666.497 1.593.746 2.798.746zM825.3 111.9l-7.5 16.873c-.61 1.414-1.316 2.416-2.116 3.009-.801.592-1.76.888-2.878.888-.722 0-1.404-.115-2.03-.344s-1.165-.573-1.625-1.032l.943-1.517c.761.763 1.673 1.145 2.736 1.145.689 0 1.268-.191 1.744-.573.491-.382.951-1.031 1.371-1.948l.65-1.461-6.699-15.04h2.109l5.653 12.806 5.644-12.806zm3.25 3.01c-.42 0-.784-.153-1.086-.458-.285-.306-.428-.679-.428-1.118s.143-.802.428-1.088a1.475 1.475 0 011.086-.459c.413 0 .777.153 1.079.459.309.286.46.649.46 1.088s-.151.812-.46 1.118a1.474 1.474 0 01-1.079.458zm0 12.203c-.42 0-.784-.153-1.086-.458-.285-.306-.428-.678-.428-1.117s.143-.803.428-1.089a1.478 1.478 0 011.086-.458c.413 0 .777.153 1.079.458.309.286.46.65.46 1.089s-.151.811-.46 1.117a1.474 1.474 0 01-1.079.458zm21.01-15.323c1.403 0 2.68.325 3.821.975a6.71 6.71 0 012.68 2.692c.65 1.166.975 2.492.975 3.982s-.325 2.817-.975 3.982a6.912 6.912 0 01-2.68 2.722c-1.141.649-2.418.973-3.821.973-1.261 0-2.386-.267-3.401-.802-.983-.534-1.784-1.308-2.394-2.32v2.979h-1.943v-21.256h2.03v9.053c.626-.974 1.427-1.709 2.394-2.206.991-.516 2.093-.774 3.314-.774zm-.143 13.522c1.047 0 1.998-.239 2.854-.717a5.137 5.137 0 001.998-2.091c.492-.897.737-1.919.737-3.065s-.245-2.167-.737-3.065a4.958 4.958 0 00-1.998-2.063c-.856-.496-1.807-.745-2.854-.745-1.07 0-2.029.249-2.885.745-.833.478-1.499 1.165-1.998 2.063-.476.898-.714 1.919-.714 3.065s.238 2.168.714 3.065c.499.898 1.165 1.595 1.998 2.091.856.478 1.815.717 2.885.717zm11.793-19.592h2.021v21.256h-2.021zM875 127.11c-1.443 0-2.743-.324-3.908-.973a7.316 7.316 0 01-2.735-2.75c-.666-1.166-.999-2.483-.999-3.954s.333-2.788.999-3.953a7.087 7.087 0 012.735-2.721c1.165-.65 2.465-.975 3.908-.975 1.451 0 2.751.325 3.917.975a6.928 6.928 0 012.711 2.721c.666 1.165.999 2.482.999 3.953s-.333 2.788-.999 3.954a7.148 7.148 0 01-2.711 2.75c-1.166.649-2.466.973-3.917.973zm0-1.804c1.071 0 2.022-.239 2.854-.717a5.144 5.144 0 001.998-2.091c.476-.897.714-1.919.714-3.065s-.238-2.167-.714-3.065-1.141-1.585-1.998-2.063c-.832-.496-1.783-.745-2.854-.745-1.062 0-2.021.249-2.878.745-.84.478-1.506 1.165-1.997 2.063-.476.898-.714 1.919-.714 3.065s.238 2.168.714 3.065c.491.898 1.157 1.595 1.997 2.091.857.478 1.816.717 2.878.717zm18 1.804c-1.483 0-2.815-.324-3.996-.973a7.11 7.11 0 01-2.735-2.722c-.666-1.184-.999-2.511-.999-3.982s.333-2.788.999-3.953a7.094 7.094 0 012.735-2.721c1.181-.65 2.513-.975 3.996-.975 1.292 0 2.441.258 3.456.774a5.694 5.694 0 012.426 2.206l-1.514 1.031c-.499-.745-1.126-1.298-1.887-1.662a5.443 5.443 0 00-2.481-.573c-1.086 0-2.062.249-2.942.745a5.116 5.116 0 00-2.021 2.063c-.476.898-.714 1.919-.714 3.065 0 1.165.238 2.196.714 3.094a5.354 5.354 0 002.021 2.062c.88.478 1.856.717 2.942.717.896 0 1.72-.181 2.481-.545.761-.363 1.388-.916 1.887-1.661l1.514 1.031a5.89 5.89 0 01-2.426 2.235c-1.03.496-2.18.744-3.456.744zm15.14-7.7l-3.536 3.265v4.297h-2.029v-21.256h2.029v14.41l8.959-8.222h2.513l-6.422 6.159 7.024 8.909h-2.481zm11.82-4.5c-.421 0-.785-.153-1.086-.458-.286-.306-.429-.679-.429-1.118s.143-.802.429-1.088a1.472 1.472 0 011.086-.459c.412 0 .777.153 1.078.459.309.286.46.649.46 1.088s-.151.812-.46 1.118a1.471 1.471 0 01-1.078.458zm.023 9.081c.437 0 .801.153 1.087.458.285.286.428.65.428 1.089 0 .229-.04.477-.111.745a8.218 8.218 0 01-.286.916l-1.205 3.953h-1.363l.967-4.153a1.49 1.49 0 01-.745-.516 1.581 1.581 0 01-.286-.945c0-.439.143-.803.428-1.089.286-.305.65-.458 1.086-.458zm10.837-5.731v1.719h-.967c-.856 0-1.284.487-1.284 1.462v7.276c0 2.54-1.293 3.81-3.885 3.81h-1.086v-1.69h.777c1.443 0 2.164-.764 2.164-2.292v-7.076c0-.707.103-1.232.317-1.576.206-.343.547-.601 1.023-.773-.476-.172-.817-.429-1.023-.774-.214-.343-.317-.868-.317-1.575v-7.076c0-1.527-.721-2.292-2.164-2.292h-.777v-1.69h1.086c2.592 0 3.885 1.27 3.885 3.81v7.277c0 .974.428 1.46 1.284 1.46zM203.53 79.856c0 .523-.083.917-.248 1.184s-.431.459-.799.573c.368.115.634.306.799.574.165.267.248.661.248 1.183v4.183c0 .993.469 1.49 1.408 1.49h.475v1.508h-.837c-.951 0-1.668-.242-2.15-.726-.482-.47-.723-1.17-.723-2.1v-4.393c0-.636-.284-.954-.855-.954h-.666V80.85h.666c.571 0 .855-.319.855-.956v-4.392c0-.93.241-1.63.723-2.1.482-.485 1.199-.726 2.15-.726h.837v1.508h-.475c-.939 0-1.408.497-1.408 1.49zm9.3-3.229c.977 0 1.852.216 2.626.65a4.605 4.605 0 011.807 1.814c.444.776.666 1.674.666 2.692 0 1.02-.222 1.923-.666 2.713a4.604 4.604 0 01-1.807 1.813c-.774.434-1.649.65-2.626.65-.723 0-1.389-.14-1.998-.42a4.174 4.174 0 01-1.522-1.223v5.233h-1.826V76.722h1.75v1.604c.406-.56.92-.98 1.541-1.26a4.763 4.763 0 012.055-.44zm-.152 8.728c.647 0 1.224-.147 1.731-.44a3.23 3.23 0 001.218-1.26c.305-.548.457-1.171.457-1.872 0-.7-.152-1.317-.457-1.852a3.067 3.067 0 00-1.218-1.26c-.507-.293-1.084-.44-1.731-.44a3.36 3.36 0 00-1.732.458 3.263 3.263 0 00-1.217 1.242c-.292.535-.438 1.152-.438 1.852 0 .7.146 1.324.438 1.872a3.22 3.22 0 001.217 1.26c.521.293 1.098.44 1.732.44zm12.102 1.604c-1.002 0-1.902-.223-2.702-.669a4.92 4.92 0 01-1.883-1.833c-.444-.79-.666-1.68-.666-2.674 0-.993.222-1.878.666-2.654a4.747 4.747 0 011.883-1.834c.8-.445 1.7-.668 2.702-.668s1.896.223 2.682.668a4.626 4.626 0 011.865 1.834c.457.776.685 1.661.685 2.654 0 .994-.228 1.884-.685 2.674a4.79 4.79 0 01-1.865 1.833c-.786.446-1.68.669-2.682.669zm0-1.604c.647 0 1.224-.147 1.731-.44a3.23 3.23 0 001.218-1.26c.291-.548.437-1.171.437-1.872 0-.7-.146-1.317-.437-1.852a3.067 3.067 0 00-1.218-1.26c-.507-.294-1.084-.44-1.731-.44s-1.23.146-1.75.44a3.223 3.223 0 00-1.218 1.26c-.292.535-.438 1.152-.438 1.852 0 .7.146 1.324.438 1.872.304.534.71.955 1.218 1.26.52.293 1.103.44 1.75.44zm10.65 1.604a8.66 8.66 0 01-2.379-.325c-.761-.229-1.357-.516-1.788-.86l.761-1.45c.444.318.983.572 1.617.763s1.275.287 1.922.287c1.597 0 2.396-.458 2.396-1.376 0-.305-.107-.547-.323-.725s-.488-.306-.818-.382a14.464 14.464 0 00-1.369-.286c-.812-.128-1.478-.274-1.998-.44-.508-.166-.945-.446-1.313-.84s-.552-.948-.552-1.662c0-.916.381-1.648 1.142-2.196.761-.56 1.782-.84 3.063-.84.672 0 1.344.083 2.016.248.673.166 1.224.389 1.656.669l-.781 1.451c-.824-.535-1.794-.802-2.91-.802-.774 0-1.363.127-1.769.382-.406.255-.609.592-.609 1.012 0 .331.114.592.342.783.229.191.508.331.837.42.343.09.819.191 1.427.306.811.14 1.465.292 1.959.458.508.153.939.42 1.294.803.355.381.533.916.533 1.603 0 .917-.393 1.65-1.18 2.196-.773.536-1.833.803-3.176.803zm6.63-10.237h1.827v10.122h-1.827zm.914-1.948a1.25 1.25 0 01-.895-.344c-.228-.229-.342-.509-.342-.84s.114-.611.342-.84c.241-.242.539-.363.895-.363.355 0 .646.114.875.344.241.216.361.49.361.82a1.202 1.202 0 01-1.236 1.223zm10.076 11.477c-.266.23-.596.408-.989.535a4.332 4.332 0 01-1.218.172c-1.015 0-1.801-.273-2.359-.821-.558-.548-.837-1.33-.837-2.35V78.23h-1.712v-1.509h1.712v-2.215h1.826v2.215h2.892v1.51h-2.892v5.48c0 .548.133.968.4 1.261.279.293.672.439 1.18.439.558 0 1.033-.159 1.427-.477zm2.21-9.529h1.826v10.122h-1.826zm.913-1.948c-.355 0-.653-.115-.894-.344-.229-.229-.343-.509-.343-.84s.114-.611.343-.84c.241-.242.539-.363.894-.363s.647.114.875.344c.241.216.362.49.362.82a1.2 1.2 0 01-.362.88c-.228.229-.52.343-.875.343zm8.717 12.185c-1.002 0-1.903-.223-2.702-.669a4.92 4.92 0 01-1.883-1.833c-.444-.79-.666-1.68-.666-2.674 0-.993.222-1.878.666-2.654a4.747 4.747 0 011.883-1.834c.799-.445 1.7-.668 2.702-.668s1.896.223 2.682.668a4.626 4.626 0 011.865 1.834c.456.776.685 1.661.685 2.654 0 .994-.229 1.884-.685 2.674a4.79 4.79 0 01-1.865 1.833c-.786.446-1.68.669-2.682.669zm0-1.604c.647 0 1.223-.147 1.731-.44a3.23 3.23 0 001.218-1.26c.291-.548.437-1.171.437-1.872 0-.7-.146-1.317-.437-1.852a3.067 3.067 0 00-1.218-1.26c-.508-.294-1.084-.44-1.731-.44s-1.23.146-1.75.44a3.223 3.223 0 00-1.218 1.26c-.292.535-.438 1.152-.438 1.852 0 .7.146 1.324.438 1.872.304.534.71.955 1.218 1.26.52.293 1.103.44 1.75.44zm13.14-8.728c1.281 0 2.296.376 3.045 1.127.761.738 1.141 1.826 1.141 3.265v5.826h-1.826v-5.616c0-.98-.235-1.718-.704-2.215-.47-.496-1.142-.745-2.017-.745-.99 0-1.77.293-2.34.879-.571.572-.856 1.4-.856 2.482v5.215h-1.827V76.723h1.751v1.527a3.565 3.565 0 011.483-1.203c.634-.28 1.351-.42 2.15-.42zm8 2.614c-.356 0-.66-.121-.914-.363a1.3 1.3 0 01-.38-.955c0-.369.127-.675.38-.917.254-.254.558-.381.914-.381.355 0 .653.12.894.362s.361.554.361.936-.126.7-.38.955a1.19 1.19 0 01-.875.363zm0 7.716c-.356 0-.66-.121-.914-.363a1.303 1.303 0 01-.38-.955c0-.37.127-.675.38-.917.254-.254.558-.381.914-.381.355 0 .653.12.894.362s.361.554.361.936-.126.7-.38.955a1.19 1.19 0 01-.875.363zm10.74-8.535a3.123 3.123 0 011.408-1.337c.622-.305 1.377-.458 2.265-.458v1.776a3.573 3.573 0 00-.419-.02c-.989 0-1.77.3-2.34.898-.559.586-.838 1.426-.838 2.521v5.042h-1.825v-10.12h1.749v1.7zm14.94 3.414c0 .14-.013.325-.039.554h-8.18c.114.891.501 1.61 1.16 2.158.673.535 1.503.802 2.492.802 1.205 0 2.175-.407 2.911-1.222l1.009 1.184a4.418 4.418 0 01-1.713 1.223c-.672.28-1.427.42-2.264.42-1.065 0-2.01-.217-2.834-.65a4.816 4.816 0 01-1.922-1.852c-.444-.79-.666-1.68-.666-2.674 0-.98.216-1.865.647-2.655a4.725 4.725 0 011.808-1.833c.773-.446 1.642-.668 2.605-.668.964 0 1.821.222 2.569.668a4.478 4.478 0 011.77 1.833c.431.79.647 1.694.647 2.712zm-4.986-3.667c-.874 0-1.61.268-2.206.803-.583.534-.926 1.235-1.027 2.1h6.468c-.101-.852-.45-1.547-1.046-2.081-.584-.548-1.313-.821-2.189-.821zm7.526-5.495h1.826v14.171h-1.826zm8.98 3.953c1.394 0 2.46.344 3.195 1.031.749.688 1.123 1.713 1.123 3.075v6.112h-1.731v-1.338c-.305.471-.743.834-1.313 1.09-.558.241-1.224.362-1.997.362-1.129 0-2.036-.273-2.721-.822-.673-.547-1.009-1.266-1.009-2.158 0-.89.324-1.603.971-2.139.647-.547 1.674-.82 3.082-.82h2.891v-.363c0-.79-.228-1.395-.685-1.815-.456-.42-1.128-.63-2.016-.63a5.17 5.17 0 00-1.75.306 4.35 4.35 0 00-1.446.783l-.761-1.375a5.38 5.38 0 011.864-.955 7.579 7.579 0 012.303-.344zm-.419 8.919c.698 0 1.299-.153 1.807-.459a2.722 2.722 0 001.103-1.337v-1.413h-2.815c-1.547 0-2.321.522-2.321 1.566 0 .51.197.91.59 1.203s.938.44 1.636.44zm13.789.705a2.83 2.83 0 01-.989.535 4.332 4.332 0 01-1.218.172c-1.014 0-1.801-.273-2.359-.821-.558-.548-.837-1.33-.837-2.35V78.23h-1.713v-1.509h1.713v-2.215h1.826v2.215h2.893v1.51h-2.893v5.48c0 .548.134.968.4 1.261.279.293.672.439 1.18.439.558 0 1.034-.159 1.427-.477zm2.21-9.529h1.826v10.122h-1.826zm.912-1.948c-.354 0-.652-.115-.893-.344-.228-.229-.343-.509-.343-.84s.115-.611.343-.84c.241-.242.539-.363.893-.363.356 0 .647.114.876.344.241.216.361.49.361.82a1.202 1.202 0 01-1.237 1.223zm13.328 1.949l-4.414 10.122h-1.864l-4.414-10.122h1.903l3.463 8.117 3.538-8.117zm10.53 5.113c0 .14-.013.325-.038.554h-8.181c.114.891.501 1.61 1.16 2.158.673.535 1.503.802 2.493.802 1.204 0 2.175-.407 2.91-1.222l1.009 1.184a4.418 4.418 0 01-1.713 1.223c-.672.28-1.426.42-2.263.42-1.066 0-2.011-.217-2.835-.65a4.816 4.816 0 01-1.922-1.852c-.444-.79-.666-1.68-.666-2.674 0-.98.216-1.865.647-2.655a4.732 4.732 0 011.808-1.833c.773-.446 1.642-.668 2.606-.668s1.82.222 2.568.668a4.478 4.478 0 011.77 1.833c.431.79.647 1.694.647 2.712zm-4.985-3.667c-.875 0-1.611.268-2.207.803-.583.534-.926 1.235-1.027 2.1h6.468c-.101-.852-.45-1.547-1.046-2.081-.584-.548-1.312-.821-2.188-.821zm7.965 1.072c-.356 0-.66-.121-.914-.363a1.3 1.3 0 01-.38-.955c0-.369.127-.675.38-.917.254-.254.558-.381.914-.381.355 0 .653.12.894.362s.361.554.361.936-.127.7-.38.955a1.19 1.19 0 01-.875.363zm.019 5.1c.355 0 .647.127.875.381.241.242.361.548.361.917a2 2 0 01-.076.553c-.038.18-.12.453-.247.822l-.894 2.655h-1.199l.704-2.846a1.27 1.27 0 01-.59-.439 1.352 1.352 0 01-.209-.745c0-.382.12-.694.361-.936s.546-.362.914-.362zm7.691-3.491v1.528h-.647c-.558 0-.837.318-.837.955v4.392c0 .93-.247 1.63-.742 2.1-.482.484-1.198.726-2.15.726h-.837v-1.508h.457c.964 0 1.446-.496 1.446-1.49v-4.182c0-.535.076-.93.228-1.184.165-.268.431-.459.799-.573-.368-.115-.634-.3-.799-.554-.152-.267-.228-.668-.228-1.204v-4.182c0-.993-.482-1.49-1.446-1.49h-.457v-1.508h.837c.952 0 1.668.242 2.15.726.495.47.742 1.171.742 2.1v4.393c0 .637.279.955.837.955zM175.4 11.623l-7.002 2.77 7.002 2.768v1.185l-8.276-3.323v-1.261l8.276-3.342zm8.31-.668c1.256 0 2.251.37 2.986 1.108.749.725 1.123 1.788 1.123 3.189v5.825h-1.351v-5.691c0-1.044-.26-1.84-.78-2.388-.519-.547-1.261-.82-2.225-.82-1.079 0-1.935.324-2.569.973-.622.637-.932 1.522-.932 2.655v5.27h-1.351V6.907h1.351v5.882c.368-.586.875-1.038 1.522-1.356s1.389-.477 2.226-.477zm11.41 2.481c1.395.076 2.455.458 3.178 1.146.735.675 1.103 1.56 1.103 2.654 0 .764-.184 1.445-.552 2.044-.367.586-.913 1.05-1.636 1.394-.723.344-1.604.516-2.645.516a8.147 8.147 0 01-2.739-.459c-.85-.318-1.535-.738-2.055-1.26l.666-1.089c.444.459 1.034.834 1.77 1.127.736.28 1.522.42 2.358.42 1.091 0 1.935-.235 2.531-.706.596-.484.894-1.146.894-1.987 0-.827-.298-1.476-.894-1.948-.596-.47-1.497-.706-2.702-.706h-.95V13.57l3.69-4.641h-6.811V7.706h8.562v.975l-3.768 4.755zm14.83.326v1.26l-8.276 3.324v-1.184l7.002-2.77-7.002-2.769V10.42zM1231.6 104.8c0 .521-.08.916-.24 1.183-.17.267-.43.459-.8.574.37.114.63.305.8.572.16.268.24.662.24 1.184v4.183c0 .993.47 1.489 1.41 1.489h.48v1.509h-.84c-.95 0-1.67-.241-2.15-.726-.48-.471-.72-1.171-.72-2.101v-4.392c0-.637-.29-.955-.86-.955h-.66v-1.528h.66c.57 0 .86-.318.86-.954v-4.393c0-.93.24-1.63.72-2.1.48-.484 1.2-.727 2.15-.727h.84v1.51h-.48c-.94 0-1.41.496-1.41 1.489zm9.7 6.4c-.27.229-.6.407-1 .534-.38.115-.8.172-1.21.172-1.01 0-1.81-.273-2.36-.821-.56-.548-.84-1.33-.84-2.349v-5.558h-1.71v-1.508h1.71v-2.216h1.83v2.216h2.89v1.508h-2.89v5.482c0 .547.13.967.4 1.26s.67.439 1.18.439c.55 0 1.03-.159 1.42-.477zm10.9-4.41c0 .14-.02.325-.04.554h-8.19c.12.891.5 1.611 1.16 2.158.68.535 1.51.802 2.5.802 1.2 0 2.17-.407 2.91-1.222l1.01 1.184c-.46.535-1.03.942-1.72 1.222-.67.28-1.42.42-2.26.42-1.07 0-2.01-.216-2.83-.649-.83-.445-1.47-1.063-1.92-1.852s-.67-1.681-.67-2.674c0-.981.22-1.865.64-2.655.45-.789 1.05-1.4 1.81-1.833.78-.446 1.64-.669 2.61-.669s1.82.223 2.57.669a4.492 4.492 0 011.77 1.833c.43.79.65 1.693.65 2.712zm-4.99-3.667c-.87 0-1.61.268-2.2.802-.59.535-.93 1.235-1.04 2.101h6.47c-.1-.853-.45-1.546-1.04-2.082-.59-.547-1.32-.821-2.19-.821zm13.69 8.667l-2.92-3.877-2.95 3.877H1253l3.97-5.175-3.78-4.947h2.03l2.78 3.648 2.76-3.648h2l-3.81 4.947 4.02 5.175zm9.8-.59c-.27.229-.6.407-.99.534-.4.115-.8.172-1.22.172-1.02 0-1.8-.273-2.36-.821s-.84-1.33-.84-2.349v-5.558h-1.71v-1.508h1.71v-2.216h1.83v2.216h2.89v1.508h-2.89v5.482c0 .547.13.967.4 1.26.28.293.67.439 1.18.439.56 0 1.03-.159 1.43-.477zm1.3-5.44h5.12v1.585H1272zm11.7-4.19c1.4 0 2.46.344 3.19 1.032.75.687 1.12 1.713 1.12 3.074v6.112h-1.73v-1.337c-.3.471-.74.834-1.31 1.089-.56.242-1.22.362-2 .362-1.13 0-2.03-.273-2.72-.82-.67-.549-1.01-1.268-1.01-2.159s.33-1.604.97-2.139c.65-.548 1.68-.821 3.09-.821h2.89v-.363c0-.789-.23-1.394-.68-1.814-.46-.42-1.14-.63-2.02-.63-.6 0-1.19.101-1.76.305a4.4 4.4 0 00-1.44.784l-.76-1.376c.52-.42 1.14-.738 1.86-.955a7.579 7.579 0 012.31-.344zm-.42 8.919c.7 0 1.3-.153 1.81-.458.5-.318.87-.764 1.1-1.337v-1.413h-2.82c-1.54 0-2.32.522-2.32 1.566 0 .509.2.91.59 1.203.4.293.94.439 1.64.439zm8.12-12.872h1.82v14.171h-1.82zm5.3 4.053h1.83v10.122h-1.83zm.91-1.948c-.35 0-.65-.114-.89-.343-.23-.23-.34-.51-.34-.84 0-.331.11-.611.34-.841.24-.242.54-.363.89-.363.36 0 .65.115.88.344.24.217.36.49.36.821a1.2 1.2 0 01-1.24 1.222zm13.99 1.948v8.747c0 1.769-.44 3.075-1.32 3.915-.87.853-2.18 1.28-3.92 1.28-.95 0-1.86-.134-2.72-.401-.86-.255-1.56-.625-2.09-1.108l.87-1.414c.47.408 1.05.726 1.73.955.7.242 1.42.363 2.16.363 1.17 0 2.04-.28 2.6-.84.57-.561.86-1.413.86-2.559v-.802c-.43.521-.96.917-1.6 1.184-.62.255-1.3.382-2.04.382-.96 0-1.84-.204-2.62-.611-.78-.421-1.39-1-1.83-1.738-.45-.752-.67-1.605-.67-2.559 0-.955.22-1.802.67-2.541a4.479 4.479 0 011.83-1.737c.78-.408 1.66-.612 2.62-.612.77 0 1.47.14 2.11.42a3.83 3.83 0 011.62 1.242v-1.566zm-5.26 8.097c.67 0 1.25-.14 1.78-.42s.94-.668 1.23-1.165c.3-.509.45-1.082.45-1.718 0-.981-.32-1.77-.96-2.369-.65-.611-1.48-.916-2.5-.916s-1.86.305-2.51.916c-.65.599-.97 1.388-.97 2.369 0 .636.15 1.209.44 1.718.31.497.72.885 1.23 1.165.54.28 1.14.42 1.81.42zm14.16-8.197c1.28 0 2.29.376 3.04 1.127.76.739 1.14 1.828 1.14 3.266v5.825h-1.82v-5.615c0-.98-.24-1.718-.71-2.216-.47-.496-1.14-.744-2.02-.744-.98 0-1.77.293-2.34.878-.57.574-.85 1.401-.85 2.483v5.214h-1.83v-10.122h1.75v1.528a3.55 3.55 0 011.49-1.204c.63-.28 1.35-.42 2.15-.42zm8 2.62c-.35 0-.66-.121-.92-.363a1.313 1.313 0 01-.38-.955c0-.369.13-.674.38-.917.26-.254.57-.382.92-.382s.65.121.89.363c.25.243.37.554.37.936s-.13.7-.39.955c-.23.242-.53.363-.87.363zm0 7.715c-.35 0-.66-.12-.92-.362a1.314 1.314 0 01-.38-.956c0-.369.13-.674.38-.916.26-.255.57-.382.92-.382s.65.121.89.363c.25.242.37.554.37.935 0 .383-.13.701-.39.956-.23.242-.53.362-.87.362zm13.4-.005c-1.03 0-1.95-.222-2.76-.668a4.934 4.934 0 01-1.88-1.833c-.46-.789-.69-1.681-.69-2.674s.23-1.878.69-2.655a4.76 4.76 0 011.88-1.833c.81-.446 1.73-.669 2.76-.669.91 0 1.72.185 2.44.555a3.91 3.91 0 011.67 1.603l-1.39.898c-.32-.484-.71-.847-1.18-1.089a3.369 3.369 0 00-1.56-.362c-.66 0-1.26.146-1.79.439-.52.293-.93.713-1.23 1.261-.3.534-.44 1.151-.44 1.852 0 .713.14 1.343.44 1.891.3.535.71.948 1.23 1.241.53.293 1.13.439 1.79.439.57 0 1.09-.121 1.56-.363s.86-.604 1.18-1.088l1.39.878c-.39.7-.95 1.242-1.67 1.624-.72.369-1.53.553-2.44.553zm15.4-5.11c0 .14-.01.325-.04.554h-8.18c.12.891.51 1.611 1.16 2.158.68.535 1.5.802 2.49.802 1.21 0 2.18-.407 2.91-1.222l1.02 1.184c-.46.535-1.03.942-1.71 1.222s-1.43.42-2.27.42c-1.06 0-2.02-.216-2.84-.649a4.861 4.861 0 01-1.92-1.852c-.44-.789-.66-1.681-.66-2.674 0-.981.21-1.865.65-2.655.44-.789 1.04-1.4 1.8-1.833.77-.446 1.64-.669 2.6-.669.97 0 1.83.223 2.57.669a4.516 4.516 0 011.78 1.833c.43.79.64 1.693.64 2.712zm-4.99-3.667c-.87 0-1.61.268-2.2.802-.59.535-.93 1.235-1.03 2.101h6.47c-.1-.853-.45-1.546-1.05-2.082-.58-.547-1.31-.821-2.19-.821zm12.89-1.553c1.28 0 2.3.376 3.04 1.127.76.739 1.15 1.828 1.15 3.266v5.825h-1.83v-5.615c0-.98-.24-1.718-.7-2.216-.47-.496-1.15-.744-2.02-.744-.99 0-1.77.293-2.34.878-.58.574-.86 1.401-.86 2.483v5.214h-1.82v-10.122h1.75v1.528c.36-.522.86-.923 1.48-1.204.64-.28 1.35-.42 2.15-.42zm13.3 9.63c-.27.229-.6.407-.99.534-.4.115-.8.172-1.22.172-1.02 0-1.8-.273-2.36-.821s-.84-1.33-.84-2.349v-5.558h-1.71v-1.508h1.71v-2.216h1.82v2.216h2.9v1.508h-2.9v5.482c0 .547.14.967.41 1.26.28.293.67.439 1.18.439.56 0 1.03-.159 1.43-.477zm10.9-4.41c0 .14-.01.325-.03.554h-8.18c.11.891.5 1.611 1.15 2.158.68.535 1.51.802 2.49.802 1.21 0 2.18-.407 2.92-1.222l1.01 1.184c-.46.535-1.03.942-1.72 1.222-.67.28-1.42.42-2.26.42-1.07 0-2.01-.216-2.83-.649a4.823 4.823 0 01-1.93-1.852c-.44-.789-.67-1.681-.67-2.674 0-.981.23-1.865.65-2.655.45-.789 1.05-1.4 1.81-1.833.77-.446 1.64-.669 2.61-.669.96 0 1.82.223 2.57.669a4.492 4.492 0 011.77 1.833c.42.79.64 1.693.64 2.712zm-4.98-3.667c-.88 0-1.62.268-2.21.802-.58.535-.92 1.235-1.02 2.101h6.46c-.1-.853-.45-1.546-1.04-2.082-.59-.547-1.32-.821-2.19-.821zm9.28.247a3.1 3.1 0 011.41-1.337c.62-.306 1.37-.459 2.26-.459v1.776c-.1-.012-.24-.019-.42-.019-.98 0-1.77.299-2.34.898-.55.586-.83 1.426-.83 2.521v5.042h-1.83V101.67h1.75zm6.6.82c-.36 0-.66-.121-.91-.363-.26-.255-.38-.573-.38-.955 0-.369.12-.674.38-.917.25-.254.55-.382.91-.382s.65.121.9.363c.23.243.35.554.35.936s-.12.7-.38.955a1.18 1.18 0 01-.87.363zm.02 5.099c.35 0 .65.127.88.382.23.242.35.547.35.916 0 .192-.02.377-.07.555-.04.178-.13.452-.25.821l-.89 2.654h-1.21l.71-2.845a1.269 1.269 0 01-.59-.439 1.344 1.344 0 01-.21-.746c0-.381.13-.693.36-.935.24-.242.55-.363.92-.363zm7.68-3.489v1.528h-.65c-.56 0-.83.318-.83.955v4.392c0 .93-.25 1.63-.75 2.101-.48.485-1.2.726-2.15.726h-.84v-1.509h.46c.97 0 1.45-.496 1.45-1.49v-4.182c0-.535.08-.929.23-1.184.16-.267.43-.458.8-.572-.37-.115-.64-.3-.8-.555-.15-.267-.23-.668-.23-1.203v-4.182c0-.994-.48-1.49-1.45-1.49h-.46v-1.509h.84c.95 0 1.67.243 2.15.726.5.471.75 1.171.75 2.101v4.393c0 .636.27.954.83.954zm-1289.05-5.01l-10.502 4.154 10.502 4.154v1.775l-12.414-4.984v-1.891l12.414-5.013zm12.48-1c1.884 0 3.377.555 4.48 1.662 1.123 1.089 1.684 2.683 1.684 4.784v8.737h-2.026v-8.537c0-1.565-.39-2.76-1.17-3.58-.78-.822-1.893-1.232-3.339-1.232-1.617 0-2.901.486-3.853 1.46-.931.955-1.397 2.283-1.397 3.983v7.906h-2.027V93.717h2.027v8.824c.551-.879 1.312-1.557 2.282-2.034.97-.478 2.084-.717 3.339-.717zm24.79 8.28h-12.556c.114 1.566.713 2.836 1.798 3.81 1.083.955 2.453 1.433 4.109 1.433.932 0 1.788-.163 2.568-.488a5.76 5.76 0 002.026-1.489l1.142 1.318a6.413 6.413 0 01-2.512 1.833c-.989.42-2.083.63-3.281.63-1.542 0-2.912-.325-4.109-.974a7.24 7.24 0 01-2.769-2.749c-.666-1.166-.999-2.483-.999-3.954s.314-2.788.942-3.953c.647-1.166 1.522-2.072 2.626-2.722 1.122-.649 2.377-.974 3.766-.974s2.636.325 3.739.974c1.103.65 1.969 1.556 2.597 2.722.627 1.146.941 2.463.941 3.953zm-7.249-6.531c-1.446 0-2.663.467-3.652 1.404-.97.916-1.522 2.119-1.655 3.609h10.644c-.134-1.49-.695-2.693-1.683-3.609-.971-.937-2.189-1.404-3.654-1.404zm16.229-1.75c1.96 0 3.462.497 4.509 1.49 1.046.974 1.57 2.425 1.57 4.354v9.339h-1.941v-2.35c-.457.784-1.131 1.395-2.026 1.834-.875.44-1.921.659-3.139.659-1.675 0-3.006-.401-3.995-1.203-.99-.802-1.484-1.862-1.484-3.18 0-1.28.456-2.311 1.37-3.093.932-.783 2.406-1.175 4.423-1.175h4.765v-.917c0-1.3-.361-2.282-1.084-2.95-.723-.688-1.779-1.032-3.168-1.032-.951 0-1.864.163-2.739.487-.875.306-1.626.736-2.254 1.29l-.914-1.52c.761-.648 1.675-1.144 2.739-1.488a10.362 10.362 0 013.368-.545zm-.713 13.722c1.141 0 2.121-.257 2.939-.774.819-.534 1.427-1.298 1.826-2.291v-2.464h-4.708c-2.569 0-3.852.898-3.852 2.693 0 .879.333 1.576.998 2.091.666.497 1.598.745 2.797.745zm26.053-19.798v21.256h-1.941v-2.979c-.609 1.012-1.417 1.786-2.425 2.32-.99.535-2.112.802-3.368.802-1.408 0-2.682-.324-3.824-.973a6.96 6.96 0 01-2.683-2.722c-.646-1.165-.97-2.492-.97-3.982s.324-2.816.97-3.982a6.754 6.754 0 012.683-2.692c1.142-.65 2.416-.975 3.824-.975 1.218 0 2.312.258 3.282.774.989.497 1.798 1.232 2.425 2.206v-9.053h2.027zm-7.563 19.595c1.047 0 1.988-.239 2.826-.717a5.15 5.15 0 001.998-2.091c.493-.897.741-1.919.741-3.065s-.248-2.167-.741-3.065a4.97 4.97 0 00-1.998-2.063c-.838-.496-1.779-.745-2.826-.745-1.065 0-2.026.249-2.882.745-.837.478-1.503 1.165-1.997 2.063-.476.898-.714 1.919-.714 3.065s.238 2.168.714 3.065c.494.898 1.16 1.595 1.997 2.091.856.478 1.817.717 2.882.717zm26.273-5.238h-12.557c.115 1.566.714 2.836 1.798 3.81 1.084.955 2.454 1.433 4.109 1.433.933 0 1.789-.163 2.569-.488a5.768 5.768 0 002.026-1.489l1.141 1.318a6.41 6.41 0 01-2.511 1.833c-.989.42-2.083.63-3.282.63-1.541 0-2.911-.325-4.109-.974a7.244 7.244 0 01-2.768-2.749c-.666-1.166-.999-2.483-.999-3.954s.314-2.788.942-3.953c.647-1.166 1.522-2.072 2.625-2.722 1.122-.649 2.378-.974 3.767-.974s2.635.325 3.738.974c1.104.65 1.969 1.556 2.597 2.722.628 1.146.942 2.463.942 3.953zm-7.249-6.531c-1.446 0-2.664.467-3.653 1.404-.97.916-1.521 2.119-1.655 3.609h10.644c-.133-1.49-.694-2.693-1.683-3.609-.97-.937-2.188-1.404-3.653-1.404zm13.349 1.311c.475-1.013 1.178-1.776 2.111-2.292.951-.516 2.121-.774 3.51-.774v1.977l-.485-.029c-1.579 0-2.816.487-3.71 1.461s-1.341 2.34-1.341 4.097v7.677h-2.026V99.899h1.941v2.951zm21.09 1.15v1.891l-12.413 4.984V109.1l10.501-4.154-10.501-4.154v-1.805zm956.76-58.91l-10.5 4.154 10.5 4.154v1.776l-12.41-4.985V48.3l12.41-5.014zm9.8-5.5c-.87 0-1.53.239-1.99.716-.44.478-.66 1.184-.66 2.12v1.776h4.63v1.719h-4.57V59.27h-2.03V45.921h-2.68v-1.719h2.68V42.34c0-1.375.39-2.464 1.18-3.266.79-.802 1.91-1.203 3.36-1.203.57 0 1.12.086 1.65.258.53.153.99.382 1.34.688l-.68 1.518c-.59-.497-1.33-.745-2.23-.745zm10.6 19.824c-1.45 0-2.75-.325-3.91-.974a7.192 7.192 0 01-2.74-2.75c-.67-1.165-1-2.483-1-3.953 0-1.471.33-2.789 1-3.954a6.991 6.991 0 012.74-2.721c1.16-.65 2.46-.974 3.91-.974 1.44 0 2.75.325 3.91.974a6.982 6.982 0 012.71 2.721c.66 1.165 1 2.483 1 3.954 0 1.47-.34 2.788-1 3.953a7.184 7.184 0 01-2.71 2.75c-1.16.65-2.47.974-3.91.974zm0-1.805c1.06 0 2.01-.238 2.85-.716.86-.496 1.52-1.193 2-2.091.48-.898.71-1.92.71-3.065s-.23-2.168-.71-3.066-1.14-1.585-2-2.062c-.84-.497-1.79-.745-2.85-.745s-2.03.248-2.89.745c-.83.477-1.5 1.165-2 2.062-.47.898-.71 1.92-.71 3.066s.24 2.167.71 3.065c.5.898 1.17 1.595 2 2.091.86.478 1.83.716 2.89.716zm17.9 1.805c-1.45 0-2.75-.325-3.9-.974a7.287 7.287 0 01-2.75-2.75c-.66-1.165-1-2.483-1-3.953 0-1.471.34-2.789 1-3.954a7.082 7.082 0 012.75-2.721c1.15-.65 2.45-.974 3.9-.974s2.75.325 3.91.974a6.916 6.916 0 012.71 2.721c.67 1.165 1 2.483 1 3.954 0 1.47-.33 2.788-1 3.953a7.115 7.115 0 01-2.71 2.75c-1.16.65-2.46.974-3.91.974zm0-1.805c1.07 0 2.02-.238 2.86-.716a5.226 5.226 0 002-2.091c.47-.898.71-1.92.71-3.065s-.24-2.168-.71-3.066a5.034 5.034 0 00-2-2.062c-.84-.497-1.79-.745-2.86-.745s-2.03.248-2.88.745c-.83.477-1.5 1.165-2 2.062-.47.898-.71 1.92-.71 3.066s.24 2.167.71 3.065c.5.898 1.17 1.595 2 2.091.85.478 1.81.716 2.88.716zm19.7.745c-.39.344-.86.611-1.43.802a5.91 5.91 0 01-1.75.258c-1.41 0-2.49-.382-3.25-1.146s-1.14-1.843-1.14-3.237v-9.11h-2.69v-1.718h2.69v-3.295h2.02v3.295h4.57v1.718h-4.57v8.995c0 .898.23 1.586.66 2.063.46.458 1.1.688 1.94.688.42 0 .82-.067 1.2-.201.4-.134.75-.325 1.03-.573zm16.2-5.987h-12.56c.11 1.566.71 2.836 1.8 3.81 1.08.955 2.45 1.432 4.11 1.432.93 0 1.79-.162 2.57-.487a5.81 5.81 0 002.02-1.49l1.15 1.318a6.456 6.456 0 01-2.52 1.834c-.99.42-2.08.63-3.28.63-1.54 0-2.91-.325-4.11-.974-1.18-.668-2.1-1.585-2.77-2.75s-1-2.483-1-3.953c0-1.47.32-2.788.94-3.953.65-1.165 1.53-2.073 2.63-2.722 1.12-.65 2.38-.974 3.76-.974 1.4 0 2.64.325 3.75.974 1.1.65 1.96 1.557 2.6 2.722.62 1.145.93 2.463.93 3.953zm-7.26-6.532c-1.44 0-2.66.468-3.64 1.404-.98.917-1.52 2.12-1.66 3.61h10.65c-.14-1.49-.7-2.693-1.69-3.61-.97-.936-2.19-1.404-3.66-1.404zm13.36 1.318c.48-1.012 1.18-1.776 2.12-2.292.95-.515 2.12-.773 3.5-.773v1.976l-.48-.028c-1.58 0-2.81.487-3.71 1.46-.9.975-1.34 2.34-1.34 4.097v7.678h-2.02V44.203h1.93v2.95zm21.1 1.145v1.89l-12.41 4.985v-1.776l10.5-4.154-10.5-4.154v-1.804z"/></g></svg>