<svg fill="none" height="864" width="803" xmlns="http://www.w3.org/2000/svg"><filter id="a" color-interpolation-filters="sRGB" filterUnits="userSpaceOnUse" height="530.003" width="801.775" x=".231" y="333.998"><feFlood flood-opacity="0" result="BackgroundImageFix"/><feBlend in="SourceGraphic" in2="BackgroundImageFix" result="shape"/><feGaussianBlur result="effect1_foregroundBlur" stdDeviation="40"/></filter><linearGradient id="b" gradientUnits="userSpaceOnUse" x1="352.698" x2="721.494" y1="284.399" y2="284.399"><stop offset=".21" stop-color="#fff" stop-opacity="0"/><stop offset="1" stop-color="#fff" stop-opacity=".2"/></linearGradient><g filter="url(#a)" opacity=".6"><path d="M450.975 781.992L83.709 570.29c-5.154-2.933-4.508-8.154 1.468-11.586L331.19 416.841c5.873-3.432 14.947-3.813 20.101-.836L718.529 627.78c5.154 2.934 4.508 8.155-1.468 11.586L471.076 781.171c-5.946 3.417-14.947 3.798-20.101.821z" fill="#070716"/></g><path d="M729.62 551.168L362.442 339.393c-5.154-2.933-9.324-10.941-9.324-17.79V37.863c0-6.864 4.17-10.017 9.324-7.04L729.62 242.598c5.154 2.933 9.324 10.941 9.324 17.79v283.741c.059 6.863-4.111 10.017-9.324 7.039z" fill="#3c3e63"/><path d="M731.574 554.1l4.067-2.346-1.762-12.041z" fill="#3c3e63"/><path d="M726.316 553.178L359.079 341.344c-5.154-2.933-9.339-10.941-9.339-17.804V39.872c0-6.863 4.185-10.016 9.339-7.04l367.237 211.776c5.154 2.933 9.324 10.941 9.324 17.804V546.08c0 6.849-4.17 10.031-9.324 7.098z" fill="#9193be"/><path d="M725.669 553.485L358.431 341.71c-5.154-2.933-9.338-10.941-9.338-17.804V40.165c0-6.85 4.184-10.002 9.338-7.04L725.669 244.9c5.139 2.934 9.323 10.941 9.323 17.805v283.741c0 6.863-4.184 10.016-9.323 7.039z" fill="#7274a0"/><path d="M456.707 713.549L89.44 501.847c-5.154-2.933-4.508-8.154 1.468-11.586l246.015-141.863c5.873-3.432 14.947-3.813 20.101-.836l367.237 211.775c5.154 2.933 4.508 8.154-1.468 11.586L476.808 712.728c-5.947 3.417-14.948 3.798-20.101.821z" fill="#3c3e63"/><path d="M85.992 496.995v-6.923l7.782 3.256zm641.748 67.448v-6.761l-5.756 1.98 3.818 5.602z" fill="#3c3e63"/><path d="M456.707 707.726L89.44 495.98c-5.154-2.933-4.508-8.154 1.468-11.586l246.015-141.878c5.873-3.432 14.947-3.798 20.101-.821L724.261 553.47c5.154 2.933 4.508 8.155-1.468 11.586L476.808 706.89c-5.947 3.432-14.948 3.813-20.101.836z" fill="#9193be"/><path d="M456.709 706.83L89.442 495.055c-5.154-2.933-4.508-8.169 1.468-11.586l246.014-141.878c5.874-3.432 14.948-3.799 20.102-.836l367.237 211.79c5.154 2.933 4.508 8.154-1.468 11.586L476.81 705.994c-5.947 3.432-14.948 3.798-20.101.836z" fill="#7274a0"/><g fill="#232449"><path d="M330.108 389.447l-17.091-9.855c-1.468-.807-1.219-2.215.382-3.138l16.327-9.416a6.034 6.034 0 015.433-.22l17.106 9.856c1.395.806 1.218 2.214-.397 3.138l-16.313 9.415a6.06 6.06 0 01-5.447.22zm24.216 13.96l-17.106-9.87c-1.395-.792-1.219-2.2.397-3.139l16.312-9.401a6.067 6.067 0 015.448-.22l17.091 9.856c1.468.806 1.219 2.214-.382 3.138l-16.327 9.401a6 6 0 01-5.433.235zm24.473 14.124l-17.091-9.87c-1.468-.807-1.218-2.214.382-3.138l16.328-9.401a5.992 5.992 0 015.432-.235l17.106 9.87c1.468.792 1.219 2.2-.396 3.139l-16.313 9.401a6.142 6.142 0 01-5.448.234zm23.929 13.788l-17.106-9.856c-1.394-.806-1.218-2.214.397-3.138l16.313-9.416a6.073 6.073 0 015.447-.22l17.106 9.856c1.395.806 1.219 2.214-.397 3.138l-16.312 9.416a6.067 6.067 0 01-5.448.22zm24.222 13.961l-17.106-9.856c-1.468-.806-1.219-2.214.396-3.138l16.313-9.416a6.08 6.08 0 015.448-.22l17.091 9.856c1.394.806 1.218 2.214-.397 3.138l-16.313 9.416a6.047 6.047 0 01-5.432.22zm24.192 14.035l-17.091-9.856c-1.395-.806-1.234-2.214.381-3.138l16.313-9.416a6.093 6.093 0 012.698-.756 6.083 6.083 0 012.75.536l17.105 9.856c1.395.807 1.219 2.214-.396 3.138l-16.313 9.416a6.067 6.067 0 01-5.447.22zm24.215 13.891l-17.106-9.856c-1.395-.807-1.218-2.215.397-3.138l16.313-9.416a6.06 6.06 0 015.447-.22l17.091 9.856c1.395.806 1.219 2.214-.382 3.138l-16.327 9.401a6.002 6.002 0 01-5.433.235zm24.196 13.976l-17.091-9.871c-1.395-.806-1.219-2.199.381-3.138l16.328-9.401a6.005 6.005 0 015.433-.235l17.105 9.871c1.469.806 1.219 2.199-.396 3.138l-16.342 9.386a6.027 6.027 0 01-5.418.25zm24.212 13.93l-17.105-9.855c-1.395-.807-1.219-2.215.396-3.139l16.313-9.4a6.02 6.02 0 015.447-.235l17.091 9.87c1.395.792 1.219 2.2-.381 3.139l-16.313 9.4a6.067 6.067 0 01-5.448.22zm24.2 13.933l-17.091-9.855c-1.395-.807-1.219-2.215.382-3.139l16.298-9.386a6.03 6.03 0 015.432-.22l17.106 9.855c1.395.807 1.219 2.215-.396 3.139l-16.269 9.415a6.064 6.064 0 01-5.462.191zm24.21 13.994l-17.105-9.855c-1.395-.807-1.219-2.215.396-3.139l16.313-9.415a6.067 6.067 0 015.447-.22l17.106 9.855c1.395.807 1.219 2.215-.396 3.139l-16.313 9.416a6.08 6.08 0 01-5.448.219zm24.211 13.959l-17.105-9.855c-1.395-.807-1.219-2.215.396-3.138l16.328-9.416a6.06 6.06 0 015.447-.22l17.091 9.856c1.468.806 1.219 2.214-.396 3.138l-16.269 9.415a6.031 6.031 0 01-5.492.22zm24.202 13.964l-17.091-9.87c-1.469-.807-1.234-2.2.381-3.139l16.313-9.401a6.076 6.076 0 015.448-.234l17.105 9.87c1.395.806 1.219 2.2-.396 3.138l-16.313 9.401a6.02 6.02 0 01-5.447.235zm35.863 20.679l-28.764-16.587c-1.395-.807-1.219-2.215.396-3.139l16.372-9.401a6.032 6.032 0 015.447-.234l28.691 16.631c1.395.807 1.219 2.214-.382 3.138l-16.327 9.416a6.036 6.036 0 01-5.433.176zM342.567 423.678l-17.106-9.826c-1.468-.807-1.219-2.215.396-3.139l16.313-9.415a6.067 6.067 0 015.448-.22l17.091 9.841c1.395.806 1.218 2.214-.382 3.138l-16.328 9.416a6.046 6.046 0 01-5.432.205zm24.238 13.992l-17.091-9.855c-1.395-.807-1.219-2.215.381-3.139l16.328-9.357a6.043 6.043 0 015.433-.22l17.12 9.797c1.395.807 1.219 2.215-.396 3.139l-16.313 9.415a6.071 6.071 0 01-5.462.22zm24.256 13.975l-17.106-9.856c-1.468-.806-1.219-2.214.397-3.138l16.312-9.416a6.08 6.08 0 015.448-.22l17.091 9.856c1.395.807 1.219 2.215-.382 3.138l-16.327 9.416a6.047 6.047 0 01-5.433.22zm24.239 13.991l-17.105-9.87c-1.395-.792-1.219-2.2.396-3.138l16.313-9.445a6.063 6.063 0 015.447-.235l17.077 9.915c1.395.806 1.218 2.199-.397 3.138l-16.313 9.401a6.022 6.022 0 01-5.418.234zm24.052 13.876l-17.092-9.929c-1.394-.807-1.218-2.2.382-3.139l16.328-9.4a5.992 5.992 0 015.432-.235l17.106 9.87c1.469.792 1.219 2.2-.396 3.139l-16.342 9.459a6.067 6.067 0 01-5.418.235zm24.257 13.975l-17.106-9.856c-1.395-.806-1.218-2.214.397-3.138l16.313-9.445a6.06 6.06 0 015.447-.22l17.091 9.855c1.395.807 1.219 2.215-.382 3.139l-16.327 9.415a6.044 6.044 0 01-5.433.25zm24.242 13.977l-17.106-9.856c-1.394-.806-1.218-2.214.397-3.138l16.313-9.401a6.031 6.031 0 015.447-.235l17.106 9.871c1.395.792 1.219 2.2-.397 3.138l-16.312 9.401a6.067 6.067 0 01-5.448.22zm24.243 13.989l-17.091-9.855c-1.395-.807-1.218-2.215.397-3.139l16.313-9.415a6.03 6.03 0 015.432-.22l17.106 9.855c1.395.807 1.219 2.215-.396 3.139l-16.313 9.415a6.067 6.067 0 01-5.448.22zm24.256 13.979l-17.106-9.855c-1.468-.807-1.219-2.215.397-3.139l16.312-9.415a6.067 6.067 0 015.448-.22l17.091 9.855c1.395.807 1.233 2.215-.382 3.139l-16.313 9.415a6.063 6.063 0 01-5.447.22zm24.242 13.989l-17.091-9.87c-1.395-.792-1.219-2.2.381-3.139l16.328-9.4a6.08 6.08 0 015.433-.235l17.15 9.87c1.394.807 1.218 2.215-.397 3.139l-16.313 9.4a6.023 6.023 0 01-5.491.235zm24.257 14.023l-17.106-9.856c-1.394-.806-1.218-2.214.397-3.138l16.313-9.416a6.076 6.076 0 015.447-.22l17.091 9.856c1.395.806 1.219 2.214-.382 3.138l-16.327 9.416a6.06 6.06 0 01-2.69.756 6.051 6.051 0 01-2.743-.536zm24.234 13.947l-17.091-9.87c-1.395-.806-1.233-2.2.382-3.138l16.313-9.401a6.072 6.072 0 015.447-.235l17.106 9.87c1.395.807 1.218 2.2-.397 3.139l-16.313 9.401a6.02 6.02 0 01-5.447.234zm-290.774-167.69l-28.75-16.587c-1.395-.806-1.218-2.2.382-3.138l16.328-9.401a5.988 5.988 0 015.432-.235l28.823 16.587c1.395.807 1.219 2.215-.396 3.139l-16.372 9.386a6.074 6.074 0 01-5.447.249zm336.969 168.834l-17.091-9.856a5.592 5.592 0 00-5.08 0l-17.238 9.944c-1.469.807-1.469 2.112 0 2.933l1.365.792c1.292.733 1.278 1.951 0 2.699l-18.295 10.5c-1.468.822-1.468 2.127 0 2.934l10.88 6.277a5.602 5.602 0 005.066 0l17.062-9.827 3.524-2.038 2.54-1.467 2.555-1.466 14.683-8.463c1.424-.85 1.424-2.155.029-2.962zM236.356 443.621l-17.091-9.855c-1.468-.807-1.219-2.215.382-3.139l16.327-9.444a6.034 6.034 0 015.433-.22l17.106 9.855c1.395.807 1.218 2.215-.397 3.139l-16.313 9.415a6.057 6.057 0 01-5.447.249zm24.141 13.92l-17.091-9.855c-1.469-.807-1.219-2.215.381-3.139l16.328-9.415a6.03 6.03 0 015.433-.22l17.105 9.855c1.395.807 1.219 2.215-.396 3.139l-16.313 9.415a6.067 6.067 0 01-5.447.22zm24.139 13.918l-17.091-9.855c-1.468-.807-1.233-2.215.382-3.139l16.313-9.415a6.067 6.067 0 015.447-.22l17.062 9.855c1.395.807 1.219 2.215-.396 3.139l-16.313 9.415a6.066 6.066 0 01-5.404.22zm205.563 118.544l-17.105-9.87c-1.469-.792-1.219-2.2.396-3.139l16.313-9.401a6.076 6.076 0 015.447-.234l17.062 9.87c1.468.806 1.219 2.2-.396 3.138l-16.284 9.474a5.992 5.992 0 01-5.433.162zm24.126 13.919l-17.091-9.855c-1.469-.807-1.219-2.215.381-3.139l16.328-9.415a6.034 6.034 0 015.433-.22l17.105 9.855c1.469.807 1.219 2.215-.396 3.139l-16.313 9.415a6.063 6.063 0 01-5.447.22zm24.136 13.918l-17.091-9.855c-1.395-.807-1.219-2.215.382-3.139l16.327-9.415a6.034 6.034 0 015.433-.22l17.106 9.855c1.468.807 1.218 2.215-.397 3.139l-16.313 9.415a6.063 6.063 0 01-5.447.22zm24.141 13.918l-17.092-9.855c-1.394-.807-1.218-2.215.382-3.139l16.342-9.415a6.039 6.039 0 015.433-.22l17.106 9.855c1.468.807 1.219 2.215-.397 3.139l-16.268 9.415a6.077 6.077 0 01-5.506.22zM314.986 488.969l-23.317-13.449c-1.395-.807-1.218-2.215.397-3.139l16.313-9.415a6.06 6.06 0 015.447-.22l23.317 13.449c1.468.806 1.218 2.199-.397 3.138l-16.313 9.401a6.033 6.033 0 01-5.447.235zm151.072 87.117l-23.316-13.449c-1.469-.807-1.219-2.215.381-3.139l16.328-9.415a6.03 6.03 0 015.433-.22l23.316 13.449c1.395.806 1.219 2.199-.382 3.138l-16.327 9.401a6.005 6.005 0 01-5.433.235zm-30.367-17.512L322.03 493.047c-1.395-.807-1.219-2.214.382-3.138l16.327-9.416a6.047 6.047 0 015.433-.22l113.676 65.571c1.395.807 1.219 2.215-.396 3.139l-16.313 9.415a6.077 6.077 0 01-5.448.176zm-110.013-117.56l-17.091-9.856c-1.395-.806-1.218-2.214.397-3.138l16.313-9.416a6.043 6.043 0 015.432-.22l17.135 9.856c1.469.807 1.219 2.214-.396 3.138l-16.313 9.416a6.078 6.078 0 01-5.477.22zm24.181 13.903l-17.091-9.871c-1.395-.806-1.218-2.199.382-3.138l16.328-9.401a6.04 6.04 0 015.432-.235l17.106 9.871c1.468.806 1.219 2.199-.396 3.138l-16.313 9.401a6.037 6.037 0 01-5.448.235zm24.18 13.976l-17.105-9.855c-1.469-.807-1.219-2.215.396-3.139l16.313-9.415a6.067 6.067 0 015.447-.22l17.091 9.855c1.469.807 1.234 2.215-.381 3.139l-16.313 9.415a6.067 6.067 0 01-5.448.22zm24.19 13.887l-17.106-9.856c-1.468-.806-1.219-2.214.396-3.138l16.269-9.357a6.067 6.067 0 015.448-.22l17.091 9.855c1.468.807 1.218 2.215-.382 3.139l-16.283 9.415a6.035 6.035 0 01-5.433.162zm24.164 14.007l-17.091-9.855c-1.468-.807-1.219-2.215.382-3.139l16.327-9.415a6.039 6.039 0 015.433-.22l17.106 9.855c1.468.807 1.219 2.215-.397 3.139l-16.312 9.415a6.067 6.067 0 01-5.448.22zm24.177 13.947l-17.091-9.87c-1.468-.806-1.233-2.2.382-3.138l16.371-9.401a6.037 6.037 0 015.448-.235l17.105 9.871c1.395.806 1.219 2.199-.396 3.138l-16.313 9.401a6.018 6.018 0 01-5.506.234zm24.187 13.934l-17.105-9.855c-1.395-.807-1.219-2.215.396-3.139l16.313-9.415a6.067 6.067 0 015.447-.22l17.091 9.855c1.469.807 1.219 2.215-.381 3.139l-16.328 9.415a6.03 6.03 0 01-5.433.22zm24.186 13.946l-17.106-9.856c-1.395-.806-1.218-2.214.397-3.138l16.313-9.416a6.073 6.073 0 015.447-.22l17.091 9.856c1.395.806 1.219 2.214-.396 3.138l-16.313 9.416a6.046 6.046 0 01-5.433.22zm24.163 13.947l-17.076-9.856c-1.395-.806-1.219-2.214.382-3.138l16.327-9.416a6.046 6.046 0 015.433-.22l17.106 9.856c1.395.806 1.218 2.214-.397 3.138l-16.313 9.416a6.066 6.066 0 01-5.462.22zm24.183 13.945l-17.106-9.87c-1.395-.807-1.219-2.2.396-3.139l16.313-9.4a6.025 6.025 0 015.448-.235l17.105 9.87c1.395.792 1.219 2.2-.396 3.138l-16.313 9.401a6.078 6.078 0 01-2.696.764 6.082 6.082 0 01-2.751-.529zm24.191 13.938l-17.106-9.856c-1.395-.806-1.218-2.214.397-3.138l16.313-9.416a6.073 6.073 0 015.447-.22l17.091 9.856c1.468.806 1.219 2.214-.382 3.138l-16.327 9.416a6.06 6.06 0 01-2.69.756 6.051 6.051 0 01-2.743-.536z"/><path d="M591.598 594.389l-17.091-9.856c-1.395-.806-1.219-2.214.397-3.138l16.312-9.416a6.05 6.05 0 015.433-.22l17.106 9.856c1.395.807 1.219 2.214-.397 3.138l-16.268 9.489a6.06 6.06 0 01-2.729.73 6.062 6.062 0 01-2.763-.583zm-290.09-167.337l-35.371-20.386c-1.469-.806-1.219-2.214.396-3.138l16.313-9.416a6.08 6.08 0 015.447-.22l35.357 20.386c1.468.807 1.219 2.215-.382 3.139l-16.327 9.415a6.034 6.034 0 01-5.433.22zm-11.292 20.531l-17.091-9.826c-1.395-.807-1.234-2.2.382-3.139l16.312-9.4a6.025 6.025 0 015.448-.235l17.106 9.87c1.394.792 1.218 2.2-.397 3.139l-16.313 9.4a6.07 6.07 0 01-5.447.191zm24.182 13.976l-17.106-9.855c-1.395-.807-1.218-2.215.397-3.139l16.313-9.415a6.06 6.06 0 015.447-.22l17.091 9.855c1.468.807 1.219 2.215-.382 3.139l-16.327 9.415a6.034 6.034 0 01-5.433.22zm24.171 13.891l-17.135-9.812c-1.469-.806-1.219-2.199.396-3.138l16.313-9.401a6.063 6.063 0 015.447-.235l17.106 9.871c1.468.806 1.219 2.199-.396 3.138l-16.313 9.401a6.025 6.025 0 01-5.418.176zm24.167 13.99l-17.091-9.856c-1.469-.806-1.219-2.214.396-3.138l16.313-9.416a6.057 6.057 0 012.69-.756 6.051 6.051 0 012.743.536l17.105 9.856c1.395.806 1.219 2.214-.396 3.138l-16.313 9.416a6.08 6.08 0 01-5.447.22zm24.184 13.945l-17.032-9.855c-1.395-.807-1.219-2.215.396-3.139l16.313-9.415a6.067 6.067 0 015.448-.22l17.091 9.855c1.395.807 1.233 2.215-.382 3.139l-16.313 9.401a6.03 6.03 0 01-5.521.234zm24.166 13.934l-17.091-9.856c-1.395-.807-1.219-2.214.382-3.138l16.327-9.416a6.047 6.047 0 015.433-.22l17.106 9.856c1.394.806 1.218 2.214-.397 3.138l-16.313 9.416a6.086 6.086 0 01-2.697.756 6.08 6.08 0 01-2.75-.536zm24.181 13.949l-17.106-9.855c-1.394-.807-1.218-2.215.397-3.139l16.313-9.415a6.063 6.063 0 015.447-.22l17.091 9.855c1.395.807 1.219 2.215-.382 3.139l-16.312 9.415a6.067 6.067 0 01-5.448.22zm24.186 13.947l-17.091-9.87c-1.395-.807-1.219-2.2.382-3.139l16.327-9.401a6.004 6.004 0 015.433-.234l17.106 9.87c1.395.792 1.218 2.2-.397 3.138L464.9 544.98a6.072 6.072 0 01-5.447.235zm24.168 13.93l-17.106-9.856c-1.395-.806-1.219-2.214.396-3.138l16.313-9.416a6.08 6.08 0 015.448-.219l17.091 9.855c1.395.807 1.218 2.215-.382 3.138l-16.328 9.416a6.044 6.044 0 01-5.432.22zm24.17 13.947l-17.091-9.87c-1.395-.792-1.219-2.2.382-3.138l16.327-9.401a6.041 6.041 0 015.433-.235l17.091 9.87c1.395.807 1.219 2.2-.396 3.139l-16.313 9.401a6.033 6.033 0 01-5.433.234zm24.185 13.934l-17.106-9.856c-1.394-.806-1.218-2.214.397-3.138l16.313-9.416a6.073 6.073 0 015.447-.22l17.091 9.856c1.395.806 1.219 2.214-.382 3.138l-16.327 9.416a6.06 6.06 0 01-2.69.756 6.051 6.051 0 01-2.743-.536zm54.09 31.213l-46.986-27.117c-1.395-.807-1.234-2.215.382-3.139l16.312-9.415a6.067 6.067 0 015.448-.22l46.986 27.117c1.394.792 1.218 2.2-.397 3.138l-16.313 9.401a6.066 6.066 0 01-5.432.235zM266.05 433.68l-23.316-13.449c-1.469-.806-1.219-2.214.382-3.138l16.327-9.401a6.005 6.005 0 015.433-.235l23.316 13.449c1.395.807 1.219 2.215-.381 3.139l-16.299 9.415a6.037 6.037 0 01-5.462.22zm414.691 129.955l-343.348-197.99c-1.469-.792-1.219-2.2.396-3.138l8.164-4.693a6.043 6.043 0 015.433-.235l343.348 197.989c1.394.807 1.218 2.2-.397 3.139l-8.149 4.737a6.07 6.07 0 01-5.447.191z"/></g><path d="M468.043 586.147a5.184 5.184 0 01-2.378 2.464l-94.471 54.483a11.66 11.66 0 01-10.469.426l-161.513-93.114a3.605 3.605 0 01-1.586-1.628c-.588-1.467.235-3.094 2.378-4.326l94.486-54.499a11.655 11.655 0 0110.469-.425l161.513 93.114a2.846 2.846 0 011.571 3.505z" fill="#575981"/><path d="M468.042 586.146a5.18 5.18 0 01-2.378 2.464l-94.471 54.484a11.655 11.655 0 01-10.469.425l-161.513-93.114a3.605 3.605 0 01-1.586-1.628 5.3 5.3 0 012.379-2.449l94.485-54.484a11.68 11.68 0 0110.469-.44l161.513 93.129a3.53 3.53 0 011.571 1.613z" fill="#383961"/><path d="M706.872 548.615L363.524 350.626a6.046 6.046 0 01-2.452-4.825v-4.033c0-1.863 1.131-2.713 2.526-1.907L706.946 537.85a6.012 6.012 0 012.525 4.811v4.033c-.073 1.877-1.204 2.728-2.599 1.921z" fill="#232449"/><path d="M721.302 528.436L352.698 315.875l.192-272.39c0-2.79 1.96-3.916 4.381-2.56l359.842 207.546a9.666 9.666 0 014.381 7.575z" fill="url(#b)" opacity=".3"/><path d="M722.162 537.778L362.321 330.271c-5.047-2.917-9.133-10.722-9.133-17.44V45.451c0-6.717 4.086-9.813 9.133-6.896l359.841 207.533c5.048 2.905 9.134 10.71 9.134 17.44v267.354c0 6.743-4.086 9.814-9.134 6.896z" fill="#141530"/><path d="M576.461 213.902l-24.429-14.087v-8.803l24.429 14.087z" fill="#a298e2"/><path d="M632.927 246.488l-51.893-29.953v-8.803l51.893 29.953z" fill="#f9dd79"/><path d="M576.461 242.061l-24.429-14.075v-8.802l24.429 14.074z" fill="#a298e2"/><path d="M598.225 254.83l-17.191-10.121v-8.803l17.191 10.121z" fill="#4d3bff"/><path d="M576.461 256.148l-24.429-14.087v-8.803l24.429 14.087z" fill="#a298e2"/><path d="M610.034 275.506l-29.002-16.723v-8.803l29.002 16.723z" fill="#4d3bff"/><path d="M576.461 270.223l-24.429-14.074v-8.803l24.429 14.087z" fill="#a298e2"/><path d="M657.522 316.873l-76.488-44.002v-8.803l76.488 44.015z" fill="#ff8657"/><path d="M576.461 227.988l-24.429-14.087v-8.803l24.429 14.087zm99.851 57.64l-95.28-55.005v-8.803l95.28 55.006zm-99.851-1.32l-24.429-14.087v-8.803l24.429 14.087z" fill="#a298e2"/><path d="M663.451 335.362l-82.419-48.403v-8.803l82.419 48.403z" fill="#c33afc"/><path d="M576.461 312.482l-24.429-14.087v-8.803l24.429 14.087zm100.737 58.09l-96.164-55.453v-8.803l96.164 55.453zm-100.737-44.015l-24.429-14.074v-8.803l24.429 14.074z" fill="#a298e2"/><path d="M610.034 345.93l-29.002-16.736v-8.79l29.002 16.723z" fill="#c33afc"/><path d="M576.461 340.646l-24.429-14.087v-8.803l24.429 14.087z" fill="#a298e2"/><path d="M640.291 377.61l-59.259-34.329v-8.802l59.259 34.328z" fill="#4d3bff"/><path d="M576.461 298.396l-24.429-14.087v-8.803l24.429 14.087z" fill="#a298e2"/><path d="M591.716 307.199l-10.684-6.168v-8.802l10.684 6.167z" fill="#4d3bff"/><path d="M576.461 354.732l-24.429-14.087v-8.803l24.429 14.087z" fill="#a298e2"/><path d="M619.284 379.376l-38.25-22.007v-8.803l38.25 22.008z" fill="#c33afc"/><path d="M576.461 382.894l-24.429-14.087v-8.803l24.429 14.087z" fill="#a298e2"/><path d="M636.845 417.312l-55.813-31.783v-8.802l55.813 31.782z" fill="#ff8657"/><path d="M576.461 396.982l-24.429-14.087v-8.803l24.429 14.087zm11.54 7.035l-6.969-4.402v-8.803l6.969 4.402zm-11.54 7.036l-24.429-14.074v-8.803l24.429 14.074z" fill="#a298e2"/><path d="M613.044 432.115l-32.012-18.412V404.9l32.012 18.412z" fill="#f9dd79"/><path d="M576.463 368.806l-24.429-14.074v-8.816l24.429 14.087z" fill="#a298e2"/><path d="M625.572 396.979l-44.54-25.539v-8.79l44.54 25.526z" fill="#4d3bff"/><path d="M418.463 125.882l-24.429-14.087v-8.803l24.429 14.087z" fill="#a298e2"/><path d="M526.832 188.372l-103.798-59.854v-8.803l103.798 59.854z" fill="#c33afc"/><path d="M418.465 154.042l-24.429-14.087v-8.803l24.429 14.088z" fill="#a298e2"/><path d="M491.724 196.293l-68.686-39.613v-8.803l68.686 39.613z" fill="#f9dd79"/><path d="M418.463 168.13l-24.429-14.087v-8.803l24.429 14.087z" fill="#a298e2"/><path d="M508.514 220.054l-85.48-49.286v-8.803l85.48 49.286z" fill="#ff8657"/><path d="M418.466 182.207l-24.428-14.074v-8.803l24.428 14.074zm64.099 36.975l-59.527-34.328v-8.803l59.527 34.328zm-64.099-79.227l-24.428-14.087v-8.79l24.428 14.074z" fill="#a298e2"/><path d="M474.931 172.533l-51.893-29.927v-8.803l51.893 29.927z" fill="#4d3bff"/><path d="M418.465 196.296l-24.429-14.087v-8.803l24.429 14.087z" fill="#a298e2"/><path d="M453.564 216.534l-30.526-17.606v-8.803l30.526 17.606z" fill="#c33afc"/><path d="M418.465 224.455l-24.429-14.087v-8.79l24.429 14.074z" fill="#a298e2"/><path d="M519.198 282.557l-96.164-55.453v-8.803l96.164 55.453z" fill="#f9dd79"/><path d="M418.463 238.542l-24.429-14.087v-8.803l24.429 14.088z" fill="#a298e2"/><path d="M452.04 257.901l-29.002-16.723v-8.803l29.002 16.723z" fill="#ff8657"/><path d="M418.463 252.628l-24.429-14.087v-8.803l24.429 14.087zm90.055 51.924l-85.48-49.286v-8.803l85.48 49.299zm-90.055-94.172l-24.429-14.087v-8.803l24.429 14.087z" fill="#a298e2"/><path d="M503.928 259.666l-80.894-46.65v-8.803l80.894 46.65z" fill="#4d3bff"/><path d="M418.465 266.703l-24.429-14.087v-8.79l24.429 14.075z" fill="#a298e2"/><path d="M433.721 275.508l-10.683-6.154v-8.803l10.683 6.154z" fill="#c33afc"/><path d="M418.463 294.876l-24.429-14.087v-8.803l24.429 14.088z" fill="#a298e2"/><path d="M442.881 308.952l-19.843-11.438v-8.803l19.843 11.439z" fill="#f9dd79"/><path d="M418.465 308.953l-24.429-14.074v-8.803l24.429 14.075z" fill="#a298e2"/><path d="M474.931 341.529l-51.893-29.927v-8.803l51.893 29.927z" fill="#ff8657"/><path d="M418.465 323.038l-24.429-14.087v-8.803l24.429 14.088zm86.992 50.169l-82.419-47.533v-8.803l82.419 47.533zm-86.994-92.417l-24.429-14.087V257.9l24.429 14.088z" fill="#a298e2"/><path d="M526.836 343.282l-103.798-59.854v-8.803l103.798 59.854z" fill="#4d3bff"/><path d="M269.07 243.204l-90.528-52.205c-5.69-3.248-10.297-12.071-10.297-19.639V29.09c0-7.578 4.607-11.043 10.297-7.773l90.528 52.216c5.68 3.248 10.286 12.071 10.286 19.639v142.291c0 7.579-4.606 11.021-10.286 7.741z" fill="#3d4077"/><path d="M272.688 245.284l3.1-1.526-2.091-4.104zM169.937 21.719a18.095 18.095 0 012.861-1.375l2.298 4.536z" fill="#3d4077"/><path d="M266.697 244.394l-90.539-52.237c-5.679-3.248-10.286-12.072-10.286-19.639V30.28c0-7.578 4.607-11.053 10.286-7.773l90.539 52.216c5.68 3.248 10.286 12.06 10.286 19.628v142.27c0 7.567-4.606 11.054-10.286 7.773z" fill="#232449"/><path d="M192.624 52.174l-16.465-9.495v-5.933l16.465 9.495z" fill="#a298e2"/><path d="M265.667 94.3l-69.955-40.35v-5.923l69.955 40.34z" fill="#c33afc"/><path d="M192.624 71.164l-16.465-9.495v-5.933l16.465 9.495z" fill="#a298e2"/><path d="M242.006 99.637l-46.294-26.698v-5.933l46.294 26.698z" fill="#f9dd79"/><path d="M192.624 80.645l-16.465-9.484v-5.933l16.465 9.484z" fill="#a298e2"/><path d="M253.322 115.659l-57.61-33.226V76.5l57.61 33.226z" fill="#ff8657"/><path d="M192.624 90.14l-16.465-9.494v-5.933l16.465 9.495zm43.214 24.923l-40.126-23.136v-5.933l40.126 23.136zm-43.214-53.395l-16.465-9.495V46.24l16.465 9.495z" fill="#a298e2"/><path d="M230.69 83.623l-34.978-20.18V57.51l34.978 20.17z" fill="#4d3bff"/><path d="M192.624 99.637l-16.465-9.495v-5.933l16.465 9.495z" fill="#a298e2"/><path d="M216.284 113.277l-20.572-11.866v-5.933l20.572 11.866z" fill="#c33afc"/><path d="M192.624 118.614l-16.465-9.484v-5.933l16.465 9.495z" fill="#a298e2"/><path d="M260.529 157.774l-64.817-37.372v-5.933l64.817 37.372z" fill="#f9dd79"/><path d="M192.624 128.109l-16.465-9.494v-5.933l16.465 9.494z" fill="#a298e2"/><path d="M215.255 141.166l-19.543-11.27v-5.933l19.543 11.27z" fill="#ff8657"/><path d="M192.624 137.603l-16.465-9.494v-5.933l16.465 9.495zm60.698 35.002l-57.61-33.226v-5.922l57.61 33.215zm-60.698-63.472l-16.465-9.495v-5.933l16.465 9.495z" fill="#a298e2"/><path d="M250.232 142.358l-54.52-31.451v-5.932l54.52 31.45z" fill="#4d3bff"/><path d="M192.624 147.098l-16.465-9.495v-5.933l16.465 9.495z" fill="#a298e2"/><path d="M202.909 153.032l-7.197-4.158v-5.933l7.197 4.158z" fill="#c33afc"/><path d="M192.624 166.077l-16.465-9.484v-5.933l16.465 9.495z" fill="#a298e2"/><path d="M209.087 175.573l-13.375-7.708v-5.933l13.375 7.708z" fill="#f9dd79"/><path d="M192.624 175.572l-16.465-9.495v-5.932l16.465 9.494z" fill="#a298e2"/><path d="M230.69 197.528l-34.978-20.169v-5.933l34.978 20.169z" fill="#ff8657"/><path d="M192.624 185.066l-16.465-9.494v-5.933l16.465 9.494zm58.638 33.823l-55.55-32.046v-5.933l55.55 32.046zm-58.638-62.295l-16.465-9.495v-5.933l16.465 9.495z" fill="#a298e2"/><path d="M265.667 198.72l-69.955-40.35v-5.932l69.955 40.339z" fill="#4d3bff"/><path d="M99.101 106.027L28.787 65.478c-4.42-2.522-7.998-9.376-7.998-15.254V6.994c0-5.886 3.578-8.577 7.998-6.038l70.314 40.557c4.412 2.522 7.99 9.376 7.99 15.254v43.247c0 5.887-3.578 8.561-7.99 6.013z" fill="#32356f"/><path d="M101.915 107.642l2.408-1.185-1.625-3.187zM22.104 1.27C22.811.848 23.555.49 24.326.2l1.785 3.524z" fill="#32356f"/><path d="M97.258 106.95L26.936 66.377c-4.412-2.523-7.99-9.376-7.99-15.254V7.917c0-5.886 3.578-8.585 7.99-6.037l70.322 40.556c4.412 2.523 7.99 9.368 7.99 15.246v43.23c0 5.878-3.578 8.586-7.99 6.038z" fill="#1f2149"/><path d="M39.725 24.922l-12.789-7.374V12.94l12.789 7.374z" fill="#a298e2"/><path d="M96.46 57.641l-54.336-31.34v-4.6l54.335 31.332z" fill="#c33afc"/><path d="M39.725 39.67l-12.789-7.374v-4.608l12.789 7.374z" fill="#a298e2"/><path d="M78.08 61.786L42.125 41.05v-4.608l35.957 20.737z" fill="#f9dd79"/><path d="M39.725 47.037L26.936 39.67v-4.608l12.789 7.366z" fill="#a298e2"/><path d="M86.87 74.232L42.124 48.425v-4.609L86.87 69.624z" fill="#ff8657"/><path d="M39.725 54.413l-12.789-7.375V42.43l12.789 7.374zM73.29 73.77L42.125 55.8v-4.61l31.167 17.97zM39.725 32.297l-12.789-7.374v-4.608l12.789 7.374z" fill="#a298e2"/><path d="M69.292 49.349L42.124 33.675v-4.609l27.168 15.666z" fill="#4d3bff"/><path d="M39.725 61.788l-12.789-7.375v-4.608l12.789 7.374z" fill="#a298e2"/><path d="M58.103 72.383l-15.979-9.216v-4.608l15.979 9.216z" fill="#c33afc"/></svg>